<svg xmlns="http://www.w3.org/2000/svg">
<defs>
<font id="UTMCopperplate" horiz-adv-x="1865" >
  <font-face 
    font-family="UTM Copperplate"
    font-weight="400"
    font-stretch="normal"
    units-per-em="2048"
    panose-1="2 4 6 3 5 5 6 2 2 4"
    ascent="1638"
    descent="-410"
    x-height="1120"
    cap-height="1365"
    bbox="-70 -372 4942 2092"
    underline-thickness="109"
    underline-position="-359"
    unicode-range="U+0020-2026"
  />
<missing-glyph horiz-adv-x="5040" 
d="M3351 2045h10q37 -10 37 -52q0 -12 -32 -57h-28q0 24 28 54l2 10q-5 13 -10 15h-9q-8 0 -10 -19h-30q6 49 42 49zM2019 2016l29 -31q0 -16 -40 -30h-19l-59 12l-11 -12l-28 25q11 29 43 29h11l42 -11h2q10 0 30 18zM468 1980h142v-60h-94v-75h89v-59h-89v-129l-5 -5h-49
v323zM1155 1980h43l6 -5v-78h30v-52h-30v-188l-6 -5h-49v193h-25v52h25v78zM1621 1980h42l4 -5v-94h3q23 24 54 24h2q58 0 83 -71l2 -39v-143h-52v115q0 80 -42 80h-7q-43 0 -43 -86v-109h-51v323zM2200 1980h49l5 -5v-222q10 -51 45 -51q44 7 44 59v214l5 5h49v-216
q0 -85 -66 -112q-15 -8 -35 -8q-47 0 -82 55q-14 24 -14 57v224zM2435 1980h159v-60h-56v-268h-53v268h-55v55zM2621 1980h71q7 -4 83 -251h2l80 251h73v-328h-54v242h-2l-74 -242h-44q-4 0 -58 182l-19 60h-3v-242h-55v328zM3760 1980h52v-328h-45l-5 5v11l3 2l-3 14
q-29 -40 -78 -40q-67 0 -100 91l-5 39v3q0 94 92 125l23 3q35 0 63 -32h3v107zM2057 1928h36l4 -6v-49h-45v-221h-48v23q-23 -31 -59 -31q-89 14 -89 97v156h51v-104q0 -79 26 -86l18 -5h6q26 0 39 36l3 26v133h53v25zM3476 1928v-55h-31v-221h-47v25h-2q-15 -33 -57 -33
q-68 0 -86 78l-3 29v146h52v-120q0 -50 19 -68l21 -7h9q42 0 42 69v126h27q4 0 4 28l3 3h49zM758 1905q68 0 103 -77q9 -18 12 -54q0 -88 -90 -127l-32 -3q-63 0 -101 73q-12 22 -12 52v10q0 94 101 126h19zM1011 1905h3q74 0 83 -101v-152h-51v119q0 76 -42 76h-5
q-44 0 -44 -76v-119h-52v245h46v-21q30 29 62 29zM1466 1905h7q72 0 105 -89h-60q-16 31 -42 31h-17q-53 -14 -53 -61l-3 -15q12 -69 61 -69h9q22 0 47 27h40l2 3h3l2 -3l2 3l3 -3l2 3l2 -7q-33 -81 -110 -81q-76 0 -110 94l-4 36v3q0 85 77 120q15 8 37 8zM3141 1905h2

<glyph glyph-name=".notdef" horiz-adv-x="5040" 
d="M3351 2045h10q37 -10 37 -52q0 -12 -32 -57h-28q0 24 28 54l2 10q-5 13 -10 15h-9q-8 0 -10 -19h-30q6 49 42 49zM2019 2016l29 -31q0 -16 -40 -30h-19l-59 12l-11 -12l-28 25q11 29 43 29h11l42 -11h2q10 0 30 18zM468 1980h142v-60h-94v-75h89v-59h-89v-129l-5 -5h-49
v323zM1155 1980h43l6 -5v-78h30v-52h-30v-188l-6 -5h-49v193h-25v52h25v78zM1621 1980h42l4 -5v-94h3q23 24 54 24h2q58 0 83 -71l2 -39v-143h-52v115q0 80 -42 80h-7q-43 0 -43 -86v-109h-51v323zM2200 1980h49l5 -5v-222q10 -51 45 -51q44 7 44 59v214l5 5h49v-216
q0 -85 -66 -112q-15 -8 -35 -8q-47 0 -82 55q-14 24 -14 57v224zM2435 1980h159v-60h-56v-268h-53v268h-55v55zM2621 1980h71q7 -4 83 -251h2l80 251h73v-328h-54v242h-2l-74 -242h-44q-4 0 -58 182l-19 60h-3v-242h-55v328zM3760 1980h52v-328h-45l-5 5v11l3 2l-3 14
q-29 -40 -78 -40q-67 0 -100 91l-5 39v3q0 94 92 125l23 3q35 0 63 -32h3v107zM2057 1928h36l4 -6v-49h-45v-221h-48v23q-23 -31 -59 -31q-89 14 -89 97v156h51v-104q0 -79 26 -86l18 -5h6q26 0 39 36l3 26v133h53v25zM3476 1928v-55h-31v-221h-47v25h-2q-15 -33 -57 -33
q-68 0 -86 78l-3 29v146h52v-120q0 -50 19 -68l21 -7h9q42 0 42 69v126h27q4 0 4 28l3 3h49zM758 1905q68 0 103 -77q9 -18 12 -54q0 -88 -90 -127l-32 -3q-63 0 -101 73q-12 22 -12 52v10q0 94 101 126h19zM1011 1905h3q74 0 83 -101v-152h-51v119q0 76 -42 76h-5
q-44 0 -44 -76v-119h-52v245h46v-21q30 29 62 29zM1466 1905h7q72 0 105 -89h-60q-16 31 -42 31h-17q-53 -14 -53 -61l-3 -15q12 -69 61 -69h9q22 0 47 27h40l2 3h3l2 -3l2 3l3 -3l2 3l2 -7q-33 -81 -110 -81q-76 0 -110 94l-4 36v3q0 85 77 120q15 8 37 8zM3141 1905h2
q49 0 70 -60v-14h-52q0 16 -16 16h-4q-14 0 -19 -13v-13q0 -9 68 -35q30 -19 30 -59q0 -58 -61 -80l-23 -3q-76 12 -76 83h54q0 -20 27 -25h4q19 0 24 23q0 22 -68 44q-34 27 -34 59q0 66 74 77zM4203 1905q55 0 77 -63q7 -18 7 -65v-125h-52v112q0 83 -40 83h-11
q-33 0 -40 -54v-141h-52v5h-2l2 2v238h47v-21q25 29 64 29zM4432 1905h5q40 0 69 -40v18l-3 3l3 11h47v-208q0 -97 -85 -132l-33 -4h-7q-70 0 -104 80h59q24 -22 45 -23h13q22 0 43 22q15 13 22 52h-3q-32 -40 -73 -40q-57 0 -96 70q-10 18 -14 63q0 88 87 125zM3851 1897
h53v-136q6 -59 40 -59h7q46 0 46 93v102h51v-245h-47l-3 10h3l-3 3v5l3 2v3h-4q0 -23 -57 -31h-3q-59 0 -84 75l-2 85v93zM690 1771q10 -69 63 -69h7q59 14 59 65v15q-13 65 -59 65h-5q-58 0 -65 -76zM3630 1774q13 -72 61 -72h5q58 0 66 75q0 49 -51 70h-22q-37 0 -56 -57z
M4374 1774q8 -72 65 -72h5q59 12 59 72q0 61 -59 73h-14q-56 -16 -56 -62v-11zM3928 1620h52v-57h-52v57zM1054 1402q43 -11 43 -49v-4q0 -17 -32 -60h-28q0 25 31 57v7q0 12 -7 15h-12q-10 -4 -10 -19h-28v6q0 32 33 44zM3349 1339q92 0 138 -99h-60q-37 42 -80 42
q-55 0 -87 -68q-10 -22 -10 -47q0 -78 81 -110l18 -1q36 0 75 39h61q-44 -97 -138 -97q-93 0 -141 112q-10 31 -10 62q0 97 90 152q29 15 63 15zM3664 1339q57 0 103 -47q46 -51 46 -115v-20q0 -89 -91 -146q-33 -13 -63 -13q-89 0 -138 101q-13 33 -13 60v18q0 98 98 151
q29 11 58 11zM2261 1337h2l47 -11h3q11 0 26 11l18 -36q-18 -19 -35 -19h-3l-54 10l-20 -7l-20 36q18 16 36 16zM716 1334h19q118 0 129 -26q25 -26 25 -62q-10 -57 -30 -57v-6q47 -23 47 -66v-18q0 -63 -69 -88l-54 -5h-67v328zM2550 1334h53v-217q6 -61 45 -61q29 0 44 39
l3 30v203l4 6h45l5 -6v-171q0 -118 -40 -133q-24 -26 -64 -26q-55 0 -91 76l-4 54v206zM2805 1334h59q4 0 122 -237h4v237h50l4 -6v-322h-58q-29 48 -125 238h-3v-238h-53v328zM3101 1334h54v-328h-54v328zM3859 1334h8q155 0 174 -40q23 -11 47 -75l4 -36v-11l3 -2
q0 -94 -82 -149q-35 -15 -99 -15h-55v328zM4141 1334h153v-60h-103v-75h101v-57h-101v-74l4 -5h99v-57h-157v322zM3563 1175v-10q0 -76 79 -108l19 -1q68 0 96 86l3 20v15q0 61 -60 94q-12 8 -39 11q-66 0 -96 -83zM770 1274v-67h9q54 0 54 28l3 14q-11 25 -29 25h-37z
M3912 1274v-206l2 -3v-2q104 0 122 76l2 15v29q0 34 -32 68q-25 23 -78 23h-16zM1041 1259h5q38 0 71 -40v32h49v-245h-49v32q-36 -40 -80 -40q-75 0 -101 97l-5 36q0 89 85 125zM1314 1259h3q74 0 83 -102v-151h-51v128q0 67 -42 67h-10q-34 0 -39 -62v-133h-52v245h47v-21
q28 29 61 29zM1543 1259h5q45 0 71 -40v32h47v-219q0 -95 -104 -126h-16q-74 0 -108 82h59q26 -25 44 -25h14q52 0 64 77q-33 -42 -76 -42q-60 0 -101 81l-7 44v16q0 79 85 117zM1912 1259h2q43 0 61 -37h2q32 37 69 37h4q57 0 79 -55q8 -25 8 -45v-153h-52v138q0 44 -23 55
l-12 2h-15q-32 0 -36 -65v-130h-52v136q0 59 -43 59h-8q-32 0 -36 -57v-138h-54v245h50v-21h2q6 24 54 29zM2282 1259q47 0 75 -42v34h47v-245h-47v32q-36 -40 -78 -40q-74 0 -102 92l-6 41q0 90 85 125zM985 1117q0 -48 61 -61h4q45 0 62 46l3 15v22q-12 62 -57 62h-14
q-41 0 -59 -57v-27zM1487 1128q0 -48 43 -68l18 -4h5q47 0 63 57v23q-11 65 -58 65h-12q-50 0 -59 -73zM2225 1131v-14q15 -61 57 -61h14q58 12 58 64v11q0 45 -37 65l-18 5h-10q-64 -8 -64 -70zM770 1150v-82q0 -5 7 -5q77 0 77 45q0 34 -47 42h-37zM2966 753l24 -28
l-51 -55q-18 12 -27 26zM1524 727l85 -54q0 -15 -21 -42l-87 54q18 41 23 42zM2850 693h38l55 -60h-54l-21 26l-23 -26h-54q54 60 59 60zM3422 693h40l56 -60h-54l-24 26h-1q0 -5 -19 -26h-54zM622 685h52q8 -4 47 -137l34 -110q9 8 34 100l48 147h54v-2l-112 -326h-44z
M1159 685h51v-54h-51v54zM1354 685h46l6 -5v-323h-52v328zM2317 685h45l4 -5v-78h31v-52h-31v-193h-53v193h-26v52h26v78zM2425 685h52v-98h2q23 23 54 23h3q57 0 81 -71l3 -38v-144h-52v115q0 81 -39 81h-10q-42 0 -42 -87v-109h-52v328zM2664 685h52v-54h-52v54zM3028 685
h44l6 -5v-78h29v-52h-29v-193h-54v193h-27v52h27v78zM3234 685h52v-328h-52v328zM3957 685h52v-328h-52v328zM4316 685h51v-54h-51v54zM1555 610h5q83 0 110 -102l3 -23v-11q0 -83 -85 -120l-35 -5q-76 0 -111 97l-4 32q0 97 93 130zM1811 610h4q53 0 78 -60q7 -25 7 -81
v-112h-54v146q-7 50 -37 50h-10q-38 0 -42 -57v-139h-54v245h49v-21q26 29 59 29zM2046 610h4q45 0 63 -39h3v31h49v-206q0 -102 -89 -135l-28 -3h-5q-73 0 -106 81h52l37 -20l15 -3h14q50 0 61 72q-33 -39 -73 -39q-62 0 -98 76q-11 23 -12 60q0 85 86 123zM2866 610h2
q82 0 111 -104l2 -25l-2 -27h-172q15 -45 45 -45l14 -3q29 0 49 22h57v-3q-35 -76 -108 -76q-77 0 -111 97l-1 28v8q0 49 32 89q34 39 82 39zM3429 610h5q41 0 70 -39h2v31h47v-245h-47v31h-2q-35 -39 -77 -39q-71 0 -101 89l-5 36v14q0 86 84 120zM3711 610h7
q88 0 107 -128l-2 -1v-15q0 -65 -66 -106q-21 -11 -46 -11q-34 0 -64 32v-99l-5 -5h-49v325h49v-28q31 36 69 36zM4151 610q44 0 75 -39v31h49v-245h-49v31q-35 -39 -77 -39q-92 0 -108 132q0 84 73 121q15 8 37 8zM922 602h50v-136q3 -60 42 -60h5q44 0 44 87v109h52v-245
h-47v24h-5q0 -23 -56 -32h-3q-55 0 -82 68q-4 35 -4 99v81zM1159 602h51v-245h-51v245zM2664 602h52v-245h-52v245zM4316 602h51v-245h-51v245zM1492 488v-16q13 -66 59 -66h4q59 0 66 76q-13 71 -59 71h-11q-59 -16 -59 -65zM1987 472q15 -66 59 -66h11q48 0 59 75v1
q-13 71 -59 71h-14q-39 0 -56 -57v-24zM2805 506h122v2q-16 45 -59 45h-7q-35 0 -56 -47zM3373 474q13 -68 61 -68h5q52 0 65 63v12q-10 72 -57 72h-16q-56 -14 -56 -63zM3642 478q12 -72 61 -72h3q50 0 65 60v22q0 43 -49 65h-22q-47 0 -58 -72v-3zM4095 472q10 -66 66 -66
q43 0 61 48l2 15v16q0 54 -52 68h-18q-42 0 -59 -60v-21zM3416 321h51v-52h-51v52zM4137 321h51v-52h-51v52zM2733 133h4q35 0 43 -50v-2q0 -16 -24 -41l-10 -17h-28q0 25 28 56l3 2v2q-3 19 -9 19h-10q-8 0 -9 -19h-30q6 50 42 50zM1546 116l52 -60l-26 -19l-52 52zM352 79
h4q75 -48 85 -60l-20 -37q-88 49 -88 58zM3490 79l86 -58l-18 -39q-10 0 -91 55q15 36 23 42zM4578 76l19 -42l-91 -52l-20 39l92 58v-3zM1204 53h51v-19l5 -5h14v-36h-14l-5 -5v-279h-46v31q-34 -40 -81 -40q-72 0 -102 105l-3 26q0 102 101 131h14q33 0 66 -33v59l-6 5
h-43v36h49v24zM1480 45h40l56 -61h-53l-23 27l-23 -27h-53zM2641 45h33q12 0 63 -61h-54l-23 27q-19 -21 -19 -27h-58v4zM49 37h160v-60h-56v-268h-50l-4 5v245l2 3v2l-2 2l2 3l-2 2l2 3l-2 3h-54v54zM699 37h47v-73l2 -2l-2 -3v-3l2 -2l-2 -3v-3l2 -2v-2l-2 -3l2 -3h3
q17 24 51 24h3q53 0 77 -58q7 -17 7 -42v-153h-52v127q0 68 -40 68h-8q-43 0 -43 -86v-109h-52v322zM1297 37h47l5 -6v-49h-52v55zM1987 37h52v-198l70 115h62l-78 -118l90 -125v-2h-70q-10 22 -74 115v-115h-52v328zM2271 37v-99q24 24 53 24q57 0 80 -56q10 -19 10 -77
v-120h-54v133q0 62 -41 62h-11q-31 0 -37 -55v-140h-53v314l-1 3v3l1 2l-1 3l1 3h53zM2458 37h51v-55h-51v55zM3148 37h51v-108q27 33 68 33h3q75 0 105 -94l5 -37q0 -75 -64 -120q-30 -11 -49 -11q-41 0 -72 40v-31h-47v328zM4275 37h52v-99h2q23 24 54 24h3q60 0 82 -74
l2 -41v-138h-52v111q0 82 -32 82l-10 2h-12q-37 0 -37 -80v-115h-52v328zM329 -38h3v-58h-5q-42 0 -42 -57v-138h-53v245h47v-21q18 29 50 29zM564 -38q71 0 86 -87v-166h-51v136q-6 59 -41 59h-6q-45 0 -45 -84v-111h-52v245h50v-21q25 29 59 29zM1504 -38q72 0 105 -94
l5 -39q-2 -24 -7 -24h-169q17 -47 62 -47q24 0 48 21h57q-33 -79 -108 -79q-82 0 -113 105v37q0 81 89 117zM2657 -38h5q77 0 107 -97l3 -26v-21l-3 -13h-170q18 -47 53 -47h12q21 0 42 21h59q-34 -79 -105 -79q-84 0 -115 102l-2 29q0 93 91 128zM2915 -38h4q54 0 78 -60
q7 -25 7 -82v-111h-54v138q0 48 -35 57h-11q-38 0 -43 -57v-138h-54v245h50v-21q25 29 58 29zM3508 -38h6q40 0 70 -40h2v32h47v-245h-47v31h-2q-34 -40 -78 -40q-71 0 -101 90l-4 37v12q0 82 77 117q11 6 30 6zM3781 -38h4q62 0 82 -78l3 -84v-91h-54v138q0 48 -38 57h-9
q-38 0 -42 -52v-143h-54v245h49v-21q26 29 59 29zM4133 -38h1q74 0 104 -93l4 -40q0 -88 -84 -126l-25 -3q-41 0 -68 34v-106h-52v326h47v-29q30 37 73 37zM4714 -38h5q34 0 63 -37q27 37 69 37h6q56 0 79 -66l6 -51v-136h-52v122q0 73 -39 73h-7q-35 0 -41 -50v-140l-5 -5
h-48v140q0 42 -31 55h-17q-40 0 -40 -77v-118h-51v245h47v-21q22 29 56 29zM359 -46h49l5 -6v-234l-5 -5h-49v245zM1297 -46h52v-245h-52v245zM1649 -46h52v-136q4 -60 43 -60h4q44 0 44 81v115h52v-245h-47v24h-5q-12 -33 -59 -33q-52 0 -79 63q-5 12 -5 34v157zM2458 -46
h51v-245h-51v245zM4515 -46h51v-245h-51v245zM1077 -169q0 -53 51 -73h12q54 0 66 66v10q0 53 -54 70h-17q-38 0 -58 -57v-16zM1438 -143h122q-18 47 -53 47h-7q-43 0 -62 -44v-3zM2599 -143h122q-21 47 -54 47h-7q-46 0 -61 -47zM3196 -158v-11q10 -73 61 -73h5q64 8 64 71
v5q0 45 -38 65l-18 5h-14q-60 -14 -60 -62zM3452 -173q14 -69 62 -69h11q41 0 59 60v13q-8 73 -56 73h-17q-47 0 -59 -73v-4zM4062 -158v-22q0 -47 59 -62h9q50 0 61 76q-13 70 -58 70h-15q-56 -17 -56 -62z" />
    <glyph glyph-name=".null" horiz-adv-x="0" 
 />
    <glyph glyph-name="nonmarkingreturn" horiz-adv-x="571" 
 />
    <glyph glyph-name="space" unicode=" " horiz-adv-x="512" 
 />
    <glyph glyph-name="exclam" unicode="!" horiz-adv-x="699" 
d="M436 382h-173v27l16 4q39 9 38 31l-1 10v15l-53 822q-2 27 -11 34.5t-47 12.5v27h289v-27q-13 -2 -17 -3q-38 -4 -41 -44l-53 -822v-15l-1 -10q0 -15 7.5 -20t46.5 -15v-27zM349 194q46 0 77.5 -32t31.5 -78q0 -44 -32.5 -76t-76.5 -32q-45 0 -77 32t-32 77t31.5 76.5
t77.5 32.5z" />
    <glyph glyph-name="quotedbl" unicode="&#x22;" horiz-adv-x="1070" 
d="M354 843h-173v28q12 2 16 2q38 4 38 20q0 3 -1 10l-51 396q-3 25 -11 30t-49 8v28h289v-28q-13 -1 -17 -1q-26 -2 -33 -8t-10 -29l-51 -396q-2 -17 5.5 -21.5t47.5 -10.5v-28zM889 843h-173v28q12 2 16 2q38 4 38 20q0 2 -1 10l-51 396q-4 25 -11.5 30t-48.5 8v28h289
v-28q-13 -1 -17 -1q-26 -2 -33 -8t-10 -29l-51 -396q-2 -17 5.5 -21.5t47.5 -10.5v-28z" />
    <glyph glyph-name="numbersign" unicode="#" horiz-adv-x="1570" 
d="M381 345h-178q-32 0 -51 -14t-36 -50h-33l50 258h33q3 -36 16.5 -50t45.5 -14h178l81 416h-178q-32 0 -51 -14t-36 -50h-33l50 258h33q3 -36 16.5 -50t45.5 -14h179l45 235q1 5 1 16q0 24 -10 35t-41 21l7 37h258l-7 -37q-39 -11 -55.5 -26.5t-22.5 -45.5l-46 -235h417
l45 235q1 5 1 16q0 24 -10 35t-41 21l8 37h257l-7 -37q-39 -11 -55.5 -26.5t-22.5 -45.5l-46 -235h179q31 0 50.5 14t36.5 50h33l-51 -258h-33q-3 36 -16.5 50t-45.5 14h-178l-81 -416h178q32 0 51 14t36 50h33l-50 -258h-33q-3 36 -16.5 50t-45.5 14h-178l-46 -236
q-1 -7 -1 -18q0 -23 10 -34t41 -20l-7 -37h-258l7 37q39 10 55.5 25.5t22.5 46.5l46 236h-416l-46 -236q-1 -7 -1 -18q0 -23 10 -34t41 -20l-8 -37h-257l7 37q38 10 55 25.5t23 46.5zM536 475h416l81 416h-416z" />
    <glyph glyph-name="dollar" unicode="$" horiz-adv-x="1475" 
d="M802 1234v-463l72 -8q152 -17 214.5 -31t111.5 -40q152 -83 152 -278q0 -187 -147.5 -299t-402.5 -118v-125q0 -30 14 -46t50 -26v-32h-243v32q36 10 50 26t14 46v128q-206 15 -391 107q-92 46 -107 46q-13 0 -41 -34l-25 16l134 241l24 -14q-17 -36 -17 -49
q0 -38 168 -111q129 -57 255 -69v496q-200 25 -292 59q-107 41 -158 119q-49 75 -49 167q0 165 131.5 268t367.5 124v126q0 31 -14 47t-50 26v32h243v-32q-36 -10 -50 -26t-14 -47v-124q209 -8 415 -94q30 -12 36 -12q16 0 44 36l25 -12l-127 -246l-25 14q14 39 14 49
q0 34 -133 81q-108 39 -249 50zM687 1234q-109 -9 -185 -44q-161 -74 -161 -206t166 -174q36 -9 180 -26v450zM802 130q175 8 268 65q129 81 129 207q0 127 -133 173q-46 16 -264 40v-485z" />
    <glyph glyph-name="percent" unicode="%" horiz-adv-x="1842" 
d="M422 1377q140 0 240 -90q116 -104 116 -270q0 -72 -31 -142t-85 -118q-100 -90 -239 -90t-239 90q-116 104 -116 265q0 76 31 147t85 118q100 88 238 90zM422 1296q-105 0 -177 -75q-75 -78 -75 -199q0 -119 71.5 -196.5t181.5 -77.5q107 0 178 75q75 78 75 195
q0 123 -70.5 200t-183.5 78zM567 28v-28h-281v28q69 4 166 124l821 1061q57 74 57 91q0 26 -47 33v28h272v-28q-69 -4 -166 -123l-812 -1062q-58 -76 -58 -91q0 -25 48 -33zM1417 698q140 0 240 -90q116 -104 116 -270q0 -72 -31 -142t-85 -118q-100 -90 -239 -90t-239 90
q-116 104 -116 265q0 76 31.5 147t84.5 118q100 88 238 90zM1417 617q-105 0 -177 -75q-75 -78 -75 -199q0 -119 71.5 -196.5t181.5 -77.5q107 0 178 75q75 78 75 195q0 123 -70.5 200t-183.5 78z" />
    <glyph glyph-name="ampersand" unicode="&#x26;" horiz-adv-x="1528" 
d="M1473 883v-244h-27q-3 49 -24 49q-42 0 -113 -86q-52 -63 -137 -222q55 -130 129 -183q61 -45 111 -45q18 0 22.5 6.5t11.5 44.5h27v-203q-162 3 -255 57.5t-144 177.5q-158 -259 -483 -259q-232 0 -370 132q-128 124 -128 291q0 88 41.5 168t116.5 136q71 53 193 90
q-174 87 -174 254q0 155 121 252q110 90 288 90q211 0 326 -120q91 -94 91 -225q0 -98 -55.5 -170.5t-159.5 -111.5q162 -75 223 -246q145 339 369 367zM673 1266q-104 0 -172 -48q-81 -59 -81 -168q0 -95 73 -152q82 -64 203 -64q114 0 184 61q66 57 66 143q0 90 -62 151
q-77 76 -211 77zM609 702q-158 0 -268 -93q-91 -77 -91 -197t77 -196q104 -104 274 -104q161 0 285 109q97 84 97 163q0 48 -31.5 110.5t-79.5 108.5q-101 97 -263 99z" />
    <glyph glyph-name="quotesingle" unicode="'" horiz-adv-x="535" 
d="M354 843h-173v28q12 2 16 2q38 4 38 20q0 3 -1 10l-51 396q-3 25 -11 30t-49 8v28h289v-28q-13 -1 -17 -1q-26 -2 -33 -8t-10 -29l-51 -396q-2 -17 5.5 -21.5t47.5 -10.5v-28z" />
    <glyph glyph-name="parenleft" unicode="(" horiz-adv-x="649" 
d="M595 1529l54 -59q-111 -89 -213 -267q-139 -242 -139 -521q0 -295 158 -553q94 -155 194 -234l-54 -59q-458 361 -458 846t458 847z" />
    <glyph glyph-name="parenright" unicode=")" horiz-adv-x="649" 
d="M54 1529q458 -362 458 -847t-458 -846l-54 59q112 89 213 266q139 242 139 521q0 295 -158 554q-95 155 -194 234z" />
    <glyph glyph-name="asterisk" unicode="*" horiz-adv-x="858" 
d="M319 1502h221v-27q-37 -10 -49 -47.5t-13 -144.5q99 35 131.5 56t32.5 51q0 4 -1 11l27 9l68 -210l-27 -8q-19 31 -54 31q-44 0 -147 -32q58 -76 85 -101t50 -25q10 0 28 7l16 -22l-178 -130l-16 23q17 21 17 37q0 39 -80 154q-81 -117 -81 -154q0 -16 18 -38l-16 -22
l-179 130l17 22q17 -7 28 -7q41 0 134 126q-106 32 -147 32q-33 0 -55 -32l-26 8l69 210l26 -8q-1 -8 -1 -12q0 -29 34.5 -51.5t129.5 -54.5q-1 107 -13.5 144.5t-48.5 47.5v27z" />
    <glyph glyph-name="plus" unicode="+" horiz-adv-x="1570" 
d="M238 554v258h34q22 -37 54.5 -50.5t96.5 -13.5h298v295q0 64 -14.5 97t-50.5 54v36h258v-36q-36 -22 -49.5 -54t-13.5 -97v-295h294q65 0 98.5 14t53.5 50h36v-258h-36q-22 37 -54 50.5t-97 13.5h-295v-298q0 -64 13.5 -96t49.5 -55v-33h-258v34q37 22 51 54.5t14 96.5
v297h-299q-64 0 -96 -13.5t-55 -50.5h-33z" />
    <glyph glyph-name="comma" unicode="," horiz-adv-x="573" 
d="M215 -232l-30 35q66 41 96 80.5t40 98.5q-27 -6 -42 -6q-46 0 -74 29.5t-28 77.5q0 49 29.5 80.5t75.5 31.5q52 0 83 -43t31 -115q0 -89 -42.5 -152t-138.5 -117z" />
    <glyph glyph-name="hyphen" unicode="-" horiz-adv-x="407" 
d="M407 689v-258h-24q-8 37 -19 50.5t-34 13.5h-254q-22 0 -33.5 -13.5t-19.5 -50.5h-23v258h23q8 -37 19.5 -50.5t33.5 -13.5h254q22 0 34 14t19 50h24z" />
    <glyph glyph-name="hyphen" unicode="&#x2010;" horiz-adv-x="407" 
d="M407 689v-258h-24q-8 37 -19 50.5t-34 13.5h-254q-22 0 -33.5 -13.5t-19.5 -50.5h-23v258h23q8 -37 19.5 -50.5t33.5 -13.5h254q22 0 34 14t19 50h24z" />
    <glyph glyph-name="period" unicode="." horiz-adv-x="573" 
d="M286 194q46 0 77.5 -32t31.5 -78q0 -44 -32.5 -76t-76.5 -32q-45 0 -77 32.5t-32 76.5q0 45 31.5 76.5t77.5 32.5z" />
    <glyph glyph-name="slash" unicode="/" horiz-adv-x="1460" 
d="M411 28v-28h-315v28q69 4 163 124l794 1061q54 73 54 90q0 27 -48 35v27h307v-27q-69 -4 -163 -124l-785 -1062q-55 -74 -55 -90q0 -26 48 -34z" />
    <glyph glyph-name="zero" unicode="0" horiz-adv-x="1475" 
d="M736 1389q254 0 436 -179q95 -93 151 -228q60 -144 60 -309q0 -206 -109 -388q-99 -164 -264 -245q-130 -64 -273 -64q-169 0 -317 88q-158 93 -246 269q-83 164 -83 350q0 216 109 397q98 164 264 245q126 62 272 64zM736 1252q-212 0 -356 -155q-151 -162 -151 -414
t151 -415q143 -155 357 -155t357 155q151 163 151 407q0 262 -151 422q-144 153 -358 155z" />
    <glyph glyph-name="one" unicode="1" horiz-adv-x="1475" 
d="M710 1119q-84 -52 -147 -61q-28 -4 -35 -11.5t-14 -40.5h-32v256h32q6 -45 11 -53t25 -8q47 0 105 35t58 64q0 20 -56 31v34h267v-34q-38 -9 -51 -26t-13 -58v-1129q0 -41 13 -57.5t51 -26.5v-34h-278v34q38 9 51 26t13 58v1001z" />
    <glyph glyph-name="two" unicode="2" horiz-adv-x="1475" 
d="M345 942l-205 200l23 22q39 -26 59 -26q11 0 29 19q218 232 536 232q213 0 350 -110q142 -113 142 -289q0 -174 -135 -289q-93 -79 -308 -185q-164 -81 -225.5 -118t-122.5 -94q-85 -79 -120 -174h849q42 0 59.5 13t26.5 51h32v-258h-32q-9 38 -26.5 51t-59.5 13h-938
q-42 0 -59.5 -13t-26.5 -51h-32q1 107 31 188.5t100 169.5q77 98 186 174t306 169q118 57 172.5 91t96.5 79q69 74 69 172q0 109 -80 180q-105 94 -275 94q-192 0 -341 -126q-86 -74 -86 -106q0 -23 27 -56z" />
    <glyph glyph-name="three" unicode="3" horiz-adv-x="1475" 
d="M296 966l-181 206l23 22q33 -25 48 -25q11 0 72 44q128 94 245 135t254 41q233 0 383 -115q64 -49 100.5 -118t36.5 -143q0 -195 -226 -275q111 -28 176 -83q111 -96 111 -250q0 -188 -155 -304q-168 -125 -434 -125q-143 0 -271.5 36t-272.5 116q-24 14 -32 14
q-19 0 -50 -31l-27 17l146 242l27 -16q-11 -26 -11 -39q0 -20 33 -49q82 -72 206 -112.5t262 -40.5q211 0 328 95q43 35 68.5 89t25.5 109q0 114 -88 184q-96 76 -298 76h-128q-42 0 -59.5 -13t-26.5 -51h-32v258h32q9 -38 26.5 -51t59.5 -13h106q103 0 161 12t104 44
q82 56 82 154t-87 163q-111 84 -289 84q-211 0 -371 -130q-72 -59 -72 -90q0 -12 18 -45z" />
    <glyph glyph-name="four" unicode="4" horiz-adv-x="1475" 
d="M1123 417h135q42 0 59.5 13t26.5 51h32v-258h-32q-9 38 -26.5 51t-59.5 13h-135v-169q0 -40 13 -57t51 -27v-34h-278v34q38 10 51 26.5t13 57.5v169h-756q-42 0 -59.5 -13t-26.5 -51h-32v165l768 892q12 14 12 23q0 16 -49 28v34h357v-34q-38 -9 -51 -26t-13 -58v-830z
M973 417v795l-673 -795h673z" />
    <glyph glyph-name="five" unicode="5" horiz-adv-x="1475" 
d="M377 1235v-424q181 127 422 127q246 0 399 -120q165 -129 165 -344t-177 -361q-164 -137 -415 -137q-154 0 -277 42t-263 143q-22 16 -35 16q-16 0 -45 -22l-26 17l166 218l25 -20q-17 -31 -17 -49q0 -27 87 -89q165 -119 385 -119q228 0 350 131q85 91 85 227
q0 142 -100 234q-119 110 -311 110q-181 0 -314 -85q-72 -46 -72 -70q0 -20 20 -44l-19 -25l-270 209l22 23h9q36 0 46 17.5t10 78.5v328q0 42 -13 59.5t-51 26.5v32h997q42 0 59.5 13t26.5 52h32v-258h-32q-9 37 -26.5 50t-59.5 13h-783z" />
    <glyph glyph-name="six" unicode="6" horiz-adv-x="1475" 
d="M1318 1286l-129 -243l-27 17q7 28 7 42q0 33 -64 75q-125 82 -285 82q-203 0 -346 -135q-173 -163 -173 -440q0 -21 2 -63q187 280 514 280q228 0 376 -127q150 -129 150 -326t-150 -331q-158 -141 -408 -141q-293 0 -468 194q-86 95 -131 230q-40 121 -40 252
q0 204 93 382q96 183 268 277q144 78 308 78q94 0 163 -18t200 -77q51 -23 68 -23q18 0 44 31zM788 765q-163 0 -283 -93q-62 -48 -98 -110.5t-36 -123.5q0 -53 29 -113t77 -105q114 -107 300 -107q189 0 313 108q96 83 96 210q0 148 -108 239q-111 94 -290 95z" />
    <glyph glyph-name="seven" unicode="7" horiz-adv-x="1475" 
d="M1131 1228h-920q-42 0 -59.5 -12.5t-26.5 -50.5h-32v265h32q9 -39 26.5 -52t59.5 -13h971q42 0 59.5 13t26.5 52h32v-187l-646 -1151q-12 -21 -12 -32q0 -23 61 -26v-34h-307v34q36 4 55 14.5t33 34.5z" />
    <glyph glyph-name="eight" unicode="8" horiz-adv-x="1475" 
d="M385 730q-93 32 -143 80q-91 86 -91 211q0 119 84 209q147 159 502 159q259 0 417 -91q82 -48 129 -126q40 -68 40 -151q0 -104 -59 -177.5t-175 -113.5q88 -29 144 -74q132 -105 132 -262q0 -106 -66 -204q-145 -214 -562 -214q-316 0 -485 132q-66 51 -104.5 128.5
t-38.5 157.5q0 116 72 204t204 132zM734 1252q-211 0 -331 -70q-102 -59 -102 -162q0 -101 102 -161q120 -70 334 -70t335 70q101 59 101 158q0 112 -115 173t-324 62zM734 666q-229 0 -358 -84q-110 -71 -110 -192t110 -193q129 -84 361 -84t361 84q51 33 80.5 84t29.5 105
q0 125 -110 196q-128 83 -364 84z" />
    <glyph glyph-name="nine" unicode="9" horiz-adv-x="1475" 
d="M117 121l150 228l26 -18q-12 -28 -12 -44q0 -22 36 -49q175 -126 363 -126q196 0 333 125q171 158 171 454q0 22 -1 52q-156 -271 -503 -271q-231 0 -379 131q-149 130 -149 322q0 145 89 259q83 107 231 162q114 43 244 43q203 0 358 -104q146 -97 215 -274
q55 -141 55 -302q0 -195 -78 -366q-88 -193 -267 -290q-143 -77 -319 -77q-112 0 -207.5 29t-222.5 102q-47 27 -55 27q-23 0 -52 -32zM709 1252q-184 0 -305 -113q-96 -91 -96 -220t103 -215q113 -96 289 -96q194 0 321 107q100 85 100 206q0 113 -79 197
q-123 132 -333 134z" />
    <glyph glyph-name="colon" unicode=":" horiz-adv-x="573" 
d="M286 194q46 0 77.5 -32t31.5 -78q0 -44 -32.5 -76t-76.5 -32q-45 0 -77 32.5t-32 76.5q0 45 31.5 76.5t77.5 32.5zM286 1143q46 0 77.5 -32t31.5 -78q0 -44 -32.5 -76t-76.5 -32q-45 0 -77 32.5t-32 76.5q0 45 31.5 76.5t77.5 32.5z" />
    <glyph glyph-name="semicolon" unicode=";" horiz-adv-x="573" 
d="M215 -232l-30 35q66 41 96 80.5t40 98.5q-27 -6 -42 -6q-46 0 -74 29.5t-28 77.5q0 49 29.5 80.5t75.5 31.5q52 0 83 -43t31 -115q0 -89 -42.5 -152t-138.5 -117zM286 1143q46 0 77.5 -32t31.5 -78q0 -44 -32.5 -76t-76.5 -32q-45 0 -77 32.5t-32 76.5q0 45 31.5 76.5
t77.5 32.5z" />
    <glyph glyph-name="less" unicode="&#x3c;" horiz-adv-x="1024" 
d="M955 1167v-154l-721 -330l721 -330v-155l-887 418v134z" />
    <glyph glyph-name="equal" unicode="=" horiz-adv-x="1570" 
d="M238 758v258h34q22 -37 54 -50.5t97 -13.5h722q65 0 98 14t54 50h36v-258h-36q-22 37 -54 50.5t-97 13.5h-723q-65 0 -97 -13.5t-55 -50.5h-33zM238 349v258h34q22 -37 54.5 -50.5t96.5 -13.5h722q65 0 98.5 14t53.5 50h36v-258h-36q-22 37 -54 50.5t-97 13.5h-723
q-65 0 -97.5 -13.5t-54.5 -50.5h-33z" />
    <glyph glyph-name="greater" unicode="&#x3e;" horiz-adv-x="1024" 
d="M69 1167l887 -417v-134l-887 -418v155l721 330l-721 330v154z" />
    <glyph glyph-name="question" unicode="?" horiz-adv-x="1051" 
d="M641 390h-242v27q35 2 46 13.5t13 49.5q4 109 43 188q22 44 42.5 71.5t126.5 154.5q74 89 74 166q0 73 -39 122q-66 84 -183 84q-120 0 -215 -89q-52 -49 -52 -89q0 -15 21 -45l-23 -22l-185 199l23 22l25 -15q13 -8 20 -8q10 0 34 19q178 151 373 151q163 0 267 -101
q91 -89 91 -220q0 -97 -57 -176q-29 -40 -136 -148q-55 -56 -89 -133t-34 -145q0 -25 11 -34.5t45 -14.5v-27zM527 191q46 0 77 -31.5t31 -77.5q0 -43 -32 -74.5t-76 -31.5t-75.5 32t-31.5 76t31 75t76 32z" />
    <glyph glyph-name="at" unicode="@" horiz-adv-x="1696" 
d="M1281 968l-115 -459q-2 -9 -2 -21q0 -44 63 -44q61 0 135 49q48 31 76 105t28 167q0 197 -140 334q-94 91 -220 139q-113 42 -229 42q-175 0 -337 -91q-170 -95 -253 -246q-65 -119 -65 -268q0 -251 169 -419q88 -88 201 -129t265 -41q84 0 178.5 18.5t156.5 46.5
q24 12 24 42q0 5 -1 16l20 6l66 -219l-23 -6q-25 48 -54 48q-12 0 -129 -32q-112 -30 -263 -30q-313 0 -508 168q-122 106 -187 270q-51 131 -51 265q0 209 117 381q125 184 356 270q159 59 331 59q310 0 520 -180q193 -166 193 -427q0 -237 -139 -348q-85 -68 -189 -68
q-78 0 -121.5 23t-86.5 88q-65 -49 -158.5 -78t-191.5 -29q-124 0 -200 60q-84 68 -84 183q0 130 94 234q62 69 155.5 108t196.5 39q141 0 245 -98l20 72h137zM863 893q-111 0 -192 -63q-97 -74 -102 -191q-3 -75 48.5 -121.5t137.5 -46.5q140 0 230 70t90 163
q0 91 -54.5 139.5t-157.5 49.5z" />
    <glyph glyph-name="A" unicode="A" horiz-adv-x="1510" 
d="M1119 383h-731l-120 -259q-17 -37 -17 -52q0 -30 59 -40v-32h-304v32q41 7 62.5 30t56.5 100l500 1079q18 39 18 53q0 26 -49 39v32h332v-32q-49 -16 -49 -42q0 -11 18 -50l479 -1040q53 -115 70 -135t74 -34v-32h-324v32q58 8 58 44q0 16 -22 62zM1060 513l-307 674
l-306 -674h613z" />
    <glyph glyph-name="B" unicode="B" horiz-adv-x="1594" 
d="M1246 709q238 -80 238 -330q0 -121 -64 -213q-63 -91 -170 -128.5t-305 -37.5h-795v32q38 10 51 27t13 59v1129q0 42 -13 59.5t-51 26.5v32h814q120 0 198.5 -19t138.5 -63q138 -99 138 -284q0 -197 -193 -290zM371 776h526q112 0 167.5 7t102.5 26q58 24 90 74t32 116
q0 88 -57 150q-46 49 -119.5 67.5t-225.5 18.5h-516v-459zM371 130h548q118 0 175 7.5t106 29.5q60 28 93.5 84t33.5 130q0 98 -59 167q-49 57 -125 77.5t-234 20.5h-538v-516z" />
    <glyph glyph-name="C" unicode="C" horiz-adv-x="1735" 
d="M1589 1247l-148 -247l-27 16q9 30 9 47q0 41 -128 103q-176 86 -384 86q-280 0 -454 -155q-177 -158 -177 -409q0 -250 184 -415q178 -161 439 -161q255 0 450 149q88 67 88 95q0 14 -17 46l24 19l178 -216l-25 -20q-28 25 -46 25q-11 0 -38 -21q-92 -69 -152.5 -103.5
t-132.5 -58.5q-149 -51 -328 -51q-345 0 -561 192q-227 201 -227 513q0 246 142 426q222 282 665 282q293 0 567 -155q18 -10 25 -10q13 0 47 38z" />
    <glyph glyph-name="D" unicode="D" horiz-adv-x="1686" 
d="M214 104v1157q0 30 -14 46t-50 26v32h720q245 0 375 -68q164 -85 250 -262q75 -155 75 -352q0 -233 -101 -402q-91 -150 -230.5 -215.5t-368.5 -65.5h-720v32q36 10 50 26t14 46zM371 130h493q217 0 322 67q124 80 182 245q38 110 38 241q0 238 -121 394q-67 86 -163 122
t-258 36h-493v-1105z" />
    <glyph glyph-name="E" unicode="E" horiz-adv-x="1474" 
d="M371 637v-507h875q42 0 59.5 13t26.5 51h32v-258h-31q-10 38 -27.5 51t-59.5 13h-1096v32q39 10 51.5 27t12.5 59v1129q0 42 -13 59t-51 27v32h1083q42 0 59 13t27 52h32v-258h-32q-9 37 -26.5 50t-59.5 13h-862v-468h565q42 0 59.5 13t26.5 51h32v-258h-32
q-9 38 -26.5 51t-59.5 13h-565z" />
    <glyph glyph-name="F" unicode="F" horiz-adv-x="1460" 
d="M371 1235v-466h592q42 0 59.5 13t26.5 51h32v-258h-32q-9 38 -26.5 51t-59.5 13h-592v-521q0 -42 12.5 -59t51.5 -27v-32h-285v32q38 10 51 27t13 59v1129q0 42 -13 59.5t-51 26.5v32h1110q42 0 59.5 13t26.5 52h32v-258h-32q-9 38 -26.5 50.5t-59.5 12.5h-889z" />
    <glyph glyph-name="G" unicode="G" horiz-adv-x="1720" 
d="M1590 1234l-153 -244l-26 18q18 30 18 45q0 31 -107 88q-206 112 -422 112q-251 0 -423 -141q-197 -160 -197 -432q0 -265 188 -422q173 -145 442 -145q142 0 270.5 44.5t216.5 124.5v252h-323q-42 0 -59.5 -13t-26.5 -51h-32v258h32q9 -38 26.5 -51t59.5 -13h537v-32
q-38 -10 -51 -27t-13 -59v-177q0 -42 13 -59t51 -27v-28q-113 -101 -213 -157q-217 -122 -495 -122q-342 0 -553 185q-104 91 -165 218q-69 145 -69 306q0 231 135 410q125 165 336 241q149 53 320 53q150 0 278 -36t276 -119q43 -24 53 -24q16 0 49 42z" />
    <glyph glyph-name="H" unicode="H" horiz-adv-x="1677" 
d="M1306 637h-935v-519q0 -42 12.5 -59t51.5 -27v-32h-285v32q39 10 51.5 27t12.5 59v1129q0 42 -13 59.5t-51 26.5v32h285v-32q-38 -10 -51 -27t-13 -59v-480h935v480q0 42 -13 59.5t-51 26.5v32h285v-32q-38 -10 -51 -27t-13 -59v-1129q0 -41 13 -58.5t51 -27.5v-32h-285
v32q38 10 51 27t13 59v519z" />
    <glyph glyph-name="I" unicode="I" horiz-adv-x="586" 
d="M214 118v1129q0 42 -13 59.5t-51 26.5v32h285v-32q-38 -10 -51 -27t-13 -59v-1129q0 -42 12.5 -59t51.5 -27v-32h-285v32q39 10 51.5 27t12.5 59z" />
    <glyph glyph-name="J" unicode="J" horiz-adv-x="1192" 
d="M7 61l118 254l29 -14q-11 -32 -11 -45q0 -29 78 -69q147 -75 306 -75q121 0 203 45.5t105 126.5q13 45 13 223v740q0 42 -13 59.5t-51 26.5v32h285v-32q-38 -10 -51 -27.5t-13 -58.5v-775q0 -131 -8 -185t-36 -106q-56 -104 -184 -158q-110 -47 -250 -47
q-105 0 -179.5 17.5t-217.5 76.5q-33 14 -46 14q-16 0 -48 -37z" />
    <glyph glyph-name="K" unicode="K" horiz-adv-x="1527" 
d="M371 524v-406q0 -41 13 -58.5t51 -27.5v-32h-285v32q38 10 51 27t13 59v1129q0 42 -13 59.5t-51 26.5v32h285v-32q-38 -10 -51 -27t-13 -59v-567l736 576q39 30 39 49q0 22 -38 28v32h361v-32q-60 -4 -118 -49l-554 -431l610 -772q22 -28 41 -37.5t58 -11.5v-32h-333v32
q43 10 43 29q0 12 -44 69l-493 631z" />
    <glyph glyph-name="L" unicode="L" horiz-adv-x="1389" 
d="M371 130h872q42 0 59.5 13t26.5 51h32v-258h-32q-9 38 -26.5 51t-59.5 13h-1093v32q39 10 51.5 27t12.5 59v1129q0 42 -13 59t-51 27v32h285v-32q-38 -10 -51 -27t-13 -59v-1117z" />
    <glyph glyph-name="M" unicode="M" horiz-adv-x="1880" 
d="M930 0l-573 1147v-1029q0 -41 13 -58.5t51 -27.5v-32h-271v32q38 10 51 27t13 59v1129q0 42 -13 59.5t-51 26.5v32h354v-32q-49 -17 -49 -42q0 -12 33 -77l454 -901l456 909q24 48 24 68q0 26 -49 43v32h357v-32q-38 -10 -51 -27t-13 -59v-1129q0 -41 13 -58.5t51 -27.5
v-32h-285v32q39 10 51.5 27t12.5 59v1029z" />
    <glyph glyph-name="N" unicode="N" horiz-adv-x="1722" 
d="M357 1192v-1074q0 -41 13 -58.5t51 -27.5v-32h-271v32q39 10 51.5 27t12.5 59v1129q0 42 -13 59.5t-51 26.5v32h392v-32q-47 -16 -47 -45q0 -20 47 -75l822 -962v996q0 42 -13 59.5t-51 26.5v32h271v-32q-38 -9 -51 -26.5t-13 -59.5v-1129q0 -42 13 -59t51 -27v-32h-315
v32q46 12 46 41q0 22 -42 72z" />
    <glyph glyph-name="O" unicode="O" 
d="M930 1389q361 0 582 -189q124 -105 186 -257q51 -125 51 -269q0 -195 -111 -365q-122 -188 -339 -271q-162 -62 -367 -62q-359 0 -579 189q-123 106 -186 257q-51 124 -51 261q0 203 110 374q120 185 340 270q154 59 364 62zM930 1252q-307 0 -486 -172
q-164 -158 -164 -397q0 -240 164 -398q178 -172 488 -172q311 0 490 172q163 158 163 390q0 251 -163 405q-98 92 -210 129q-124 42 -282 43z" />
    <glyph glyph-name="P" unicode="P" horiz-adv-x="1479" 
d="M371 614v-509q0 -31 14 -47t50 -26v-32h-285v32q36 10 50 26t14 47v1156q0 30 -14 46t-50 26v32h718q151 0 235 -16t150 -58q69 -42 111 -115q47 -82 47 -184q0 -140 -86 -240q-66 -77 -167.5 -107.5t-289.5 -30.5h-497zM371 744h512q114 0 169.5 9t99.5 35
q102 60 102 201q0 142 -102 202q-44 26 -99 35t-170 9h-512v-491z" />
    <glyph glyph-name="Q" unicode="Q" 
d="M1282 32q-165 -56 -352 -56q-356 0 -577 189q-124 106 -186 257q-51 125 -51 261q0 204 111 373q123 188 339 271q162 62 367 62q359 0 579 -189q124 -106 186 -257q51 -124 51 -261q0 -180 -86.5 -333.5t-241.5 -249.5l143 -107q18 -14 34 -14q12 0 46 32l26 -20
l-178 -222l-24 27q23 38 23 52q0 20 -19 34zM1149 137l-53 40q-38 29 -84 48.5t-77 19.5q-45 0 -90 -30l-18 27q95 62 194 62q129 0 276 -111q288 167 288 489q0 240 -163 398q-179 172 -489 172q-311 0 -489 -172q-164 -158 -164 -397q0 -240 164 -398q178 -172 483 -172
q109 0 222 24z" />
    <glyph glyph-name="R" unicode="R" horiz-adv-x="1574" 
d="M371 615v-497q0 -41 13 -58.5t51 -27.5v-32h-285v32q38 10 51 27t13 59v1129q0 42 -13 59.5t-51 26.5v32h749q154 0 243.5 -16.5t155.5 -57.5q68 -42 110 -115q48 -83 48 -187q0 -156 -103.5 -254.5t-284.5 -112.5l347 -540q31 -50 90 -50v-32h-316v32q49 8 49 28
q0 10 -35 65l-310 490h-522zM371 744h553q113 0 170.5 9.5t101.5 34.5q103 60 103 201q0 142 -106 202q-47 26 -104.5 35t-178.5 9h-539v-491z" />
    <glyph glyph-name="S" unicode="S" horiz-adv-x="1532" 
d="M1431 1281l-143 -258l-28 15q17 45 17 56q0 30 -74 65q-201 94 -426 94q-185 0 -322 -69q-66 -34 -104.5 -88t-38.5 -114q0 -50 30 -94.5t79 -66.5q54 -25 127.5 -34.5t239.5 -14.5q230 -7 329 -21.5t163 -50.5q170 -95 170 -289q0 -185 -154 -303q-171 -132 -471 -132
q-173 0 -302 35t-308 129q-50 23 -59 23q-15 0 -47 -36l-27 17l150 251l28 -16q-19 -40 -19 -54q0 -32 128 -99q115 -60 221.5 -86.5t231.5 -26.5q253 0 384 111q87 74 87 176q0 134 -149 185q-48 17 -99.5 21.5t-292.5 13.5q-172 7 -269.5 26t-173.5 62q-71 40 -112.5 112
t-41.5 157q0 145 108 249q80 76 221 119.5t309 43.5q137 0 254.5 -27t265.5 -93q33 -14 41 -14q18 0 49 40z" />
    <glyph glyph-name="T" unicode="T" horiz-adv-x="1358" 
d="M757 1235v-1117q0 -41 13 -58.5t51 -27.5v-32h-285v32q38 10 51 27t13 59v1117h-462q-42 0 -59.5 -12.5t-26.5 -50.5h-32v258h32q9 -39 26.5 -52t59.5 -13h1081q42 0 59.5 13t26.5 52h32v-258h-32q-9 38 -26.5 50.5t-59.5 12.5h-462z" />
    <glyph glyph-name="U" unicode="U" horiz-adv-x="1617" 
d="M344 1247v-755q0 -134 14 -188.5t58 -94.5q107 -96 399 -96q318 0 417 113q33 38 44 90.5t11 175.5v755q0 41 -13 58.5t-51 27.5v32h271v-32q-38 -9 -51 -26.5t-13 -59.5v-786q0 -145 -28 -221q-52 -136 -195.5 -200t-397.5 -64q-380 0 -520 147q-57 59 -79.5 134.5
t-22.5 203.5v786q0 42 -13 59.5t-51 26.5v32h285v-32q-38 -10 -51 -27.5t-13 -58.5z" />
    <glyph glyph-name="V" unicode="V" horiz-adv-x="1467" 
d="M739 178l442 1011q28 62 28 92q0 38 -58 52v32h309v-32q-47 -14 -64.5 -37t-65.5 -133l-440 -992q-25 -59 -25 -85q0 -42 57 -54v-32h-380v32q57 12 57 56q0 24 -26 83l-448 1022q-37 83 -55 105t-63 35v32h326v-32q-59 -14 -59 -52q0 -34 26 -92z" />
    <glyph glyph-name="W" unicode="W" horiz-adv-x="2168" 
d="M1090 1160l-346 -997q-20 -59 -20 -82q0 -33 57 -49v-32h-331v32q57 11 57 49q0 21 -22 82l-365 1005q-38 103 -58.5 129.5t-68.5 35.5v32h320v-32q-60 -7 -60 -51q0 -16 27 -93l340 -964l337 964q29 85 29 98q0 36 -57 46v32h348v-32q-57 -14 -57 -51q0 -15 27 -93
l331 -964l328 964q24 72 24 95q0 38 -56 49v32h301v-32q-49 -10 -71.5 -38.5t-55.5 -126.5l-349 -1005q-20 -58 -20 -77q0 -40 57 -54v-32h-326v32q57 13 57 55q0 13 -20 68z" />
    <glyph glyph-name="X" unicode="X" horiz-adv-x="1407" 
d="M789 730l449 -575q93 -118 163 -123v-32h-350v32q48 8 48 34q0 19 -55 89l-351 451l-349 -451q-56 -72 -56 -87q0 -24 48 -36v-32h-329v32q41 6 79.5 34.5t84.5 88.5l434 564l-340 435q-94 124 -119 147.5t-67 31.5v32h348v-32q-49 -15 -49 -44q0 -28 41 -81l283 -366
l283 366q48 62 48 90q0 27 -48 35v32h325v-32q-41 -8 -83 -46.5t-114 -132.5z" />
    <glyph glyph-name="Y" unicode="Y" horiz-adv-x="1333" 
d="M751 604v-486q0 -41 13 -58.5t51 -27.5v-32h-285v32q38 10 51 27t13 59v486l-441 578q-72 94 -99.5 119t-68.5 32v32h346v-32q-47 -12 -47 -39q0 -33 47 -97l347 -472l346 488q44 62 44 84q0 25 -44 36v32h322v-32q-49 -9 -84 -44q-72 -76 -93 -107z" />
    <glyph glyph-name="Z" unicode="Z" horiz-adv-x="1324" 
d="M1263 1365v-28l-938 -1207h827q42 0 59.5 13t26.5 51h32v-258h-32q-9 38 -26.5 51t-59.5 13h-1097v29l941 1206h-812q-42 0 -59.5 -13t-26.5 -50h-32v258h32q9 -39 26.5 -52t59.5 -13h1079z" />
    <glyph glyph-name="bracketleft" unicode="[" horiz-adv-x="649" 
d="M344 1420v-1475h192q41 0 58.5 13.5t27.5 51.5h27v-238h-27q-9 38 -27 51t-59 13h-399v34q38 9 51 26t13 58v1457q0 41 -13 58t-51 26v34h399q41 0 58.5 13t27.5 51h27v-238h-27q-9 38 -26.5 51.5t-59.5 13.5h-192z" />
    <glyph glyph-name="backslash" unicode="\" horiz-adv-x="1460" 
d="M403 1365v-27q-48 -8 -48 -35q0 -17 54 -90l793 -1061q94 -120 163 -124v-28h-315v28q48 8 48 34q0 15 -55 90l-784 1062q-94 120 -163 124v27h307z" />
    <glyph glyph-name="bracketright" unicode="]" horiz-adv-x="649" 
d="M305 1420h-192q-42 0 -59.5 -13.5t-26.5 -51.5h-27v238h27q10 -38 27.5 -51t58.5 -13h399v-34q-38 -9 -51 -26t-13 -58v-1457q0 -41 13 -58t51 -26v-34h-399q-41 0 -59 -13t-27 -51h-27v238h27q10 -38 27.5 -51.5t58.5 -13.5h192v1475z" />
    <glyph glyph-name="asciicircum" unicode="^" horiz-adv-x="1024" 
d="M211 768h-146l358 601h177l358 -601h-148l-300 494z" />
    <glyph glyph-name="underscore" unicode="_" horiz-adv-x="1024" 
d="M0 -147h1024v-103h-1024v103z" />
    <glyph glyph-name="grave" unicode="`" horiz-adv-x="1024" 
d="M277 1533h232v-27q-27 -3 -27 -22q0 -6 3 -12l77 -163q11 -24 19 -30t30 -6v-27h-173v27h5q20 0 20 15q0 9 -6 18l-129 173q-17 24 -51 27v27z" />
    <glyph glyph-name="a" unicode="a" horiz-adv-x="1267" 
d="M917 315h-587l-85 -188q-16 -35 -16 -52q0 -34 52 -48v-27h-276v27q40 7 62.5 31.5t53.5 93.5l371 806q31 67 31 92q0 35 -50 43v27h325v-27q-50 -11 -50 -43q0 -19 40 -107l356 -775q36 -77 62 -106t66 -35v-27h-292v27q47 10 47 34q0 12 -24 66zM870 424l-245 548
l-247 -548h492z" />
    <glyph glyph-name="b" unicode="b" horiz-adv-x="1325" 
d="M1040 587q197 -80 197 -275q0 -142 -100 -227q-56 -47 -129 -66t-195 -19h-693v27q38 10 51 27.5t13 58.5v894q0 42 -13 59t-51 27v27h672q105 0 170 -13.5t113 -45.5q58 -37 91.5 -102t33.5 -138q0 -154 -160 -234zM327 640h425q101 0 148.5 7.5t85.5 29.5q77 43 77 139
q0 107 -89 158q-39 22 -87.5 29.5t-146.5 7.5h-413v-371zM327 109h446q106 0 156 8.5t90 33.5q81 51 81 159q0 121 -94 178q-40 25 -91.5 34t-154.5 9h-433v-422z" />
    <glyph glyph-name="c" unicode="c" horiz-adv-x="1443" 
d="M1317 1037l-125 -215l-23 15q7 26 7 40q0 21 -40 47q-161 104 -378 104q-212 0 -355 -117q-160 -131 -160 -343q0 -230 177 -367q139 -109 332 -109q218 0 379 127q63 50 63 73q0 17 -17 51l23 15l156 -200l-21 -18q-35 31 -50 31q-8 0 -24 -13q-123 -96 -246.5 -139
t-276.5 -43q-267 0 -440 144q-87 72 -139 171q-66 126 -66 271q0 275 215 443q179 139 450 139q240 0 459 -118q19 -10 29 -10q21 0 47 34z" />
    <glyph glyph-name="d" unicode="d" horiz-adv-x="1401" 
d="M184 113v894q0 41 -12.5 58.5t-51.5 27.5v27h566q227 0 338 -53q138 -67 216 -222q68 -134 68 -285q0 -177 -90 -325q-78 -129 -197.5 -182t-334.5 -53h-566v27q39 10 51.5 27.5t12.5 58.5zM327 109h351q199 0 291 54q102 59 152 186q37 96 37 211q0 205 -105 328
q-58 67 -143.5 95t-231.5 28h-351v-902z" />
    <glyph glyph-name="e" unicode="e" horiz-adv-x="1221" 
d="M327 524v-415h692q42 0 59.5 13t26.5 52h28v-238h-28q-9 38 -26 51t-59 13h-900v27q39 10 51.5 27.5t12.5 58.5v894q0 42 -13 59t-51 27v27h893q42 0 59 13t27 51h27v-238h-27q-10 39 -27 52t-59 13h-686v-378h437q42 0 59 13t27 51h27v-238h-27q-10 39 -27.5 52
t-58.5 13h-437z" />
    <glyph glyph-name="f" unicode="f" horiz-adv-x="1208" 
d="M327 525v-412q0 -41 13 -58.5t51 -27.5v-27h-271v27q38 10 51 27.5t13 58.5v894q0 42 -13 59t-51 27v27h910q41 0 58.5 13t27.5 51h27v-238h-27q-10 39 -27.5 52t-58.5 13h-703v-377h457q42 0 59 13t27 52h27v-238h-27q-10 38 -27 51t-59 13h-457z" />
    <glyph glyph-name="g" unicode="g" horiz-adv-x="1434" 
d="M1323 1015l-137 -220l-23 14q10 35 10 47q0 26 -95 81q-154 87 -327 87q-212 0 -352 -122q-156 -135 -156 -349q0 -203 143 -332q141 -129 372 -129q116 0 221 34.5t178 95.5v206h-252q-42 0 -59.5 -13t-26.5 -51h-27v238h27q9 -39 26.5 -52t59.5 -13h442v-27
q-39 -9 -52 -26.5t-13 -59.5v-116q0 -42 13 -59.5t52 -26.5v-23q-260 -223 -605 -223q-272 0 -446 146q-93 79 -146 190q-57 118 -57 245q0 188 114 339q102 134 271 197q126 47 270 47q124 0 226.5 -30t245.5 -107q23 -12 33 -12q12 0 47 40z" />
    <glyph glyph-name="h" unicode="h" horiz-adv-x="1393" 
d="M1065 522h-738v-409q0 -41 13 -58.5t51 -27.5v-27h-271v27q38 10 51 27.5t13 58.5v894q0 42 -13 59t-51 27v27h271v-27q-38 -10 -51 -27t-13 -59v-376h738v376q0 42 -13 59t-51 27v27h271v-27q-38 -10 -51 -27.5t-13 -58.5v-894q0 -41 13 -58.5t51 -27.5v-27h-271v27
q38 10 51 27.5t13 58.5v409z" />
    <glyph glyph-name="i" unicode="i" horiz-adv-x="512" 
d="M184 113v894q0 42 -13 59t-51 27v27h271v-27q-38 -10 -51 -27t-13 -59v-894q0 -41 13 -58.5t51 -27.5v-27h-271v27q38 10 51 27.5t13 58.5z" />
    <glyph glyph-name="j" unicode="j" horiz-adv-x="1005" 
d="M5 36l112 237l26 -11q-8 -33 -8 -47q0 -16 19 -31q50 -40 135.5 -66t166.5 -26q76 0 133.5 26.5t82.5 73.5q27 49 27 189v626q0 42 -13 59t-51 27v27h271v-27q-38 -10 -51 -27t-13 -59v-654q0 -95 -15.5 -154t-50.5 -102q-47 -56 -128.5 -88.5t-176.5 -32.5
q-81 0 -186 22t-183 56q-16 7 -27 7q-24 0 -45 -36z" />
    <glyph glyph-name="k" unicode="k" horiz-adv-x="1263" 
d="M327 433v-320q0 -41 13 -58.5t51 -27.5v-27h-271v27q38 10 51 27.5t13 58.5v894q0 42 -13 59t-51 27v27h271v-27q-38 -10 -51 -27t-13 -59v-442l536 417q55 43 68 56.5t13 26.5q0 21 -36 28v27h315v-27q-40 -8 -55 -15t-47 -32l-447 -349l495 -629q20 -25 34.5 -32.5
t42.5 -8.5v-27h-298v27q44 11 44 27q0 11 -35 58l-389 503z" />
    <glyph glyph-name="l" unicode="l" horiz-adv-x="1146" 
d="M327 109h683q42 0 59.5 13t27.5 52h27v-238h-27q-10 38 -27.5 51t-59.5 13h-890v27q38 10 51 27.5t13 58.5v894q0 42 -13 59t-51 27v27h271v-27q-38 -10 -51 -27t-13 -59v-898z" />
    <glyph glyph-name="m" unicode="m" horiz-adv-x="1583" 
d="M779 0l-476 944v-831q0 -41 13 -58.5t51 -27.5v-27h-247v27q38 10 51 27.5t13 58.5v894q0 42 -13 59t-51 27v27h340v-27q-50 -15 -50 -44q0 -12 25 -63l354 -716l356 716q24 48 24 63q0 29 -50 44v27h343v-27q-38 -10 -51 -27.5t-13 -58.5v-894q0 -41 13 -58.5t51 -27.5
v-27h-271v27q38 10 51 27.5t13 58.5v831z" />
    <glyph glyph-name="n" unicode="n" horiz-adv-x="1434" 
d="M303 945v-832q0 -41 12.5 -58.5t51.5 -27.5v-27h-247v27q39 10 51.5 27.5t12.5 58.5v894q0 42 -13 59t-51 27v27h364v-27q-52 -17 -52 -52q0 -30 38 -72l661 -740v778q0 42 -13 59t-51 27v27h247v-27q-38 -10 -51 -27t-13 -59v-894q0 -41 12.5 -58.5t51.5 -27.5v-27h-293
v27q52 13 52 41q0 21 -48 75z" />
    <glyph glyph-name="o" unicode="o" horiz-adv-x="1536" 
d="M766 1144q299 0 482 -156q195 -165 195 -436q0 -169 -96 -310q-181 -266 -579 -266q-297 0 -480 156q-195 166 -195 428q0 177 95 318q101 149 283 217q125 47 295 49zM766 1028q-244 0 -393 -150q-130 -130 -130 -318t130 -318q149 -150 395 -150t395 150
q130 130 130 312q0 197 -130 324q-150 148 -397 150z" />
    <glyph glyph-name="p" unicode="p" horiz-adv-x="1229" 
d="M327 503v-399q0 -30 13.5 -46t47.5 -26v-32h-268v32q36 10 50 26t14 46v919q0 29 -14.5 43.5t-49.5 23.5v30h620q124 0 187.5 -11t114.5 -42q61 -36 96 -104.5t35 -151.5t-34.5 -150t-97.5 -104q-52 -32 -115 -43t-186 -11h-413zM327 612h394q107 0 158 8.5t87 32.5
q70 46 70 159q0 111 -70 158q-36 24 -86.5 32.5t-158.5 8.5h-394v-399z" />
    <glyph glyph-name="q" unicode="q" horiz-adv-x="1536" 
d="M1065 25q-140 -49 -300 -49q-294 0 -477 156q-195 166 -195 428t195 428q183 156 480 156t480 -156q195 -166 195 -428q0 -305 -262 -477l104 -79q23 -17 43 -17q13 0 40 32l22 -15l-150 -197l-21 17q14 34 14 46q0 22 -31 47zM949 117q-71 51 -107 68t-71 17
q-33 0 -70 -26l-17 22q80 54 161 54q56 0 103.5 -18t120.5 -66q224 144 224 392q0 188 -130 318q-149 150 -395 150t-395 -150q-130 -130 -130 -318t130 -318q149 -150 394 -150q84 0 182 25z" />
    <glyph glyph-name="r" unicode="r" horiz-adv-x="1308" 
d="M327 507v-394q0 -41 13 -58.5t51 -27.5v-27h-271v27q39 10 51.5 27.5t12.5 58.5v894q0 42 -13 59t-51 27v27h665q113 0 184.5 -16t124.5 -54q116 -82 116 -240q0 -129 -81 -203.5t-238 -89.5l281 -446q15 -24 29.5 -32.5t51.5 -13.5v-25h-277v27q39 8 39 25q0 12 -23 48
l-258 407h-407zM327 616h426q103 0 154.5 7.5t87.5 27.5q79 44 79 153q0 105 -74 158q-68 49 -231 49h-442v-395z" />
    <glyph glyph-name="s" unicode="s" horiz-adv-x="1268" 
d="M1185 1062l-110 -218l-24 12q5 29 5 40q0 24 -65 58q-138 74 -336 74q-159 0 -270 -59q-111 -60 -111 -167q0 -48 28 -86.5t75 -54.5t102 -21t236 -12q151 -5 228.5 -19t132.5 -45q59 -33 93 -95.5t34 -136.5q0 -155 -127 -247q-152 -109 -404 -109q-124 0 -260.5 38
t-253.5 104q-16 10 -24 10q-15 0 -45 -35l-23 15l127 213l24 -14l-4 -16q-5 -16 -5 -26q0 -28 102 -82q172 -91 357 -91q169 0 281 58q54 28 86 75.5t32 99.5q0 48 -27 86t-71 54q-41 14 -91.5 20t-190.5 11q-165 7 -236 16.5t-134 32.5q-80 29 -129 94q-49 67 -49 158
q0 161 146 253q149 94 379 94q210 0 422 -94q32 -13 37 -13q16 0 38 37z" />
    <glyph glyph-name="t" unicode="t" horiz-adv-x="1132" 
d="M637 1005v-892q0 -41 12.5 -58.5t51.5 -27.5v-27h-271v27q38 10 51 27.5t13 58.5v892h-365q-42 0 -59 -13t-27 -52h-27v238h27q10 -38 27 -51t59 -13h873q42 0 59 13t27 51h27v-238h-27q-10 39 -27.5 52t-58.5 13h-365z" />
    <glyph glyph-name="u" unicode="u" horiz-adv-x="1342" 
d="M305 1007v-575q0 -133 13 -183.5t57 -84.5q90 -72 308 -72q241 0 326 88q31 33 41 81.5t10 170.5v575q0 41 -13 58.5t-51 27.5v27h247v-27q-38 -10 -51 -27t-13 -59v-604q0 -154 -26 -217q-44 -108 -161 -159t-322 -51q-294 0 -412 109q-57 52 -76.5 117t-19.5 201v604
q0 42 -13 59t-51 27v27h271v-27q-38 -10 -51 -27.5t-13 -58.5z" />
    <glyph glyph-name="v" unicode="v" horiz-adv-x="1231" 
d="M632 159l359 821q15 33 15 57q0 47 -59 56v27h278v-27q-43 -12 -62.5 -36t-58.5 -113l-342 -779q-24 -55 -24 -83q0 -44 56 -55v-27h-346v27q56 12 56 56q0 27 -25 82l-352 779q-41 91 -60 114t-62 35v27h310v-27q-59 -10 -59 -54q0 -25 15 -59z" />
    <glyph glyph-name="w" unicode="w" horiz-adv-x="1823" 
d="M912 919l-273 -763q-20 -56 -20 -71q0 -43 58 -58v-27h-312v27q55 9 55 52q0 27 -18 77l-307 828q-20 56 -38.5 76t-61.5 33v27h293v-27q-57 -14 -57 -54q0 -13 15 -55l286 -791l280 791q14 39 14 54q0 40 -54 55v27h302v-27q-58 -15 -58 -53q0 -20 13 -56l286 -801
l278 801q10 28 10 49q0 46 -63 60v27h289v-27q-43 -10 -66.5 -33.5t-42.5 -75.5l-300 -844q-14 -38 -14 -58q0 -50 56 -55v-27h-309v27q53 9 53 53q0 23 -19 76z" />
    <glyph glyph-name="x" unicode="x" horiz-adv-x="1157" 
d="M657 602l349 -455q54 -71 81 -93t64 -27v-27h-313v27q49 5 49 32q0 16 -34 62l-283 372l-289 -373q-28 -36 -28 -59q0 -25 45 -34v-27h-293v27q41 10 70.5 33.5t79.5 86.5l348 439l-298 384q-55 73 -78.5 93t-63.5 30v27h320v-27q-46 -12 -46 -44q0 -25 23 -56l225 -297
l238 303q24 32 24 51q0 35 -47 43v27h286v-27q-43 -15 -67 -35.5t-76 -88.5z" />
    <glyph glyph-name="y" unicode="y" horiz-adv-x="1114" 
d="M640 494v-381q0 -41 12.5 -58.5t51.5 -27.5v-27h-271v27q38 10 51 27.5t13 58.5v381l-345 450q-63 83 -93 110t-71 39v27h316v-27q-44 -7 -44 -38q0 -28 27 -63l295 -387l267 386q28 41 28 62q0 34 -45 40v27h292v-27q-45 -15 -83 -51.5t-104 -128.5z" />
    <glyph glyph-name="z" unicode="z" horiz-adv-x="1091" 
d="M1045 1120v-17l-760 -994h649q42 0 59.5 13t27.5 52h27v-238h-27q-10 38 -27.5 51t-59.5 13h-890v22l767 989h-643q-42 0 -59 -13t-27 -52h-27v238h27q10 -38 27 -51t59 -13h877z" />
    <glyph glyph-name="braceleft" unicode="{" horiz-adv-x="649" 
d="M0 554v258h24q8 -37 19 -50.5t34 -13.5h62q39 0 49.5 30t12.5 142v454q0 58 56.5 106.5t124.5 48.5h153q43 0 60 13t27 51h27v-238h-27q-10 39 -27 52t-60 13h-82q-57 -1 -89 -52q-13 -21 -16.5 -59.5t-3.5 -175.5v-307q0 -45 -17 -74.5t-65 -68.5q48 -38 65 -68t17 -75
v-451q-3 -133 109 -144h82q42 0 59.5 13t27.5 52h27v-238h-27q-10 38 -27.5 51t-59.5 13h-153q-61 0 -117 42q-64 49 -64 113v455q-2 112 -12.5 142t-49.5 30h-62q-23 0 -34 -13.5t-19 -50.5h-24z" />
    <glyph glyph-name="bar" unicode="|" horiz-adv-x="1024" 
d="M434 1365h155v-1706h-155v1706z" />
    <glyph glyph-name="braceright" unicode="}" horiz-adv-x="649" 
d="M649 554h-24q-8 37 -19.5 50.5t-34.5 13.5h-62q-39 0 -49.5 -30t-12.5 -142v-455q0 -58 -56.5 -106.5t-123.5 -48.5h-154q-42 0 -59 -13t-27 -51h-27v238h27q10 -39 27 -52t59 -13h82q112 11 109 144v451q0 46 17 75.5t65 67.5q-49 39 -65.5 68t-16.5 75v307
q0 145 -4 183t-22 61q-32 43 -83 43h-82q-42 0 -59.5 -13t-26.5 -52h-27v238h27q10 -38 27 -51t59 -13h154q60 0 116 -42q64 -50 64 -113v-454q2 -112 12.5 -142t49.5 -30h62q23 0 34.5 13.5t19.5 50.5h24v-258z" />
    <glyph glyph-name="asciitilde" unicode="~" horiz-adv-x="1365" 
d="M277 534l-84 65q58 118 124 173t151 55q79 0 235 -79q87 -44 124 -57t76 -13q100 0 187 154l83 -66q-42 -86 -83 -134q-82 -95 -192 -95q-41 0 -88.5 16.5t-147.5 65.5q-137 68 -200 68q-53 0 -95 -34.5t-90 -118.5z" />
    <glyph glyph-name="dieresis" unicode="&#xa8;" horiz-adv-x="1024" 
 />
    <glyph glyph-name="copyright" unicode="&#xa9;" 
d="M930 1389q361 0 582 -189q124 -105 186 -257q51 -125 51 -269q0 -195 -111 -365q-122 -188 -339 -271q-162 -62 -367 -62q-359 0 -579 189q-123 106 -186 257q-51 124 -51 261q0 203 110 374q120 185 340 270q154 59 364 62zM930 1310q-338 0 -535 -190
q-180 -173 -180 -437q0 -263 180 -437q197 -190 537 -190q342 0 538 190q180 174 180 428q0 277 -180 446q-107 101 -231 143q-136 46 -309 47zM1386 1019l-99 -158l-28 15q7 22 7 32q0 19 -75 55q-108 50 -235 50q-172 0 -278 -90q-107 -91 -107 -236t112 -241
q109 -93 268 -93q156 0 275 87q52 37 52 50q0 8 -13 29l25 19l119 -138l-25 -19q-20 17 -28 17q-6 0 -20 -11q-166 -128 -384 -128q-217 0 -353 115q-143 121 -143 308q0 147 90 256q138 169 417 169q188 0 355 -92q9 -5 12 -5q5 0 28 23z" />
    <glyph glyph-name="registered" unicode="&#xae;" 
d="M930 1389q361 0 582 -189q124 -105 186 -257q51 -125 51 -269q0 -195 -111 -365q-122 -188 -339 -271q-162 -62 -367 -62q-359 0 -579 189q-123 106 -186 257q-51 124 -51 261q0 203 110 374q120 185 340 270q154 59 364 62zM930 1310q-338 0 -535 -190
q-180 -173 -180 -437q0 -263 180 -437q197 -190 537 -190q342 0 538 190q180 174 180 428q0 277 -180 446q-107 101 -231 143q-136 46 -309 47zM670 635v-286q0 -23 7.5 -31.5t32.5 -13.5v-31h-191v31q26 6 33 14t7 31v667q0 24 -7.5 32.5t-32.5 12.5v32l471 -1
q98 0 153.5 -10t97.5 -35q101 -59 101 -184q0 -92 -64 -153t-170 -70l208 -308q19 -28 57 -27v-32h-210v32q31 4 31 11q0 2 -21 34l-190 285h-313zM670 725h336q119 0 165 26q60 33 60 112q0 80 -62 113q-48 26 -172 26h-327v-277z" />
    <glyph glyph-name="acute" unicode="&#xb4;" horiz-adv-x="1024" 
d="M747 1533v-27q-34 -3 -51 -27l-129 -173q-6 -9 -6 -18q0 -15 21 -15h4v-27h-173v27q22 0 30 6t20 30l76 163q3 6 3 12q0 19 -27 22v27h232z" />
    <glyph glyph-name="paragraph" unicode="&#xb6;" horiz-adv-x="1307" 
d="M641 635h-181q-61 0 -136 22t-120 53q-163 113 -163 300q0 114 69 200q48 60 105.5 92.5t138.5 45.5q101 17 123 17h734v-32q-39 -10 -51.5 -27t-12.5 -59v-1293q0 -42 12.5 -59t51.5 -27v-32h-221v1406h-192v-1406h-221v32q39 10 51.5 27t12.5 59v681z" />
    <glyph glyph-name="onequarter" unicode="&#xbc;" horiz-adv-x="2365" 
d="M402 546v32q25 6 32 14t7 30v579q-50 -26 -82 -30q-15 -2 -17.5 -5t-7.5 -26h-32v165h32q4 -27 6 -31.5t9 -4.5q25 0 59 18.5t34 31.5q0 8 -33 14v32h177v-32q-25 -5 -32.5 -13t-7.5 -31v-667q0 -22 7 -30t33 -14v-32h-184zM1324 1365h317v-27q-68 -5 -130 -124
l-500 -1062q-32 -69 -32 -83q0 -35 65 -41v-28h-321v28q68 5 129 124l509 1061q32 67 32 83q0 37 -69 42v27zM2143 259h75q24 0 32.5 7t14.5 31h32v-166h-32q-5 24 -14 31t-33 7h-75v-93q0 -22 7 -30t32 -14v-32h-183v32q25 6 32 14t7 30v93h-455q-24 0 -33 -7t-14 -31h-32
v107l471 529q5 6 5 9t-30 11v32h232v-32q-24 -5 -31.5 -13.5t-7.5 -31.5v-483zM2038 259v445l-389 -445h389z" />
    <glyph glyph-name="onehalf" unicode="&#xbd;" horiz-adv-x="2365" 
d="M402 546v32q24 6 31.5 14t7.5 31v578q-50 -26 -82 -30q-15 -2 -17.5 -5t-7.5 -26h-32v165h32q4 -27 6 -31.5t9 -4.5q25 0 59 18.5t34 32.5q0 7 -33 13v32h177v-32q-25 -5 -32.5 -13t-7.5 -31v-666q0 -23 7.5 -31t32.5 -14v-32h-184zM1324 1365h317v-27q-68 -5 -130 -124
l-500 -1062q-32 -69 -32 -83q0 -35 65 -41v-28h-321v28q68 5 129 124l509 1061q32 67 32 83q0 37 -69 42v27zM1661 553l-135 127l23 22q26 -17 37 -17q4 0 13 9q62 66 149 102.5t183 36.5q132 0 218 -66q89 -69 89 -176q0 -90 -58 -150.5t-216 -135.5
q-139 -66 -195.5 -109.5t-82.5 -105.5h507q24 0 33 7t14 31h32v-166h-32q-5 24 -14 31t-33 7h-572q-24 0 -32.5 -7t-14.5 -31h-32q-4 257 384 427q117 53 160 94.5t43 100.5q0 68 -59 111.5t-151 43.5q-115 0 -204 -73q-50 -41 -50 -57q0 -13 19 -33z" />
    <glyph glyph-name="threequarters" unicode="&#xbe;" horiz-adv-x="2365" 
d="M194 1113l-119 132l22 21q23 -17 30 -17q5 0 40 25q151 105 309 105q144 0 237 -69q87 -64 87 -159q0 -56 -29 -94.5t-93 -67.5q75 -21 117 -73t42 -125q0 -114 -98 -184q-104 -75 -268 -75q-168 0 -335 91q-13 7 -17 7q-9 0 -29 -20l-27 16l96 154l28 -15q-9 -20 -9 -26
q0 -9 18 -24q103 -89 281 -89q126 0 195 55q55 43 55 111q0 71 -59 109t-169 38h-78q-25 0 -33.5 -7t-13.5 -31h-32v166h32q5 -24 14 -31t33 -7h64q110 0 159 32q47 32 47 85q0 61 -63 100t-159 39q-127 0 -222 -75q-42 -33 -42 -48q0 -5 12 -27zM1324 1365h317v-27
q-68 -5 -130 -124l-500 -1062q-32 -69 -32 -83q0 -35 65 -41v-28h-321v28q68 5 129 124l509 1061q32 67 32 83q0 37 -69 42v27zM2142 259h75q24 0 32.5 7t14.5 31h32v-166h-32q-5 24 -14 31t-33 7h-75v-93q0 -22 7 -30t32 -14v-32h-183v32q25 6 32 14t7 30v93h-454
q-24 0 -33 -7t-14 -31h-32v107l470 529q5 6 5 9t-30 11v32h232v-32q-24 -5 -31.5 -13.5t-7.5 -31.5v-483zM2037 259v445l-389 -445h389z" />
    <glyph glyph-name="Agrave" unicode="&#xc0;" horiz-adv-x="1510" 
d="M1119 383h-731l-120 -259q-17 -37 -17 -52q0 -30 59 -40v-32h-304v32q41 7 62.5 30t56.5 100l500 1079q18 39 18 53q0 26 -49 39v32h332v-32q-49 -16 -49 -42q0 -11 18 -50l479 -1040q53 -115 70 -135t74 -34v-32h-324v32q58 8 58 44q0 16 -22 62zM1060 513l-307 674
l-306 -674h613zM520 1765h232v-27q-27 -3 -27 -22q0 -6 3 -12l77 -163q11 -24 19 -30t30 -6v-27h-173v27h5q20 0 20 15q0 9 -6 18l-129 172q-17 25 -51 28v27z" />
    <glyph glyph-name="Aacute" unicode="&#xc1;" horiz-adv-x="1510" 
d="M1119 383h-731l-120 -259q-17 -37 -17 -52q0 -30 59 -40v-32h-304v32q41 7 62.5 30t56.5 100l500 1079q18 39 18 53q0 26 -49 39v32h332v-32q-49 -16 -49 -42q0 -11 18 -50l479 -1040q53 -115 70 -135t74 -34v-32h-324v32q58 8 58 44q0 16 -22 62zM1060 513l-307 674
l-306 -674h613zM990 1765v-27q-34 -3 -51 -28l-129 -172q-6 -9 -6 -18q0 -15 21 -15h4v-27h-173v27q22 0 30 6t20 30l76 163q3 6 3 12q0 19 -27 22v27h232z" />
    <glyph glyph-name="Acircumflex" unicode="&#xc2;" horiz-adv-x="1510" 
d="M1119 383h-731l-120 -259q-17 -37 -17 -52q0 -30 59 -40v-32h-304v32q41 7 62.5 30t56.5 100l500 1079q18 39 18 53q0 26 -49 39v32h332v-32q-49 -16 -49 -42q0 -11 18 -50l479 -1040q53 -115 70 -135t74 -34v-32h-324v32q58 8 58 44q0 16 -22 62zM1060 513l-307 674
l-306 -674h613zM642 1478h-210v27q26 1 37 7.5t36 34.5l146 149q12 12 12 25q0 17 -35 17v27h262v-27q-33 -4 -33 -18q0 -11 18 -28l169 -167q18 -19 48 -20v-27h-235v27q33 3 33 15q0 6 -17 23l-124 131l-128 -134q-10 -10 -10 -18q0 -15 31 -17v-27z" />
    <glyph glyph-name="Atilde" unicode="&#xc3;" horiz-adv-x="1510" 
d="M1119 383h-731l-120 -259q-17 -37 -17 -52q0 -30 59 -40v-32h-304v32q41 7 62.5 30t56.5 100l500 1079q18 39 18 53q0 26 -49 39v32h332v-32q-49 -16 -49 -42q0 -11 18 -50l479 -1040q53 -115 70 -135t74 -34v-32h-324v32q58 8 58 44q0 16 -22 62zM1060 513l-307 674
l-306 -674h613zM958 1733l130 -84l-14 -23q-14 6 -22 6q-12 0 -25 -18q-64 -95 -138 -95q-36 0 -78 15l-144 53q-18 7 -40 7q-20 0 -38 -16t-19 -35q-1 -10 13 -28l-15 -18l-132 90l13 18q14 -4 21 -4q18 0 35 23q58 84 148 84q28 0 58 -11l145 -55q24 -9 47 -9
q20 0 37.5 16t17.5 35q0 14 -16 30z" />
    <glyph glyph-name="Egrave" unicode="&#xc8;" horiz-adv-x="1474" 
d="M371 637v-507h875q42 0 59.5 13t26.5 51h32v-258h-31q-10 38 -27.5 51t-59.5 13h-1096v32q39 10 51.5 27t12.5 59v1129q0 42 -13 59t-51 27v32h1083q42 0 59 13t27 52h32v-258h-32q-9 37 -26.5 50t-59.5 13h-862v-468h565q42 0 59.5 13t26.5 51h32v-258h-32
q-9 38 -26.5 51t-59.5 13h-565zM542 1765h232v-27q-27 -3 -27 -22q0 -6 3 -12l77 -163q11 -24 19 -30t30 -6v-27h-173v27h5q20 0 20 15q0 9 -6 18l-129 172q-17 25 -51 28v27z" />
    <glyph glyph-name="Eacute" unicode="&#xc9;" horiz-adv-x="1474" 
d="M371 637v-507h875q42 0 59.5 13t26.5 51h32v-258h-31q-10 38 -27.5 51t-59.5 13h-1096v32q39 10 51.5 27t12.5 59v1129q0 42 -13 59t-51 27v32h1083q42 0 59 13t27 52h32v-258h-32q-9 37 -26.5 50t-59.5 13h-862v-468h565q42 0 59.5 13t26.5 51h32v-258h-32
q-9 38 -26.5 51t-59.5 13h-565zM999 1765v-27q-34 -3 -51 -28l-129 -172q-6 -9 -6 -18q0 -15 21 -15h4v-27h-173v27q22 0 30 6t20 30l76 163q3 6 3 12q0 19 -27 22v27h232z" />
    <glyph glyph-name="Ecircumflex" unicode="&#xca;" horiz-adv-x="1474" 
d="M371 637v-507h875q42 0 59.5 13t26.5 51h32v-258h-31q-10 38 -27.5 51t-59.5 13h-1096v32q39 10 51.5 27t12.5 59v1129q0 42 -13 59t-51 27v32h1083q42 0 59 13t27 52h32v-258h-32q-9 37 -26.5 50t-59.5 13h-862v-468h565q42 0 59.5 13t26.5 51h32v-258h-32
q-9 38 -26.5 51t-59.5 13h-565zM651 1478h-210v27q26 1 37 7.5t36 34.5l146 149q12 12 12 25q0 17 -35 17v27h262v-27q-33 -4 -33 -18q0 -11 18 -28l169 -167q18 -19 48 -20v-27h-235v27q33 3 33 15q0 6 -17 23l-124 131l-128 -134q-10 -10 -10 -18q0 -15 31 -17v-27z" />
    <glyph glyph-name="Igrave" unicode="&#xcc;" horiz-adv-x="586" 
d="M215 118v1129q0 42 -13 59.5t-51 26.5v32h285v-32q-38 -10 -51 -27t-13 -59v-1129q0 -42 12.5 -59t51.5 -27v-32h-285v32q39 10 51.5 27t12.5 59zM51 1765h232v-27q-27 -3 -27 -22q0 -6 3 -12l77 -163q11 -24 19 -30t30 -6v-27h-173v27h5q20 0 20 15q0 9 -6 18l-129 172
q-17 25 -51 28v27z" />
    <glyph glyph-name="Iacute" unicode="&#xcd;" horiz-adv-x="586" 
d="M214 118v1129q0 42 -13 59.5t-51 26.5v32h285v-32q-38 -10 -51 -27t-13 -59v-1129q0 -42 12.5 -59t51.5 -27v-32h-285v32q39 10 51.5 27t12.5 59zM535 1765v-27q-34 -3 -51 -28l-129 -172q-6 -9 -6 -18q0 -15 21 -15h4v-27h-173v27q22 0 30 6t20 30l76 163q3 6 3 12
q0 19 -27 22v27h232z" />
    <glyph glyph-name="Eth" unicode="&#xd0;" horiz-adv-x="1686" 
d="M37 577v251h37q12 -37 30 -51t54 -14h57v498q0 30 -14 46t-50 26v32h720q245 0 375 -68q164 -85 250 -261q75 -156 75 -354q0 -232 -101 -401q-91 -150 -230.5 -215.5t-368.5 -65.5h-720v32q36 10 50 26t14 46v536h-57q-36 0 -54 -13.5t-30 -49.5h-37zM372 763h357
q36 0 54 14t30 51h37v-251h-37q-12 36 -30 49.5t-54 13.5h-357v-510h493q218 0 322 67q124 80 182 246q38 109 38 239q0 240 -121 395q-67 86 -163 122t-258 36h-493v-472z" />
    <glyph glyph-name="Ograve" unicode="&#xd2;" 
d="M930 1389q361 0 582 -189q124 -105 186 -257q51 -125 51 -269q0 -195 -111 -365q-122 -188 -339 -271q-162 -62 -367 -62q-359 0 -579 189q-123 106 -186 257q-51 124 -51 261q0 203 110 374q120 185 340 270q154 59 364 62zM930 1252q-307 0 -486 -172
q-164 -158 -164 -397q0 -240 164 -398q178 -172 488 -172q311 0 490 172q163 158 163 390q0 251 -163 405q-98 92 -210 129q-124 42 -282 43zM704 1765h232v-27q-27 -3 -27 -22q0 -6 3 -12l77 -163q11 -24 19 -30t30 -6v-27h-173v27h5q20 0 20 15q0 9 -6 18l-129 172
q-17 25 -51 28v27z" />
    <glyph glyph-name="Oacute" unicode="&#xd3;" 
d="M930 1389q361 0 582 -189q124 -105 186 -257q51 -125 51 -269q0 -195 -111 -365q-122 -188 -339 -271q-162 -62 -367 -62q-359 0 -579 189q-123 106 -186 257q-51 124 -51 261q0 203 110 374q120 185 340 270q154 59 364 62zM930 1252q-307 0 -486 -172
q-164 -158 -164 -397q0 -240 164 -398q178 -172 488 -172q311 0 490 172q163 158 163 390q0 251 -163 405q-98 92 -210 129q-124 42 -282 43zM1168 1765v-27q-34 -3 -51 -28l-129 -172q-6 -9 -6 -18q0 -15 21 -15h4v-27h-173v27q22 0 30 6t20 30l76 163q3 6 3 12
q0 19 -27 22v27h232z" />
    <glyph glyph-name="Ocircumflex" unicode="&#xd4;" 
d="M930 1389q361 0 582 -189q124 -105 186 -257q51 -125 51 -269q0 -195 -111 -365q-122 -188 -339 -271q-162 -62 -367 -62q-359 0 -579 189q-123 106 -186 257q-51 124 -51 261q0 203 110 374q120 185 340 270q154 59 364 62zM930 1252q-307 0 -486 -172
q-164 -158 -164 -397q0 -240 164 -398q178 -172 488 -172q311 0 490 172q163 158 163 390q0 251 -163 405q-98 92 -210 129q-124 42 -282 43zM819 1478h-210v27q26 1 37 7.5t36 34.5l146 149q12 12 12 25q0 17 -35 17v27h262v-27q-33 -4 -33 -18q0 -11 18 -28l169 -167
q18 -19 48 -20v-27h-235v27q33 3 33 15q0 6 -17 23l-124 131l-128 -134q-10 -10 -10 -18q0 -15 31 -17v-27z" />
    <glyph glyph-name="Otilde" unicode="&#xd5;" 
d="M930 1389q361 0 582 -189q124 -105 186 -257q51 -125 51 -269q0 -195 -111 -365q-122 -188 -339 -271q-162 -62 -367 -62q-359 0 -579 189q-123 106 -186 257q-51 124 -51 261q0 203 110 374q120 185 340 270q154 59 364 62zM930 1252q-307 0 -486 -172
q-164 -158 -164 -397q0 -240 164 -398q178 -172 488 -172q311 0 490 172q163 158 163 390q0 251 -163 405q-98 92 -210 129q-124 42 -282 43zM1142 1733l130 -84l-14 -23q-14 6 -22 6q-12 0 -25 -18q-64 -95 -138 -95q-36 0 -78 15l-144 53q-18 7 -40 7q-20 0 -38 -16
t-19 -35q-1 -10 13 -28l-15 -18l-132 90l13 18q14 -4 21 -4q18 0 35 23q58 84 148 84q28 0 58 -11l145 -55q24 -9 47 -9q20 0 37.5 16t17.5 35q0 14 -16 30z" />
    <glyph glyph-name="Ugrave" unicode="&#xd9;" horiz-adv-x="1617" 
d="M344 1247v-755q0 -134 14 -188.5t58 -94.5q107 -96 399 -96q318 0 417 113q33 38 44 90.5t11 175.5v755q0 41 -13 58.5t-51 27.5v32h271v-32q-38 -9 -51 -26.5t-13 -59.5v-786q0 -145 -28 -221q-52 -136 -195.5 -200t-397.5 -64q-380 0 -520 147q-57 59 -79.5 134.5
t-22.5 203.5v786q0 42 -13 59.5t-51 26.5v32h285v-32q-38 -10 -51 -27.5t-13 -58.5zM587 1765h232v-27q-27 -3 -27 -22q0 -6 3 -12l77 -163q11 -24 19 -30t30 -6v-27h-173v27h5q20 0 20 15q0 9 -6 18l-129 172q-17 25 -51 28v27z" />
    <glyph glyph-name="Uacute" unicode="&#xda;" horiz-adv-x="1617" 
d="M344 1247v-755q0 -134 14 -188.5t58 -94.5q107 -96 399 -96q318 0 417 113q33 38 44 90.5t11 175.5v755q0 41 -13 58.5t-51 27.5v32h271v-32q-38 -9 -51 -26.5t-13 -59.5v-786q0 -145 -28 -221q-52 -136 -195.5 -200t-397.5 -64q-380 0 -520 147q-57 59 -79.5 134.5
t-22.5 203.5v786q0 42 -13 59.5t-51 26.5v32h285v-32q-38 -10 -51 -27.5t-13 -58.5zM1030 1765v-27q-34 -3 -51 -28l-129 -172q-6 -9 -6 -18q0 -15 21 -15h4v-27h-173v27q22 0 30 6t20 30l76 163q3 6 3 12q0 19 -27 22v27h232z" />
    <glyph glyph-name="Yacute" unicode="&#xdd;" horiz-adv-x="1333" 
d="M751 604v-486q0 -41 13 -58.5t51 -27.5v-32h-285v32q38 10 51 27t13 59v486l-441 578q-72 94 -99.5 119t-68.5 32v32h346v-32q-47 -12 -47 -39q0 -33 47 -97l347 -472l346 488q44 62 44 84q0 25 -44 36v32h322v-32q-49 -9 -84 -44q-72 -76 -93 -107zM949 1765v-27
q-34 -3 -51 -28l-129 -172q-6 -9 -6 -18q0 -15 21 -15h4v-27h-173v27q22 0 30 6t20 30l76 163q3 6 3 12q0 19 -27 22v27h232z" />
    <glyph glyph-name="agrave" unicode="&#xe0;" horiz-adv-x="1267" 
d="M917 315h-587l-85 -188q-16 -35 -16 -52q0 -34 52 -48v-27h-276v27q40 7 62.5 31.5t53.5 93.5l371 806q31 67 31 92q0 35 -50 43v27h325v-27q-50 -11 -50 -43q0 -19 40 -107l356 -775q36 -77 62 -106t66 -35v-27h-292v27q47 10 47 34q0 12 -24 66zM870 424l-245 548
l-247 -548h492zM391 1533h232v-27q-27 -3 -27 -22q0 -6 3 -12l77 -163q11 -24 19 -30t30 -6v-27h-173v27h5q20 0 20 15q0 9 -6 18l-129 173q-17 24 -51 27v27z" />
    <glyph glyph-name="aacute" unicode="&#xe1;" horiz-adv-x="1267" 
d="M917 315h-587l-85 -188q-16 -35 -16 -52q0 -34 52 -48v-27h-276v27q40 7 62.5 31.5t53.5 93.5l371 806q31 67 31 92q0 35 -50 43v27h325v-27q-50 -11 -50 -43q0 -19 40 -107l356 -775q36 -77 62 -106t66 -35v-27h-292v27q47 10 47 34q0 12 -24 66zM870 424l-245 548
l-247 -548h492zM875 1533v-27q-34 -3 -51 -27l-129 -173q-6 -9 -6 -18q0 -15 21 -15h4v-27h-173v27q22 0 30 6t20 30l76 163q3 6 3 12q0 19 -27 22v27h232z" />
    <glyph glyph-name="acircumflex" unicode="&#xe2;" horiz-adv-x="1267" 
d="M917 315h-587l-85 -188q-16 -35 -16 -52q0 -34 52 -48v-27h-276v27q40 7 62.5 31.5t53.5 93.5l371 806q31 67 31 92q0 35 -50 43v27h325v-27q-50 -11 -50 -43q0 -19 40 -107l356 -775q36 -77 62 -106t66 -35v-27h-292v27q47 10 47 34q0 12 -24 66zM870 424l-245 548
l-247 -548h492zM519 1246h-210v27q26 1 37 7.5t36 34.5l146 149q12 12 12 25q0 17 -35 17v27h262v-27q-33 -4 -33 -18q0 -11 18 -28l169 -167q18 -19 48 -20v-27h-235v27q33 3 33 15q0 6 -17 23l-124 131l-128 -134q-10 -10 -10 -17q0 -16 31 -18v-27z" />
    <glyph glyph-name="atilde" unicode="&#xe3;" horiz-adv-x="1267" 
d="M917 315h-587l-85 -188q-16 -35 -16 -52q0 -34 52 -48v-27h-276v27q40 7 62.5 31.5t53.5 93.5l371 806q31 67 31 92q0 35 -50 43v27h325v-27q-50 -11 -50 -43q0 -19 40 -107l356 -775q36 -77 62 -106t66 -35v-27h-292v27q47 10 47 34q0 12 -24 66zM870 424l-245 548
l-247 -548h492zM825 1465l130 -84l-14 -23q-14 6 -22 6q-12 0 -25 -18q-64 -95 -138 -95q-36 0 -78 15l-144 53q-18 7 -40 7q-20 0 -38 -16t-19 -35q-1 -10 13 -28l-15 -18l-132 90l13 18q14 -4 21 -4q18 0 35 23q58 84 148 84q28 0 58 -11l145 -55q24 -9 47 -9
q20 0 37.5 16t17.5 35q0 14 -16 30z" />
    <glyph glyph-name="egrave" unicode="&#xe8;" horiz-adv-x="1221" 
d="M327 524v-415h692q42 0 59.5 13t26.5 52h28v-238h-28q-9 38 -26 51t-59 13h-900v27q39 10 51.5 27.5t12.5 58.5v894q0 42 -13 59t-51 27v27h893q42 0 59 13t27 51h27v-238h-27q-10 39 -27 52t-59 13h-686v-378h437q42 0 59 13t27 51h27v-238h-27q-10 39 -27.5 52
t-58.5 13h-437zM416 1533h232v-27q-27 -3 -27 -22q0 -6 3 -12l77 -163q11 -24 19 -30t30 -6v-27h-173v27h5q20 0 20 15q0 9 -6 18l-129 173q-17 24 -51 27v27z" />
    <glyph glyph-name="eacute" unicode="&#xe9;" horiz-adv-x="1221" 
d="M327 524v-415h692q42 0 59.5 13t26.5 52h28v-238h-28q-9 38 -26 51t-59 13h-900v27q39 10 51.5 27.5t12.5 58.5v894q0 42 -13 59t-51 27v27h893q42 0 59 13t27 51h27v-238h-27q-10 39 -27 52t-59 13h-686v-378h437q42 0 59 13t27 51h27v-238h-27q-10 39 -27.5 52
t-58.5 13h-437zM873 1533v-27q-34 -3 -51 -27l-129 -173q-6 -9 -6 -18q0 -15 21 -15h4v-27h-173v27q22 0 30 6t20 30l76 163q3 6 3 12q0 19 -27 22v27h232z" />
    <glyph glyph-name="ecircumflex" unicode="&#xea;" horiz-adv-x="1221" 
d="M327 524v-415h692q42 0 59.5 13t26.5 52h28v-238h-28q-9 38 -26 51t-59 13h-900v27q39 10 51.5 27.5t12.5 58.5v894q0 42 -13 59t-51 27v27h893q42 0 59 13t27 51h27v-238h-27q-10 39 -27 52t-59 13h-686v-378h437q42 0 59 13t27 51h27v-238h-27q-10 39 -27.5 52
t-58.5 13h-437zM520 1246h-210v27q26 1 37 7.5t36 34.5l146 149q12 12 12 25q0 17 -35 17v27h262v-27q-33 -4 -33 -18q0 -11 18 -28l169 -167q18 -19 48 -20v-27h-235v27q33 3 33 15q0 6 -17 23l-124 131l-128 -134q-10 -10 -10 -17q0 -16 31 -18v-27z" />
    <glyph glyph-name="igrave" unicode="&#xec;" horiz-adv-x="512" 
d="M185 113v894q0 42 -13 59t-51 27v27h271v-27q-38 -10 -51 -27t-13 -59v-894q0 -41 13 -58.5t51 -27.5v-27h-271v27q38 10 51 27.5t13 58.5zM14 1533h232v-27q-27 -3 -27 -22q0 -6 3 -12l77 -163q11 -24 19 -30t30 -6v-27h-173v27h5q20 0 20 15q0 9 -6 18l-129 173
q-17 24 -51 27v27z" />
    <glyph glyph-name="iacute" unicode="&#xed;" horiz-adv-x="512" 
d="M184 113v894q0 42 -13 59t-51 27v27h271v-27q-38 -10 -51 -27t-13 -59v-894q0 -41 13 -58.5t51 -27.5v-27h-271v27q38 10 51 27.5t13 58.5zM498 1533v-27q-34 -3 -51 -27l-129 -173q-6 -9 -6 -18q0 -15 21 -15h4v-27h-173v27q22 0 30 6t20 30l76 163q3 6 3 12
q0 19 -27 22v27h232z" />
    <glyph glyph-name="ograve" unicode="&#xf2;" horiz-adv-x="1536" 
d="M766 1144q299 0 482 -156q195 -165 195 -436q0 -169 -96 -310q-181 -266 -579 -266q-297 0 -480 156q-195 166 -195 428q0 177 95 318q101 149 283 217q125 47 295 49zM766 1028q-244 0 -393 -150q-130 -130 -130 -318t130 -318q149 -150 395 -150t395 150
q130 130 130 312q0 197 -130 324q-150 148 -397 150zM539 1533h232v-27q-27 -3 -27 -22q0 -6 3 -12l77 -163q11 -24 19 -30t30 -6v-27h-173v27h5q20 0 20 15q0 9 -6 18l-129 173q-17 24 -51 27v27z" />
    <glyph glyph-name="oacute" unicode="&#xf3;" horiz-adv-x="1536" 
d="M766 1144q299 0 482 -156q195 -165 195 -436q0 -169 -96 -310q-181 -266 -579 -266q-297 0 -480 156q-195 166 -195 428q0 177 95 318q101 149 283 217q125 47 295 49zM766 1028q-244 0 -393 -150q-130 -130 -130 -318t130 -318q149 -150 395 -150t395 150
q130 130 130 312q0 197 -130 324q-150 148 -397 150zM1003 1533v-27q-34 -3 -51 -27l-129 -173q-6 -9 -6 -18q0 -15 21 -15h4v-27h-173v27q22 0 30 6t20 30l76 163q3 6 3 12q0 19 -27 22v27h232z" />
    <glyph glyph-name="ocircumflex" unicode="&#xf4;" horiz-adv-x="1536" 
d="M766 1144q299 0 482 -156q195 -165 195 -436q0 -169 -96 -310q-181 -266 -579 -266q-297 0 -480 156q-195 166 -195 428q0 177 95 318q101 149 283 217q125 47 295 49zM766 1028q-244 0 -393 -150q-130 -130 -130 -318t130 -318q149 -150 395 -150t395 150
q130 130 130 312q0 197 -130 324q-150 148 -397 150zM655 1246h-210v27q26 1 37 7.5t36 34.5l146 149q12 12 12 25q0 17 -35 17v27h262v-27q-33 -4 -33 -18q0 -11 18 -28l169 -167q18 -19 48 -20v-27h-235v27q33 3 33 15q0 6 -17 23l-124 131l-128 -134q-10 -10 -10 -17
q0 -16 31 -18v-27z" />
    <glyph glyph-name="otilde" unicode="&#xf5;" horiz-adv-x="1536" 
d="M766 1144q299 0 482 -156q195 -165 195 -436q0 -169 -96 -310q-181 -266 -579 -266q-297 0 -480 156q-195 166 -195 428q0 177 95 318q101 149 283 217q125 47 295 49zM766 1028q-244 0 -393 -150q-130 -130 -130 -318t130 -318q149 -150 395 -150t395 150
q130 130 130 312q0 197 -130 324q-150 148 -397 150zM977 1501l130 -84l-14 -23q-14 6 -22 6q-12 0 -25 -18q-64 -96 -138 -96q-35 0 -78 16l-144 53q-19 7 -40 7q-20 0 -38.5 -16.5t-18.5 -34.5q0 -11 13 -28l-15 -18l-132 90l13 18q13 -4 21 -4q18 0 35 23q57 84 148 84
q27 0 58 -12l145 -54q25 -10 47 -10q20 0 37.5 16t17.5 35q0 14 -16 31z" />
    <glyph glyph-name="divide" unicode="&#xf7;" horiz-adv-x="1706" 
 />
    <glyph glyph-name="glyph217" unicode="&#xf9;" horiz-adv-x="1342" 
d="M305 1007v-575q0 -133 13 -183.5t57 -84.5q90 -72 308 -72q241 0 326 88q31 33 41 81.5t10 170.5v575q0 41 -13 58.5t-51 27.5v27h247v-27q-38 -10 -51 -27t-13 -59v-604q0 -154 -26 -217q-44 -108 -161 -159t-322 -51q-294 0 -412 109q-57 52 -76.5 117t-19.5 201v604
q0 42 -13 59t-51 27v27h271v-27q-38 -10 -51 -27.5t-13 -58.5zM449 1533h232v-27q-27 -3 -27 -22q0 -6 3 -12l77 -163q11 -24 19 -30t30 -6v-27h-173v27h5q20 0 20 15q0 9 -6 18l-129 173q-17 24 -51 27v27z" />
    <glyph glyph-name="glyph218" unicode="&#xfa;" horiz-adv-x="1342" 
d="M305 1007v-575q0 -133 13 -183.5t57 -84.5q90 -72 308 -72q241 0 326 88q31 33 41 81.5t10 170.5v575q0 41 -13 58.5t-51 27.5v27h247v-27q-38 -10 -51 -27t-13 -59v-604q0 -154 -26 -217q-44 -108 -161 -159t-322 -51q-294 0 -412 109q-57 52 -76.5 117t-19.5 201v604
q0 42 -13 59t-51 27v27h271v-27q-38 -10 -51 -27.5t-13 -58.5zM903 1533v-27q-34 -3 -51 -27l-129 -173q-6 -9 -6 -18q0 -15 21 -15h4v-27h-173v27q22 0 30 6t20 30l76 163q3 6 3 12q0 19 -27 22v27h232z" />
    <glyph glyph-name="glyph235" unicode="&#xfd;" horiz-adv-x="1114" 
d="M640 494v-381q0 -41 12.5 -58.5t51.5 -27.5v-27h-271v27q38 10 51 27.5t13 58.5v381l-345 450q-63 83 -93 110t-71 39v27h316v-27q-44 -7 -44 -38q0 -28 27 -63l295 -387l267 386q28 41 28 62q0 34 -45 40v27h292v-27q-45 -15 -83 -51.5t-104 -128.5zM841 1533v-27
q-34 -3 -51 -27l-129 -173q-6 -9 -6 -18q0 -15 21 -15h4v-27h-173v27q22 0 30 6t20 30l76 163q3 6 3 12q0 19 -27 22v27h232z" />
    <glyph glyph-name="Abreve" unicode="&#x102;" horiz-adv-x="1510" 
d="M1119 383h-731l-120 -259q-17 -37 -17 -52q0 -30 59 -40v-32h-304v32q41 7 62.5 30t56.5 100l500 1079q18 39 18 53q0 26 -49 39v32h332v-32q-49 -16 -49 -42q0 -11 18 -50l479 -1040q53 -115 70 -135t74 -34v-32h-324v32q58 8 58 44q0 16 -22 62zM1060 513l-307 674
l-306 -674h613zM461 1682v27h172v-27q-20 -1 -25.5 -5t-5.5 -17q0 -38 31 -74q44 -51 132 -51q83 0 126 51q31 36 31 74q0 13 -6 17t-25 5v27h172v-27q-34 0 -36 -22q-8 -75 -43 -127q-74 -109 -222 -109q-112 0 -183 63t-82 173q-2 22 -36 22z" />
    <glyph glyph-name="abreve" unicode="&#x103;" horiz-adv-x="1267" 
d="M917 315h-587l-85 -188q-16 -35 -16 -52q0 -34 52 -48v-27h-276v27q40 7 62.5 31.5t53.5 93.5l371 806q31 67 31 92q0 35 -50 43v27h325v-27q-50 -11 -50 -43q0 -19 40 -107l356 -775q36 -77 62 -106t66 -35v-27h-292v27q47 10 47 34q0 12 -24 66zM870 424l-245 548
l-247 -548h492zM338 1459v27h172v-27q-20 -1 -25.5 -5t-5.5 -17q0 -38 31 -74q44 -51 132 -51q83 0 126 51q31 36 31 74q0 13 -6 17t-25 5v27h172v-27q-34 0 -36 -22q-8 -75 -43 -127q-74 -109 -222 -109q-112 0 -183 63t-82 173q-2 22 -36 22z" />
    <glyph glyph-name="Ccaron" unicode="&#x10c;" horiz-adv-x="1274" 
 />
    <glyph glyph-name="ccaron" unicode="&#x10d;" horiz-adv-x="922" 
 />
    <glyph glyph-name="Dslash" unicode="&#x110;" horiz-adv-x="1686" 
d="M37 577v251h37q12 -37 30 -51t54 -14h57v498q0 30 -14 46t-50 26v32h720q245 0 375 -68q164 -85 250 -261q75 -156 75 -354q0 -232 -101 -401q-91 -150 -230.5 -215.5t-368.5 -65.5h-720v32q36 10 50 26t14 46v536h-57q-36 0 -54 -13.5t-30 -49.5h-37zM372 763h357
q36 0 54 14t30 51h37v-251h-37q-12 36 -30 49.5t-54 13.5h-357v-510h493q218 0 322 67q124 80 182 246q38 109 38 239q0 240 -121 395q-67 86 -163 122t-258 36h-493v-472z" />
    <glyph glyph-name="dcroat" unicode="&#x111;" horiz-adv-x="1401" 
d="M184 526h-81q-22 0 -33.5 -14t-19.5 -51h-23v231h23q8 -37 19.5 -50.5t33.5 -13.5h81v379q0 41 -13 58.5t-51 27.5v27h566q227 0 338 -53q138 -67 216 -222q68 -134 68 -285q0 -177 -90 -325q-78 -129 -197.5 -182t-334.5 -53h-566v27q38 10 51 27.5t13 58.5v413z
M327 1011v-383h292q22 0 33.5 14t19.5 50h24v-231h-24q-8 37 -19 51t-34 14h-292v-417h351q199 0 291 54q103 60 152 186q37 95 37 211q0 204 -105 327q-58 68 -143 96t-232 28h-351z" />
    <glyph glyph-name="Itilde" unicode="&#x128;" horiz-adv-x="586" 
d="M215 118v1129q0 42 -13 59t-51 27v32h285v-32q-38 -9 -51 -26.5t-13 -59.5v-1129q0 -42 12.5 -59t51.5 -27v-32h-285v32q39 10 51.5 27t12.5 59zM530 1733l130 -84l-14 -23q-14 6 -22 6q-12 0 -25 -18q-64 -95 -138 -95q-36 0 -78 15l-144 53q-18 7 -40 7q-20 0 -38 -16
t-19 -35q-1 -10 13 -28l-15 -18l-132 90l13 18q14 -4 21 -4q18 0 35 23q58 84 148 84q28 0 58 -11l145 -55q24 -9 47 -9q20 0 37.5 16t17.5 35q0 14 -16 30z" />
    <glyph glyph-name="itilde" unicode="&#x129;" horiz-adv-x="512" 
d="M184 113v894q0 42 -13 59t-51 27v27h271v-27q-38 -10 -51 -27t-13 -59v-894q0 -41 13 -58.5t51 -27.5v-27h-271v27q38 10 51 27.5t13 58.5zM452 1465l130 -84l-14 -23q-14 6 -22 6q-12 0 -25 -18q-64 -95 -138 -95q-36 0 -78 15l-144 53q-18 7 -40 7q-20 0 -38 -16
t-19 -35q-1 -10 13 -28l-15 -18l-132 90l13 18q14 -4 21 -4q18 0 35 23q58 84 148 84q28 0 58 -11l145 -55q24 -9 47 -9q20 0 37.5 16t17.5 35q0 14 -16 30z" />
    <glyph glyph-name="Utilde" unicode="&#x168;" horiz-adv-x="1617" 
d="M344 1247v-755q0 -134 14 -188.5t58 -94.5q107 -96 399 -96q318 0 417 113q33 38 44 90.5t11 175.5v755q0 41 -13 58.5t-51 27.5v32h271v-32q-38 -9 -51 -26.5t-13 -59.5v-786q0 -145 -28 -221q-52 -136 -195.5 -200t-397.5 -64q-380 0 -520 147q-57 59 -79.5 134.5
t-22.5 203.5v786q0 42 -13 59.5t-51 26.5v32h285v-32q-38 -10 -51 -27.5t-13 -58.5zM1021 1733l130 -84l-14 -23q-14 6 -22 6q-12 0 -25 -18q-64 -95 -138 -95q-36 0 -78 15l-144 53q-18 7 -40 7q-20 0 -38 -16t-19 -35q-1 -10 13 -28l-15 -18l-132 90l13 18q14 -4 21 -4
q18 0 35 23q58 84 148 84q28 0 58 -11l145 -55q24 -9 47 -9q20 0 37.5 16t17.5 35q0 14 -16 30z" />
    <glyph glyph-name="utilde" unicode="&#x169;" horiz-adv-x="1342" 
d="M305 1007v-575q0 -133 13 -183.5t57 -84.5q90 -72 308 -72q241 0 326 88q31 33 41 81.5t10 170.5v575q0 41 -13 58.5t-51 27.5v27h247v-27q-38 -10 -51 -27t-13 -59v-604q0 -154 -26 -217q-44 -108 -161 -159t-322 -51q-294 0 -412 109q-57 52 -76.5 117t-19.5 201v604
q0 42 -13 59t-51 27v27h271v-27q-38 -10 -51 -27.5t-13 -58.5zM914 1501l130 -84l-14 -23q-14 6 -22 6q-12 0 -25 -18q-64 -96 -138 -96q-35 0 -78 16l-144 53q-19 7 -40 7q-20 0 -38.5 -16.5t-18.5 -34.5q0 -11 13 -28l-15 -18l-132 90l13 18q13 -4 21 -4q18 0 35 23
q57 84 148 84q27 0 58 -12l145 -54q25 -10 47 -10q20 0 37.5 16t17.5 35q0 14 -16 31z" />
    <glyph glyph-name="Ohorn" unicode="&#x1a0;" 
d="M930 1252q-307 0 -486 -172q-164 -158 -164 -397q0 -240 164 -398q178 -172 488 -172q311 0 490 172q163 158 163 390q0 251 -163 405q-98 92 -210 129q-124 42 -282 43zM1515 1197q122 -104 183 -254q51 -125 51 -269q0 -195 -111 -365q-122 -188 -339 -271
q-162 -62 -367 -62q-359 0 -579 189q-123 106 -186 257q-51 124 -51 261q0 203 110 374q120 185 340 270q154 59 364 62q330 0 543 -158q39 21 63 44q35 34 54 91q-28 -2 -43 0q-45 7 -68.5 40.5t-15.5 80.5q7 49 41 75.5t79 19.5q52 -8 76 -55t13 -118q-13 -88 -64 -144
q-35 -38 -93 -68z" />
    <glyph glyph-name="ohorn" unicode="&#x1a1;" horiz-adv-x="1536" 
d="M766 1028q-244 0 -393 -150q-130 -130 -130 -318t130 -318q149 -150 395 -150t395 150q130 130 130 312q0 197 -130 324q-150 148 -397 150zM1250 987q193 -165 193 -435q0 -169 -96 -310q-181 -266 -579 -266q-297 0 -480 156q-195 166 -195 428q0 177 95 318
q101 149 283 217q125 47 295 49q266 0 440 -124q16 11 28 23q35 34 54 91q-28 -2 -43 0q-45 7 -68.5 40.5t-15.5 80.5q7 49 41 75.5t79 19.5q52 -8 76 -55t13 -118q-13 -88 -64 -144q-23 -25 -56 -46z" />
    <glyph glyph-name="Uhorn" unicode="&#x1af;" horiz-adv-x="1617" 
d="M1430 1183v-722q0 -145 -28 -221q-52 -136 -195.5 -200t-397.5 -64q-380 0 -520 147q-57 59 -79.5 134.5t-22.5 203.5v786q0 42 -13 59.5t-51 26.5v32h285v-32q-38 -10 -51 -27.5t-13 -58.5v-755q0 -134 14 -188.5t58 -94.5q107 -96 399 -96q318 0 417 113q33 38 44 90.5
t11 175.5v755q0 41 -13 58.5t-51 27.5v32h271v-32q-38 -9 -51 -26.5t-13 -59.5v-10q32 18 52 38q35 34 54 91q-28 -2 -43 0q-45 7 -68.5 40.5t-15.5 80.5q7 49 41 75.5t79 19.5q52 -8 76 -55t13 -118q-13 -88 -64 -144q-44 -47 -124 -82z" />
    <glyph glyph-name="uhorn" unicode="&#x1b0;" horiz-adv-x="1342" 
d="M1179 949v-546q0 -154 -26 -217q-44 -108 -161 -159t-322 -51q-294 0 -412 109q-57 52 -76.5 117t-19.5 201v604q0 42 -13 59t-51 27v27h271v-27q-38 -10 -51 -27.5t-13 -58.5v-575q0 -133 13 -183.5t57 -84.5q90 -72 308 -72q241 0 326 88q31 33 41 81.5t10 170.5v575
q0 41 -13 58.5t-51 27.5v27h247v-27q-38 -10 -51 -27t-13 -59v-4q34 19 55 40q35 34 54 91q-28 -2 -43 0q-45 7 -68.5 40.5t-15.5 80.5q7 49 41 75.5t79 19.5q52 -8 76 -55t13 -118q-13 -88 -64 -144q-45 -48 -127 -84z" />
    <glyph glyph-name="uni1EA0" unicode="&#x1ea0;" horiz-adv-x="1510" 
d="M1119 383h-731l-120 -259q-17 -37 -17 -52q0 -30 59 -40v-32h-304v32q41 7 62.5 30t56.5 100l500 1079q18 39 18 53q0 26 -49 39v32h332v-32q-49 -16 -49 -42q0 -11 18 -50l479 -1040q53 -115 70 -135t74 -34v-32h-324v32q58 8 58 44q0 16 -22 62zM1060 513l-307 674
l-306 -674h613zM754 -175q39 0 66 -27t27 -67q0 -38 -27.5 -65t-65.5 -27t-65.5 27.5t-27.5 65.5q0 39 27 65.5t66 27.5z" />
    <glyph glyph-name="uni1EA1" unicode="&#x1ea1;" horiz-adv-x="1267" 
d="M917 315h-587l-85 -188q-16 -35 -16 -52q0 -34 52 -48v-27h-276v27q40 7 62.5 31.5t53.5 93.5l371 806q31 67 31 92q0 35 -50 43v27h325v-27q-50 -11 -50 -43q0 -19 40 -107l356 -775q36 -77 62 -106t66 -35v-27h-292v27q47 10 47 34q0 12 -24 66zM870 424l-245 548
l-247 -548h492zM639 -175q39 0 66 -27t27 -67q0 -38 -27.5 -65t-65.5 -27t-65.5 27.5t-27.5 65.5q0 39 27 65.5t66 27.5z" />
    <glyph glyph-name="uni1EA2" unicode="&#x1ea2;" horiz-adv-x="1510" 
d="M1119 383h-731l-120 -259q-17 -37 -17 -52q0 -30 59 -40v-32h-304v32q41 7 62.5 30t56.5 100l500 1079q18 39 18 53q0 26 -49 39v32h332v-32q-49 -16 -49 -42q0 -11 18 -50l479 -1040q53 -115 70 -135t74 -34v-32h-324v32q58 8 58 44q0 16 -22 62zM1060 513l-307 674
l-306 -674h613zM820 1421h-139v52q26 1 24 6q-1 26 16 61q10 20 19 32t52 63q25 30 25 54q0 22 -11 36q-21 26 -57 26q-40 0 -73 -31q-14 -13 -14 -20q0 1 15 -21l-37 -36l-103 111l35 34q23 -13 22 -11q77 65 163 65q74 0 122 -47q43 -42 43 -103q0 -46 -27 -83
q-13 -18 -57 -62q-19 -20 -29.5 -35.5t-10.5 -38.5l22 -2v-50z" />
    <glyph glyph-name="uni1EA3" unicode="&#x1ea3;" horiz-adv-x="1267" 
d="M917 315h-587l-85 -188q-16 -35 -16 -52q0 -34 52 -48v-27h-276v27q40 7 62.5 31.5t53.5 93.5l371 806q31 67 31 92q0 35 -50 43v27h325v-27q-50 -11 -50 -43q0 -19 40 -107l356 -775q36 -77 62 -106t66 -35v-27h-292v27q47 10 47 34q0 12 -24 66zM870 424l-245 548
l-247 -548h492zM704 1189h-139v52q25 1 23 6q-1 26 17 61q10 20 18.5 32t51.5 63q25 30 25 54q0 22 -11 36q-20 26 -57 26q-40 0 -72 -31q-14 -13 -14 -20q0 1 15 -21l-38 -36l-103 111l36 34q23 -13 21 -11q77 65 164 65q74 0 122 -47q42 -42 42 -103q0 -46 -26 -83
q-13 -18 -57 -62q-20 -20 -30.5 -35.5t-10.5 -38.5l23 -2v-50z" />
    <glyph glyph-name="uni1EA4" unicode="&#x1ea4;" horiz-adv-x="1510" 
d="M1119 383h-731l-120 -259q-17 -37 -17 -52q0 -30 59 -40v-32h-304v32q41 7 62.5 30t56.5 100l500 1079q18 39 18 53q0 26 -49 39v32h332v-32q-49 -16 -49 -42q0 -11 18 -50l479 -1040q53 -115 70 -135t74 -34v-32h-324v32q58 8 58 44q0 16 -22 62zM1060 513l-307 674
l-306 -674h613zM1262 1981v-27q-34 -3 -51 -28l-129 -172q-6 -9 -6 -18q0 -15 21 -15h4v-27h-173v27q22 0 30 6t20 30l76 163q3 6 3 12q0 19 -27 22v27h232zM642 1478h-210v27q26 1 37 7.5t36 34.5l146 149q12 12 12 25q0 17 -35 17v27h262v-27q-33 -4 -33 -18q0 -11 18 -28
l169 -167q18 -19 48 -20v-27h-235v27q33 3 33 15q0 6 -17 23l-124 131l-128 -134q-10 -10 -10 -18q0 -15 31 -17v-27z" />
    <glyph glyph-name="uni1EA5" unicode="&#x1ea5;" horiz-adv-x="1267" 
d="M917 315h-587l-85 -188q-16 -35 -16 -52q0 -34 52 -48v-27h-276v27q40 7 62.5 31.5t53.5 93.5l371 806q31 67 31 92q0 35 -50 43v27h325v-27q-50 -11 -50 -43q0 -19 40 -107l356 -775q36 -77 62 -106t66 -35v-27h-292v27q47 10 47 34q0 12 -24 66zM870 424l-245 548
l-247 -548h492zM1160 1748v-27q-34 -3 -51 -27l-129 -173q-6 -9 -6 -18q0 -15 21 -15h4v-27h-173v27q22 0 30 6t20 30l76 163q3 6 3 12q0 19 -27 22v27h232zM519 1246h-210v27q26 1 37 7.5t36 34.5l146 149q12 12 12 25q0 17 -35 17v27h262v-27q-33 -4 -33 -18q0 -11 18 -28
l169 -167q18 -19 48 -20v-27h-235v27q33 3 33 15q0 6 -17 23l-124 131l-128 -134q-10 -10 -10 -17q0 -16 31 -18v-27z" />
    <glyph glyph-name="uni1EA6" unicode="&#x1ea6;" horiz-adv-x="1510" 
d="M1119 383h-731l-120 -259q-17 -37 -17 -52q0 -30 59 -40v-32h-304v32q41 7 62.5 30t56.5 100l500 1079q18 39 18 53q0 26 -49 39v32h332v-32q-49 -16 -49 -42q0 -11 18 -50l479 -1040q53 -115 70 -135t74 -34v-32h-324v32q58 8 58 44q0 16 -22 62zM1060 513l-307 674
l-306 -674h613zM775 1980h232v-27q-27 -3 -27 -22q0 -6 3 -12l77 -163q11 -24 19 -30t30 -6v-27h-173v27h5q20 0 20 15q0 9 -6 18l-129 172q-17 25 -51 28v27zM642 1478h-210v27q26 1 37 7.5t36 34.5l146 149q12 12 12 25q0 17 -35 17v27h262v-27q-33 -4 -33 -18
q0 -11 18 -28l169 -167q18 -19 48 -20v-27h-235v27q33 3 33 15q0 6 -17 23l-124 131l-128 -134q-10 -10 -10 -18q0 -15 31 -17v-27z" />
    <glyph glyph-name="uni1EA7" unicode="&#x1ea7;" horiz-adv-x="1267" 
d="M917 315h-587l-85 -188q-16 -35 -16 -52q0 -34 52 -48v-27h-276v27q40 7 62.5 31.5t53.5 93.5l371 806q31 67 31 92q0 35 -50 43v27h325v-27q-50 -11 -50 -43q0 -19 40 -107l356 -775q36 -77 62 -106t66 -35v-27h-292v27q47 10 47 34q0 12 -24 66zM870 424l-245 548
l-247 -548h492zM639 1750h232v-27q-27 -3 -27 -22q0 -6 3 -12l77 -163q11 -24 19 -30t30 -6v-27h-173v27h5q20 0 20 15q0 9 -6 18l-129 173q-17 24 -51 27v27zM519 1246h-210v27q26 1 37 7.5t36 34.5l146 149q12 12 12 25q0 17 -35 17v27h262v-27q-33 -4 -33 -18
q0 -11 18 -28l169 -167q18 -19 48 -20v-27h-235v27q33 3 33 15q0 6 -17 23l-124 131l-128 -134q-10 -10 -10 -17q0 -16 31 -18v-27z" />
    <glyph glyph-name="uni1EA8" unicode="&#x1ea8;" horiz-adv-x="1510" 
d="M1119 383h-731l-120 -259q-17 -37 -17 -52q0 -30 59 -40v-32h-304v32q41 7 62.5 30t56.5 100l500 1079q18 39 18 53q0 26 -49 39v32h332v-32q-49 -16 -49 -42q0 -11 18 -50l479 -1040q53 -115 70 -135t74 -34v-32h-324v32q58 8 58 44q0 16 -22 62zM1060 513l-307 674
l-306 -674h613zM1082 1666h-139v52q26 1 24 6q-1 26 16 61q10 20 19 32t52 63q25 30 25 54q0 22 -11 36q-21 26 -57 26q-40 0 -73 -31q-14 -13 -14 -20q0 1 15 -21l-37 -36l-103 111l35 34q23 -13 22 -11q77 65 163 65q74 0 122 -47q43 -42 43 -103q0 -46 -27 -83
q-13 -18 -57 -62q-19 -20 -29.5 -35.5t-10.5 -38.5l22 -2v-50zM642 1478h-210v27q26 1 37 7.5t36 34.5l146 149q12 12 12 25q0 17 -35 17v27h262v-27q-33 -4 -33 -18q0 -11 18 -28l169 -167q18 -19 48 -20v-27h-235v27q33 3 33 15q0 6 -17 23l-124 131l-128 -134
q-10 -10 -10 -18q0 -15 31 -17v-27z" />
    <glyph glyph-name="uni1EA9" unicode="&#x1ea9;" horiz-adv-x="1267" 
d="M917 315h-587l-85 -188q-16 -35 -16 -52q0 -34 52 -48v-27h-276v27q40 7 62.5 31.5t53.5 93.5l371 806q31 67 31 92q0 35 -50 43v27h325v-27q-50 -11 -50 -43q0 -19 40 -107l356 -775q36 -77 62 -106t66 -35v-27h-292v27q47 10 47 34q0 12 -24 66zM870 424l-245 548
l-247 -548h492zM962 1456h-139v52q25 1 23 6q-1 26 17 61q10 20 18.5 32t51.5 63q25 30 25 54q0 22 -11 36q-20 26 -57 26q-40 0 -72 -31q-14 -13 -14 -20q0 1 15 -21l-38 -36l-103 111l36 34q23 -13 21 -11q77 65 164 65q74 0 122 -47q42 -42 42 -103q0 -46 -26 -83
q-13 -18 -57 -62q-20 -20 -30.5 -35.5t-10.5 -38.5l23 -2v-50zM519 1246h-210v27q26 1 37 7.5t36 34.5l146 149q12 12 12 25q0 17 -35 17v27h262v-27q-33 -4 -33 -18q0 -11 18 -28l169 -167q18 -19 48 -20v-27h-235v27q33 3 33 15q0 6 -17 23l-124 131l-128 -134
q-10 -10 -10 -17q0 -16 31 -18v-27z" />
    <glyph glyph-name="uni1EAA" unicode="&#x1eaa;" horiz-adv-x="1510" 
d="M1119 383h-731l-120 -259q-17 -37 -17 -52q0 -30 59 -40v-32h-304v32q41 7 62.5 30t56.5 100l500 1079q18 39 18 53q0 26 -49 39v32h332v-32q-49 -16 -49 -42q0 -11 18 -50l479 -1040q53 -115 70 -135t74 -34v-32h-324v32q58 8 58 44q0 16 -22 62zM1060 513l-307 674
l-306 -674h613zM986 2022l130 -84l-14 -23q-14 6 -22 6q-12 0 -25 -18q-64 -95 -138 -95q-36 0 -78 15l-144 53q-18 7 -40 7q-20 0 -38 -16t-19 -35q-1 -10 13 -28l-15 -18l-132 90l13 18q14 -4 21 -4q18 0 35 23q58 84 148 84q28 0 58 -11l145 -55q24 -9 47 -9
q20 0 37.5 16t17.5 35q0 14 -16 30zM642 1478h-210v27q26 1 37 7.5t36 34.5l146 149q12 12 12 25q0 17 -35 17v27h262v-27q-33 -4 -33 -18q0 -11 18 -28l169 -167q18 -19 48 -20v-27h-235v27q33 3 33 15q0 6 -17 23l-124 131l-128 -134q-10 -10 -10 -18q0 -15 31 -17v-27z
" />
    <glyph glyph-name="uni1EAB" unicode="&#x1eab;" horiz-adv-x="1267" 
d="M917 315h-587l-85 -188q-16 -35 -16 -52q0 -34 52 -48v-27h-276v27q40 7 62.5 31.5t53.5 93.5l371 806q31 67 31 92q0 35 -50 43v27h325v-27q-50 -11 -50 -43q0 -19 40 -107l356 -775q36 -77 62 -106t66 -35v-27h-292v27q47 10 47 34q0 12 -24 66zM870 424l-245 548
l-247 -548h492zM870 1778l130 -84l-14 -23q-14 6 -22 6q-12 0 -25 -18q-64 -95 -138 -95q-36 0 -78 15l-144 53q-18 7 -40 7q-20 0 -38 -16t-19 -35q-1 -10 13 -28l-15 -18l-132 90l13 18q14 -4 21 -4q18 0 35 23q58 84 148 84q28 0 58 -11l145 -55q24 -9 47 -9
q20 0 37.5 16t17.5 35q0 14 -16 30zM519 1246h-210v27q26 1 37 7.5t36 34.5l146 149q12 12 12 25q0 17 -35 17v27h262v-27q-33 -4 -33 -18q0 -11 18 -28l169 -167q18 -19 48 -20v-27h-235v27q33 3 33 15q0 6 -17 23l-124 131l-128 -134q-10 -10 -10 -17q0 -16 31 -18v-27z
" />
    <glyph glyph-name="uni1EAC" unicode="&#x1eac;" horiz-adv-x="1510" 
d="M1119 383h-731l-120 -259q-17 -37 -17 -52q0 -30 59 -40v-32h-304v32q41 7 62.5 30t56.5 100l500 1079q18 39 18 53q0 26 -49 39v32h332v-32q-49 -16 -49 -42q0 -11 18 -50l479 -1040q53 -115 70 -135t74 -34v-32h-324v32q58 8 58 44q0 16 -22 62zM1060 513l-307 674
l-306 -674h613zM754 -175q39 0 66 -27t27 -67q0 -38 -27.5 -65t-65.5 -27t-65.5 27.5t-27.5 65.5q0 39 27 65.5t66 27.5zM642 1478h-210v27q26 1 37 7.5t36 34.5l146 149q12 12 12 25q0 17 -35 17v27h262v-27q-33 -4 -33 -18q0 -11 18 -28l169 -167q18 -19 48 -20v-27h-235
v27q33 3 33 15q0 6 -17 23l-124 131l-128 -134q-10 -10 -10 -18q0 -15 31 -17v-27z" />
    <glyph glyph-name="uni1EAD" unicode="&#x1ead;" horiz-adv-x="1267" 
d="M917 315h-587l-85 -188q-16 -35 -16 -52q0 -34 52 -48v-27h-276v27q40 7 62.5 31.5t53.5 93.5l371 806q31 67 31 92q0 35 -50 43v27h325v-27q-50 -11 -50 -43q0 -19 40 -107l356 -775q36 -77 62 -106t66 -35v-27h-292v27q47 10 47 34q0 12 -24 66zM870 424l-245 548
l-247 -548h492zM639 -175q39 0 66 -27t27 -67q0 -38 -27.5 -65t-65.5 -27t-65.5 27.5t-27.5 65.5q0 39 27 65.5t66 27.5zM519 1246h-210v27q26 1 37 7.5t36 34.5l146 149q12 12 12 25q0 17 -35 17v27h262v-27q-33 -4 -33 -18q0 -11 18 -28l169 -167q18 -19 48 -20v-27h-235
v27q33 3 33 15q0 6 -17 23l-124 131l-128 -134q-10 -10 -10 -17q0 -16 31 -18v-27z" />
    <glyph glyph-name="uni1EAE" unicode="&#x1eae;" horiz-adv-x="1510" 
d="M1119 383h-731l-120 -259q-17 -37 -17 -52q0 -30 59 -40v-32h-304v32q41 7 62.5 30t56.5 100l500 1079q18 39 18 53q0 26 -49 39v32h332v-32q-49 -16 -49 -42q0 -11 18 -50l479 -1040q53 -115 70 -135t74 -34v-32h-324v32q58 8 58 44q0 16 -22 62zM1060 513l-307 674
l-306 -674h613zM1022 1981v-27q-34 -3 -51 -28l-129 -172q-6 -9 -6 -18q0 -15 21 -15h4v-27h-173v27q22 0 30 6t20 30l76 163q3 6 3 12q0 19 -27 22v27h232zM464 1682v27h172v-27q-20 -1 -25.5 -5t-5.5 -17q0 -38 31 -74q44 -51 132 -51q83 0 126 51q31 36 31 74q0 13 -6 17
t-25 5v27h172v-27q-34 0 -36 -22q-8 -75 -43 -127q-74 -109 -222 -109q-112 0 -183 63t-82 173q-2 22 -36 22z" />
    <glyph glyph-name="uni1EAF" unicode="&#x1eaf;" horiz-adv-x="1267" 
d="M917 315h-587l-85 -188q-16 -35 -16 -52q0 -34 52 -48v-27h-276v27q40 7 62.5 31.5t53.5 93.5l371 806q31 67 31 92q0 35 -50 43v27h325v-27q-50 -11 -50 -43q0 -19 40 -107l356 -775q36 -77 62 -106t66 -35v-27h-292v27q47 10 47 34q0 12 -24 66zM870 424l-245 548
l-247 -548h492zM893 1748v-27q-34 -3 -51 -27l-129 -173q-6 -9 -6 -18q0 -15 21 -15h4v-27h-173v27q22 0 30 6t20 30l76 163q3 6 3 12q0 19 -27 22v27h232zM338 1459v27h172v-27q-20 -1 -25.5 -5t-5.5 -17q0 -38 31 -74q44 -51 132 -51q83 0 126 51q31 36 31 74q0 13 -6 17
t-25 5v27h172v-27q-34 0 -36 -22q-8 -75 -43 -127q-74 -109 -222 -109q-112 0 -183 63t-82 173q-2 22 -36 22z" />
    <glyph glyph-name="uni1EB0" unicode="&#x1eb0;" horiz-adv-x="1510" 
d="M1119 383h-731l-120 -259q-17 -37 -17 -52q0 -30 59 -40v-32h-304v32q41 7 62.5 30t56.5 100l500 1079q18 39 18 53q0 26 -49 39v32h332v-32q-49 -16 -49 -42q0 -11 18 -50l479 -1040q53 -115 70 -135t74 -34v-32h-324v32q58 8 58 44q0 16 -22 62zM1060 513l-307 674
l-306 -674h613zM516 1980h232v-27q-27 -3 -27 -22q0 -6 3 -12l77 -163q11 -24 19 -30t30 -6v-27h-173v27h5q20 0 20 15q0 9 -6 18l-129 172q-17 25 -51 28v27zM464 1682v27h172v-27q-20 -1 -25.5 -5t-5.5 -17q0 -38 31 -74q44 -51 132 -51q83 0 126 51q31 36 31 74
q0 13 -6 17t-25 5v27h172v-27q-34 0 -36 -22q-8 -75 -43 -127q-74 -109 -222 -109q-112 0 -183 63t-82 173q-2 22 -36 22z" />
    <glyph glyph-name="uni1EB1" unicode="&#x1eb1;" horiz-adv-x="1267" 
d="M917 315h-587l-85 -188q-16 -35 -16 -52q0 -34 52 -48v-27h-276v27q40 7 62.5 31.5t53.5 93.5l371 806q31 67 31 92q0 35 -50 43v27h325v-27q-50 -11 -50 -43q0 -19 40 -107l356 -775q36 -77 62 -106t66 -35v-27h-292v27q47 10 47 34q0 12 -24 66zM870 424l-245 548
l-247 -548h492zM400 1750h232v-27q-27 -3 -27 -22q0 -6 3 -12l77 -163q11 -24 19 -30t30 -6v-27h-173v27h5q20 0 20 15q0 9 -6 18l-129 173q-17 24 -51 27v27zM338 1459v27h172v-27q-20 -1 -25.5 -5t-5.5 -17q0 -38 31 -74q44 -51 132 -51q83 0 126 51q31 36 31 74
q0 13 -6 17t-25 5v27h172v-27q-34 0 -36 -22q-8 -75 -43 -127q-74 -109 -222 -109q-112 0 -183 63t-82 173q-2 22 -36 22z" />
    <glyph glyph-name="uni1EB2" unicode="&#x1eb2;" horiz-adv-x="1510" 
d="M1119 383h-731l-120 -259q-17 -37 -17 -52q0 -30 59 -40v-32h-304v32q41 7 62.5 30t56.5 100l500 1079q18 39 18 53q0 26 -49 39v32h332v-32q-49 -16 -49 -42q0 -11 18 -50l479 -1040q53 -115 70 -135t74 -34v-32h-324v32q58 8 58 44q0 16 -22 62zM1060 513l-307 674
l-306 -674h613zM833 1666h-139v52q26 1 24 6q-1 26 16 61q10 20 19 32t52 63q25 30 25 54q0 22 -11 36q-21 26 -57 26q-40 0 -73 -31q-14 -13 -14 -20q0 1 15 -21l-37 -36l-103 111l35 34q23 -13 22 -11q77 65 163 65q74 0 122 -47q43 -42 43 -103q0 -46 -27 -83
q-13 -18 -57 -62q-19 -20 -29.5 -35.5t-10.5 -38.5l22 -2v-50zM464 1682v27h172v-27q-20 -1 -25.5 -5t-5.5 -17q0 -38 31 -74q44 -51 132 -51q83 0 126 51q31 36 31 74q0 13 -6 17t-25 5v27h172v-27q-34 0 -36 -22q-8 -75 -43 -127q-74 -109 -222 -109q-112 0 -183 63
t-82 173q-2 22 -36 22z" />
    <glyph glyph-name="uni1EB3" unicode="&#x1eb3;" horiz-adv-x="1267" 
d="M917 315h-587l-85 -188q-16 -35 -16 -52q0 -34 52 -48v-27h-276v27q40 7 62.5 31.5t53.5 93.5l371 806q31 67 31 92q0 35 -50 43v27h325v-27q-50 -11 -50 -43q0 -19 40 -107l356 -775q36 -77 62 -106t66 -35v-27h-292v27q47 10 47 34q0 12 -24 66zM870 424l-245 548
l-247 -548h492zM722 1456h-139v52q25 1 23 6q-1 26 17 61q10 20 18.5 32t51.5 63q25 30 25 54q0 22 -11 36q-20 26 -57 26q-40 0 -72 -31q-14 -13 -14 -20q0 1 15 -21l-38 -36l-103 111l36 34q23 -13 21 -11q77 65 164 65q74 0 122 -47q42 -42 42 -103q0 -46 -26 -83
q-13 -18 -57 -62q-20 -20 -30.5 -35.5t-10.5 -38.5l23 -2v-50zM338 1459v27h172v-27q-20 -1 -25.5 -5t-5.5 -17q0 -38 31 -74q44 -51 132 -51q83 0 126 51q31 36 31 74q0 13 -6 17t-25 5v27h172v-27q-34 0 -36 -22q-8 -75 -43 -127q-74 -109 -222 -109q-112 0 -183 63
t-82 173q-2 22 -36 22z" />
    <glyph glyph-name="uni1EB4" unicode="&#x1eb4;" horiz-adv-x="1510" 
d="M1119 383h-731l-120 -259q-17 -37 -17 -52q0 -30 59 -40v-32h-304v32q41 7 62.5 30t56.5 100l500 1079q18 39 18 53q0 26 -49 39v32h332v-32q-49 -16 -49 -42q0 -11 18 -50l479 -1040q53 -115 70 -135t74 -34v-32h-324v32q58 8 58 44q0 16 -22 62zM1060 513l-307 674
l-306 -674h613zM1013 1995l130 -84l-14 -23q-14 6 -22 6q-12 0 -25 -18q-64 -95 -138 -95q-36 0 -78 15l-144 53q-18 7 -40 7q-20 0 -38 -16t-19 -35q-1 -10 13 -28l-15 -18l-132 90l13 18q14 -4 21 -4q18 0 35 23q58 84 148 84q28 0 58 -11l145 -55q24 -9 47 -9
q20 0 37.5 16t17.5 35q0 14 -16 30zM464 1682v27h172v-27q-20 -1 -25.5 -5t-5.5 -17q0 -38 31 -74q44 -51 132 -51q83 0 126 51q31 36 31 74q0 13 -6 17t-25 5v27h172v-27q-34 0 -36 -22q-8 -75 -43 -127q-74 -109 -222 -109q-112 0 -183 63t-82 173q-2 22 -36 22z" />
    <glyph glyph-name="uni1EB5" unicode="&#x1eb5;" horiz-adv-x="1267" 
d="M917 315h-587l-85 -188q-16 -35 -16 -52q0 -34 52 -48v-27h-276v27q40 7 62.5 31.5t53.5 93.5l371 806q31 67 31 92q0 35 -50 43v27h325v-27q-50 -11 -50 -43q0 -19 40 -107l356 -775q36 -77 62 -106t66 -35v-27h-292v27q47 10 47 34q0 12 -24 66zM870 424l-245 548
l-247 -548h492zM870 1778l130 -84l-14 -23q-14 6 -22 6q-12 0 -25 -18q-64 -95 -138 -95q-36 0 -78 15l-144 53q-18 7 -40 7q-20 0 -38 -16t-19 -35q-1 -10 13 -28l-15 -18l-132 90l13 18q14 -4 21 -4q18 0 35 23q58 84 148 84q28 0 58 -11l145 -55q24 -9 47 -9
q20 0 37.5 16t17.5 35q0 14 -16 30zM338 1459v27h172v-27q-20 -1 -25.5 -5t-5.5 -17q0 -38 31 -74q44 -51 132 -51q83 0 126 51q31 36 31 74q0 13 -6 17t-25 5v27h172v-27q-34 0 -36 -22q-8 -75 -43 -127q-74 -109 -222 -109q-112 0 -183 63t-82 173q-2 22 -36 22z" />
    <glyph glyph-name="uni1EB6" unicode="&#x1eb6;" horiz-adv-x="1510" 
d="M1119 383h-731l-120 -259q-17 -37 -17 -52q0 -30 59 -40v-32h-304v32q41 7 62.5 30t56.5 100l500 1079q18 39 18 53q0 26 -49 39v32h332v-32q-49 -16 -49 -42q0 -11 18 -50l479 -1040q53 -115 70 -135t74 -34v-32h-324v32q58 8 58 44q0 16 -22 62zM1060 513l-307 674
l-306 -674h613zM754 -175q39 0 66 -27t27 -67q0 -38 -27.5 -65t-65.5 -27t-65.5 27.5t-27.5 65.5q0 39 27 65.5t66 27.5zM464 1682v27h172v-27q-20 -1 -25.5 -5t-5.5 -17q0 -38 31 -74q44 -51 132 -51q83 0 126 51q31 36 31 74q0 13 -6 17t-25 5v27h172v-27q-34 0 -36 -22
q-8 -75 -43 -127q-74 -109 -222 -109q-112 0 -183 63t-82 173q-2 22 -36 22z" />
    <glyph glyph-name="uni1EB7" unicode="&#x1eb7;" horiz-adv-x="1267" 
d="M917 315h-587l-85 -188q-16 -35 -16 -52q0 -34 52 -48v-27h-276v27q40 7 62.5 31.5t53.5 93.5l371 806q31 67 31 92q0 35 -50 43v27h325v-27q-50 -11 -50 -43q0 -19 40 -107l356 -775q36 -77 62 -106t66 -35v-27h-292v27q47 10 47 34q0 12 -24 66zM870 424l-245 548
l-247 -548h492zM639 -175q39 0 66 -27t27 -67q0 -38 -27.5 -65t-65.5 -27t-65.5 27.5t-27.5 65.5q0 39 27 65.5t66 27.5zM338 1459v27h172v-27q-20 -1 -25.5 -5t-5.5 -17q0 -38 31 -74q44 -51 132 -51q83 0 126 51q31 36 31 74q0 13 -6 17t-25 5v27h172v-27q-34 0 -36 -22
q-8 -75 -43 -127q-74 -109 -222 -109q-112 0 -183 63t-82 173q-2 22 -36 22z" />
    <glyph glyph-name="uni1EB8" unicode="&#x1eb8;" horiz-adv-x="1474" 
d="M371 637v-507h875q42 0 59.5 13t26.5 51h32v-258h-31q-10 38 -27.5 51t-59.5 13h-1096v32q39 10 51.5 27t12.5 59v1129q0 42 -13 59t-51 27v32h1083q42 0 59 13t27 52h32v-258h-32q-9 37 -26.5 50t-59.5 13h-862v-468h565q42 0 59.5 13t26.5 51h32v-258h-32
q-9 38 -26.5 51t-59.5 13h-565zM754 -175q39 0 66 -27t27 -67q0 -38 -27.5 -65t-65.5 -27t-65.5 27.5t-27.5 65.5q0 39 27 65.5t66 27.5z" />
    <glyph glyph-name="uni1EB9" unicode="&#x1eb9;" horiz-adv-x="1221" 
d="M327 524v-415h692q42 0 59.5 13t26.5 52h28v-238h-28q-9 38 -26 51t-59 13h-900v27q39 10 51.5 27.5t12.5 58.5v894q0 42 -13 59t-51 27v27h893q42 0 59 13t27 51h27v-238h-27q-10 39 -27 52t-59 13h-686v-378h437q42 0 59 13t27 51h27v-238h-27q-10 39 -27.5 52
t-58.5 13h-437zM639 -175q39 0 66 -27t27 -67q0 -38 -27.5 -65t-65.5 -27t-65.5 27.5t-27.5 65.5q0 39 27 65.5t66 27.5z" />
    <glyph glyph-name="uni1EBA" unicode="&#x1eba;" horiz-adv-x="1474" 
d="M371 637v-507h875q42 0 59.5 13t26.5 51h32v-258h-31q-10 38 -27.5 51t-59.5 13h-1096v32q39 10 51.5 27t12.5 59v1129q0 42 -13 59t-51 27v32h1083q42 0 59 13t27 52h32v-258h-32q-9 37 -26.5 50t-59.5 13h-862v-468h565q42 0 59.5 13t26.5 51h32v-258h-32
q-9 38 -26.5 51t-59.5 13h-565zM820 1421h-139v52q26 1 24 6q-1 26 16 61q10 20 19 32t52 63q25 30 25 54q0 22 -11 36q-21 26 -57 26q-40 0 -73 -31q-14 -13 -14 -20q0 1 15 -21l-37 -36l-103 111l35 34q23 -13 22 -11q77 65 163 65q74 0 122 -47q43 -42 43 -103
q0 -46 -27 -83q-13 -18 -57 -62q-19 -20 -29.5 -35.5t-10.5 -38.5l22 -2v-50z" />
    <glyph glyph-name="uni1EBB" unicode="&#x1ebb;" horiz-adv-x="1221" 
d="M327 524v-415h692q42 0 59.5 13t26.5 52h28v-238h-28q-9 38 -26 51t-59 13h-900v27q39 10 51.5 27.5t12.5 58.5v894q0 42 -13 59t-51 27v27h893q42 0 59 13t27 51h27v-238h-27q-10 39 -27 52t-59 13h-686v-378h437q42 0 59 13t27 51h27v-238h-27q-10 39 -27.5 52
t-58.5 13h-437zM749 1189h-139v52q25 1 23 6q-1 26 17 61q10 20 18.5 32t51.5 63q25 30 25 54q0 22 -11 36q-20 26 -57 26q-40 0 -72 -31q-14 -13 -14 -20q0 1 15 -21l-38 -36l-103 111l36 34q23 -13 21 -11q77 65 164 65q74 0 122 -47q42 -42 42 -103q0 -46 -26 -83
q-13 -18 -57 -62q-20 -20 -30.5 -35.5t-10.5 -38.5l23 -2v-50z" />
    <glyph glyph-name="uni1EBC" unicode="&#x1ebc;" horiz-adv-x="1474" 
d="M371 637v-507h875q42 0 59.5 13t26.5 51h32v-258h-31q-10 38 -27.5 51t-59.5 13h-1096v32q39 10 51.5 27t12.5 59v1129q0 42 -13 59t-51 27v32h1083q42 0 59 13t27 52h32v-258h-32q-9 37 -26.5 50t-59.5 13h-862v-468h565q42 0 59.5 13t26.5 51h32v-258h-32
q-9 38 -26.5 51t-59.5 13h-565zM958 1733l130 -84l-14 -23q-14 6 -22 6q-12 0 -25 -18q-64 -95 -138 -95q-36 0 -78 15l-144 53q-18 7 -40 7q-20 0 -38 -16t-19 -35q-1 -10 13 -28l-15 -18l-132 90l13 18q14 -4 21 -4q18 0 35 23q58 84 148 84q28 0 58 -11l145 -55
q24 -9 47 -9q20 0 37.5 16t17.5 35q0 14 -16 30z" />
    <glyph glyph-name="uni1EBD" unicode="&#x1ebd;" horiz-adv-x="1221" 
d="M327 524v-415h692q42 0 59.5 13t26.5 52h28v-238h-28q-9 38 -26 51t-59 13h-900v27q39 10 51.5 27.5t12.5 58.5v894q0 42 -13 59t-51 27v27h893q42 0 59 13t27 51h27v-238h-27q-10 39 -27 52t-59 13h-686v-378h437q42 0 59 13t27 51h27v-238h-27q-10 39 -27.5 52
t-58.5 13h-437zM825 1465l130 -84l-14 -23q-14 6 -22 6q-12 0 -25 -18q-64 -95 -138 -95q-36 0 -78 15l-144 53q-18 7 -40 7q-20 0 -38 -16t-19 -35q-1 -10 13 -28l-15 -18l-132 90l13 18q14 -4 21 -4q18 0 35 23q58 84 148 84q28 0 58 -11l145 -55q24 -9 47 -9
q20 0 37.5 16t17.5 35q0 14 -16 30z" />
    <glyph glyph-name="uni1EBE" unicode="&#x1ebe;" horiz-adv-x="1474" 
d="M371 637v-507h875q42 0 59.5 13t26.5 51h32v-258h-31q-10 38 -27.5 51t-59.5 13h-1096v32q39 10 51.5 27t12.5 59v1129q0 42 -13 59t-51 27v32h1083q42 0 59 13t27 52h32v-258h-32q-9 37 -26.5 50t-59.5 13h-862v-468h565q42 0 59.5 13t26.5 51h32v-258h-32
q-9 38 -26.5 51t-59.5 13h-565zM1276 1971v-27q-34 -3 -51 -28l-129 -172q-6 -9 -6 -18q0 -15 21 -15h4v-27h-173v27q22 0 30 6t20 30l76 163q3 6 3 12q0 19 -27 22v27h232zM651 1478h-210v27q26 1 37 7.5t36 34.5l146 149q12 12 12 25q0 17 -35 17v27h262v-27
q-33 -4 -33 -18q0 -11 18 -28l169 -167q18 -19 48 -20v-27h-235v27q33 3 33 15q0 6 -17 23l-124 131l-128 -134q-10 -10 -10 -18q0 -15 31 -17v-27z" />
    <glyph glyph-name="uni1EBF" unicode="&#x1ebf;" horiz-adv-x="1221" 
d="M327 524v-415h692q42 0 59.5 13t26.5 52h28v-238h-28q-9 38 -26 51t-59 13h-900v27q39 10 51.5 27.5t12.5 58.5v894q0 42 -13 59t-51 27v27h893q42 0 59 13t27 51h27v-238h-27q-10 39 -27 52t-59 13h-686v-378h437q42 0 59 13t27 51h27v-238h-27q-10 39 -27.5 52
t-58.5 13h-437zM1150 1730v-27q-34 -3 -51 -27l-129 -173q-6 -9 -6 -18q0 -15 21 -15h4v-27h-173v27q22 0 30 6t20 30l76 163q3 6 3 12q0 19 -27 22v27h232zM520 1246h-210v27q26 1 37 7.5t36 34.5l146 149q12 12 12 25q0 17 -35 17v27h262v-27q-33 -4 -33 -18q0 -11 18 -28
l169 -167q18 -19 48 -20v-27h-235v27q33 3 33 15q0 6 -17 23l-124 131l-128 -134q-10 -10 -10 -17q0 -16 31 -18v-27z" />
    <glyph glyph-name="uni1EC0" unicode="&#x1ec0;" horiz-adv-x="1474" 
d="M371 637v-507h875q42 0 59.5 13t26.5 51h32v-258h-31q-10 38 -27.5 51t-59.5 13h-1096v32q39 10 51.5 27t12.5 59v1129q0 42 -13 59t-51 27v32h1083q42 0 59 13t27 52h32v-258h-32q-9 37 -26.5 50t-59.5 13h-862v-468h565q42 0 59.5 13t26.5 51h32v-258h-32
q-9 38 -26.5 51t-59.5 13h-565zM791 1961h232v-27q-27 -3 -27 -22q0 -6 3 -12l77 -163q11 -24 19 -30t30 -6v-27h-173v27h5q20 0 20 15q0 9 -6 18l-129 172q-17 25 -51 28v27zM651 1478h-210v27q26 1 37 7.5t36 34.5l146 149q12 12 12 25q0 17 -35 17v27h262v-27
q-33 -4 -33 -18q0 -11 18 -28l169 -167q18 -19 48 -20v-27h-235v27q33 3 33 15q0 6 -17 23l-124 131l-128 -134q-10 -10 -10 -18q0 -15 31 -17v-27z" />
    <glyph glyph-name="uni1EC1" unicode="&#x1ec1;" horiz-adv-x="1221" 
d="M327 524v-415h692q42 0 59.5 13t26.5 52h28v-238h-28q-9 38 -26 51t-59 13h-900v27q39 10 51.5 27.5t12.5 58.5v894q0 42 -13 59t-51 27v27h893q42 0 59 13t27 51h27v-238h-27q-10 39 -27 52t-59 13h-686v-378h437q42 0 59 13t27 51h27v-238h-27q-10 39 -27.5 52
t-58.5 13h-437zM665 1723h232v-27q-27 -3 -27 -22q0 -6 3 -12l77 -163q11 -24 19 -30t30 -6v-27h-173v27h5q20 0 20 15q0 9 -6 18l-129 173q-17 24 -51 27v27zM520 1246h-210v27q26 1 37 7.5t36 34.5l146 149q12 12 12 25q0 17 -35 17v27h262v-27q-33 -4 -33 -18
q0 -11 18 -28l169 -167q18 -19 48 -20v-27h-235v27q33 3 33 15q0 6 -17 23l-124 131l-128 -134q-10 -10 -10 -17q0 -16 31 -18v-27z" />
    <glyph glyph-name="uni1EC2" unicode="&#x1ec2;" horiz-adv-x="1474" 
d="M371 637v-507h875q42 0 59.5 13t26.5 51h32v-258h-31q-10 38 -27.5 51t-59.5 13h-1096v32q39 10 51.5 27t12.5 59v1129q0 42 -13 59t-51 27v32h1083q42 0 59 13t27 52h32v-258h-32q-9 37 -26.5 50t-59.5 13h-862v-468h565q42 0 59.5 13t26.5 51h32v-258h-32
q-9 38 -26.5 51t-59.5 13h-565zM1106 1662h-139v52q26 1 24 6q-1 26 16 61q10 20 19 32t52 63q25 30 25 54q0 22 -11 36q-21 26 -57 26q-40 0 -73 -31q-14 -13 -14 -20q0 1 15 -21l-37 -36l-103 111l35 34q23 -13 22 -11q77 65 163 65q74 0 122 -47q43 -42 43 -103
q0 -46 -27 -83q-13 -18 -57 -62q-19 -20 -29.5 -35.5t-10.5 -38.5l22 -2v-50zM651 1478h-210v27q26 1 37 7.5t36 34.5l146 149q12 12 12 25q0 17 -35 17v27h262v-27q-33 -4 -33 -18q0 -11 18 -28l169 -167q18 -19 48 -20v-27h-235v27q33 3 33 15q0 6 -17 23l-124 131
l-128 -134q-10 -10 -10 -18q0 -15 31 -17v-27z" />
    <glyph glyph-name="uni1EC3" unicode="&#x1ec3;" horiz-adv-x="1221" 
d="M327 524v-415h692q42 0 59.5 13t26.5 52h28v-238h-28q-9 38 -26 51t-59 13h-900v27q39 10 51.5 27.5t12.5 58.5v894q0 42 -13 59t-51 27v27h893q42 0 59 13t27 51h27v-238h-27q-10 39 -27 52t-59 13h-686v-378h437q42 0 59 13t27 51h27v-238h-27q-10 39 -27.5 52
t-58.5 13h-437zM969 1430h-139v52q25 1 23 6q-1 26 17 61q10 20 18.5 32t51.5 63q25 30 25 54q0 22 -11 36q-20 26 -57 26q-40 0 -72 -31q-14 -13 -14 -20q0 1 15 -21l-38 -36l-103 111l36 34q23 -13 21 -11q77 65 164 65q74 0 122 -47q42 -42 42 -103q0 -46 -26 -83
q-13 -18 -57 -62q-20 -20 -30.5 -35.5t-10.5 -38.5l23 -2v-50zM520 1246h-210v27q26 1 37 7.5t36 34.5l146 149q12 12 12 25q0 17 -35 17v27h262v-27q-33 -4 -33 -18q0 -11 18 -28l169 -167q18 -19 48 -20v-27h-235v27q33 3 33 15q0 6 -17 23l-124 131l-128 -134
q-10 -10 -10 -17q0 -16 31 -18v-27z" />
    <glyph glyph-name="uni1EC4" unicode="&#x1ec4;" horiz-adv-x="1474" 
d="M371 637v-507h875q42 0 59.5 13t26.5 51h32v-258h-31q-10 38 -27.5 51t-59.5 13h-1096v32q39 10 51.5 27t12.5 59v1129q0 42 -13 59t-51 27v32h1083q42 0 59 13t27 52h32v-258h-32q-9 37 -26.5 50t-59.5 13h-862v-468h565q42 0 59.5 13t26.5 51h32v-258h-32
q-9 38 -26.5 51t-59.5 13h-565zM1003 2009l130 -84l-14 -23q-14 6 -22 6q-12 0 -25 -18q-64 -95 -138 -95q-36 0 -78 15l-144 53q-18 7 -40 7q-20 0 -38 -16t-19 -35q-1 -10 13 -28l-15 -18l-132 90l13 18q14 -4 21 -4q18 0 35 23q58 84 148 84q28 0 58 -11l145 -55
q24 -9 47 -9q20 0 37.5 16t17.5 35q0 14 -16 30zM651 1478h-210v27q26 1 37 7.5t36 34.5l146 149q12 12 12 25q0 17 -35 17v27h262v-27q-33 -4 -33 -18q0 -11 18 -28l169 -167q18 -19 48 -20v-27h-235v27q33 3 33 15q0 6 -17 23l-124 131l-128 -134q-10 -10 -10 -18
q0 -15 31 -17v-27z" />
    <glyph glyph-name="uni1EC5" unicode="&#x1ec5;" horiz-adv-x="1221" 
d="M327 524v-415h692q42 0 59.5 13t26.5 52h28v-238h-28q-9 38 -26 51t-59 13h-900v27q39 10 51.5 27.5t12.5 58.5v894q0 42 -13 59t-51 27v27h893q42 0 59 13t27 51h27v-238h-27q-10 39 -27 52t-59 13h-686v-378h437q42 0 59 13t27 51h27v-238h-27q-10 39 -27.5 52
t-58.5 13h-437zM887 1792l130 -84l-14 -23q-14 6 -22 6q-12 0 -25 -18q-64 -95 -138 -95q-36 0 -78 15l-144 53q-18 7 -40 7q-20 0 -38 -16t-19 -35q-1 -10 13 -28l-15 -18l-132 90l13 18q14 -4 21 -4q18 0 35 23q58 84 148 84q28 0 58 -11l145 -55q24 -9 47 -9
q20 0 37.5 16t17.5 35q0 14 -16 30zM520 1246h-210v27q26 1 37 7.5t36 34.5l146 149q12 12 12 25q0 17 -35 17v27h262v-27q-33 -4 -33 -18q0 -11 18 -28l169 -167q18 -19 48 -20v-27h-235v27q33 3 33 15q0 6 -17 23l-124 131l-128 -134q-10 -10 -10 -17q0 -16 31 -18v-27z
" />
    <glyph glyph-name="uni1EC6" unicode="&#x1ec6;" horiz-adv-x="1474" 
d="M371 637v-507h875q42 0 59.5 13t26.5 51h32v-258h-31q-10 38 -27.5 51t-59.5 13h-1096v32q39 10 51.5 27t12.5 59v1129q0 42 -13 59t-51 27v32h1083q42 0 59 13t27 52h32v-258h-32q-9 37 -26.5 50t-59.5 13h-862v-468h565q42 0 59.5 13t26.5 51h32v-258h-32
q-9 38 -26.5 51t-59.5 13h-565zM754 -175q39 0 66 -27t27 -67q0 -38 -27.5 -65t-65.5 -27t-65.5 27.5t-27.5 65.5q0 39 27 65.5t66 27.5zM651 1478h-210v27q26 1 37 7.5t36 34.5l146 149q12 12 12 25q0 17 -35 17v27h262v-27q-33 -4 -33 -18q0 -11 18 -28l169 -167
q18 -19 48 -20v-27h-235v27q33 3 33 15q0 6 -17 23l-124 131l-128 -134q-10 -10 -10 -18q0 -15 31 -17v-27z" />
    <glyph glyph-name="uni1EC7" unicode="&#x1ec7;" horiz-adv-x="1221" 
d="M327 524v-415h692q42 0 59.5 13t26.5 52h28v-238h-28q-9 38 -26 51t-59 13h-900v27q39 10 51.5 27.5t12.5 58.5v894q0 42 -13 59t-51 27v27h893q42 0 59 13t27 51h27v-238h-27q-10 39 -27 52t-59 13h-686v-378h437q42 0 59 13t27 51h27v-238h-27q-10 39 -27.5 52
t-58.5 13h-437zM639 -175q39 0 66 -27t27 -67q0 -38 -27.5 -65t-65.5 -27t-65.5 27.5t-27.5 65.5q0 39 27 65.5t66 27.5zM520 1246h-210v27q26 1 37 7.5t36 34.5l146 149q12 12 12 25q0 17 -35 17v27h262v-27q-33 -4 -33 -18q0 -11 18 -28l169 -167q18 -19 48 -20v-27h-235
v27q33 3 33 15q0 6 -17 23l-124 131l-128 -134q-10 -10 -10 -17q0 -16 31 -18v-27z" />
    <glyph glyph-name="uni1EC8" unicode="&#x1ec8;" horiz-adv-x="586" 
d="M215 118v1129q0 42 -13 59t-51 27v32h285v-32q-38 -9 -51 -26.5t-13 -59.5v-1129q0 -42 12.5 -59t51.5 -27v-32h-285v32q39 10 51.5 27t12.5 59zM365 1421h-139v52q25 1 23 6q-1 26 17 61q10 20 18.5 32t51.5 63q25 30 25 54q0 22 -11 36q-20 26 -57 26q-40 0 -72 -31
q-14 -13 -14 -20q0 1 15 -21l-38 -36l-103 111l36 34q23 -13 21 -11q77 65 164 65q74 0 122 -47q42 -42 42 -103q0 -46 -26 -83q-13 -18 -57 -62q-20 -20 -30.5 -35.5t-10.5 -38.5l23 -2v-50z" />
    <glyph glyph-name="uni1EC9" unicode="&#x1ec9;" horiz-adv-x="512" 
d="M184 113v894q0 42 -13 59t-51 27v27h271v-27q-38 -10 -51 -27t-13 -59v-894q0 -41 13 -58.5t51 -27.5v-27h-271v27q38 10 51 27.5t13 58.5zM321 1189h-139v52q25 1 23 6q-1 26 17 61q10 20 18.5 32t51.5 63q25 30 25 54q0 22 -11 36q-20 26 -57 26q-40 0 -72 -31
q-14 -13 -14 -20q0 1 15 -21l-38 -36l-103 111l36 34q23 -13 21 -11q77 65 164 65q74 0 122 -47q42 -42 42 -103q0 -46 -26 -83q-13 -18 -57 -62q-20 -20 -30.5 -35.5t-10.5 -38.5l23 -2v-50z" />
    <glyph glyph-name="uni1ECA" unicode="&#x1eca;" horiz-adv-x="586" 
d="M215 118v1129q0 42 -13 59t-51 27v32h285v-32q-38 -9 -51 -26.5t-13 -59.5v-1129q0 -42 12.5 -59t51.5 -27v-32h-285v32q39 10 51.5 27t12.5 59zM294 -175q39 0 66 -27t27 -67q0 -38 -27.5 -65t-65.5 -27t-65.5 27.5t-27.5 65.5q0 39 27 65.5t66 27.5z" />
    <glyph glyph-name="uni1ECB" unicode="&#x1ecb;" horiz-adv-x="512" 
d="M184 113v894q0 42 -13 59t-51 27v27h271v-27q-38 -10 -51 -27t-13 -59v-894q0 -41 13 -58.5t51 -27.5v-27h-271v27q38 10 51 27.5t13 58.5zM256 -175q39 0 66 -27t27 -67q0 -38 -27.5 -65t-65.5 -27t-65.5 27.5t-27.5 65.5q0 39 27 65.5t66 27.5z" />
    <glyph glyph-name="uni1ECC" unicode="&#x1ecc;" 
d="M930 1389q361 0 582 -189q124 -105 186 -257q51 -125 51 -269q0 -195 -111 -365q-122 -188 -339 -271q-162 -62 -367 -62q-359 0 -579 189q-123 106 -186 257q-51 124 -51 261q0 203 110 374q120 185 340 270q154 59 364 62zM930 1252q-307 0 -486 -172
q-164 -158 -164 -397q0 -240 164 -398q178 -172 488 -172q311 0 490 172q163 158 163 390q0 251 -163 405q-98 92 -210 129q-124 42 -282 43zM933 -175q39 0 66 -27t27 -67q0 -38 -27.5 -65t-65.5 -27t-65.5 27.5t-27.5 65.5q0 39 27 65.5t66 27.5z" />
    <glyph glyph-name="uni1ECD" unicode="&#x1ecd;" horiz-adv-x="1536" 
d="M766 1144q299 0 482 -156q195 -165 195 -436q0 -169 -96 -310q-181 -266 -579 -266q-297 0 -480 156q-195 166 -195 428q0 177 95 318q101 149 283 217q125 47 295 49zM766 1028q-244 0 -393 -150q-130 -130 -130 -318t130 -318q149 -150 395 -150t395 150
q130 130 130 312q0 197 -130 324q-150 148 -397 150zM768 -175q39 0 66 -27t27 -67q0 -38 -27.5 -65t-65.5 -27t-65.5 27.5t-27.5 65.5q0 39 27 65.5t66 27.5z" />
    <glyph glyph-name="uni1ECE" unicode="&#x1ece;" 
d="M930 1389q361 0 582 -189q124 -105 186 -257q51 -125 51 -269q0 -195 -111 -365q-122 -188 -339 -271q-162 -62 -367 -62q-359 0 -579 189q-123 106 -186 257q-51 124 -51 261q0 203 110 374q120 185 340 270q154 59 364 62zM930 1252q-307 0 -486 -172
q-164 -158 -164 -397q0 -240 164 -398q178 -172 488 -172q311 0 490 172q163 158 163 390q0 251 -163 405q-98 92 -210 129q-124 42 -282 43zM1024 1421h-140v52q26 1 24 6q-1 26 17 61q9 20 18 32t52 63q25 30 25 54q0 22 -11 36q-20 26 -57 26q-40 0 -72 -31
q-15 -13 -15 -20q0 1 15 -21l-37 -36l-103 111l36 34q22 -13 21 -11q77 65 163 65q74 0 122 -47q43 -42 43 -103q0 -46 -27 -83q-12 -18 -56 -62q-20 -20 -30.5 -35.5t-10.5 -38.5l23 -2v-50z" />
    <glyph glyph-name="uni1ECF" unicode="&#x1ecf;" horiz-adv-x="1536" 
d="M766 1144q299 0 482 -156q195 -165 195 -436q0 -169 -96 -310q-181 -266 -579 -266q-297 0 -480 156q-195 166 -195 428q0 177 95 318q101 149 283 217q125 47 295 49zM766 1028q-244 0 -393 -150q-130 -130 -130 -318t130 -318q149 -150 395 -150t395 150
q130 130 130 312q0 197 -130 324q-150 148 -397 150zM840 1189h-139v52q25 1 23 6q-1 26 17 61q10 20 18.5 32t51.5 63q25 30 25 54q0 22 -11 36q-20 26 -57 26q-40 0 -72 -31q-14 -13 -14 -20q0 1 15 -21l-38 -36l-103 111l36 34q23 -13 21 -11q77 65 164 65q74 0 122 -47
q42 -42 42 -103q0 -46 -26 -83q-13 -18 -57 -62q-20 -20 -30.5 -35.5t-10.5 -38.5l23 -2v-50z" />
    <glyph glyph-name="uni1ED0" unicode="&#x1ed0;" 
d="M930 1389q361 0 582 -189q124 -105 186 -257q51 -125 51 -269q0 -195 -111 -365q-122 -188 -339 -271q-162 -62 -367 -62q-359 0 -579 189q-123 106 -186 257q-51 124 -51 261q0 203 110 374q120 185 340 270q154 59 364 62zM930 1252q-307 0 -486 -172
q-164 -158 -164 -397q0 -240 164 -398q178 -172 488 -172q311 0 490 172q163 158 163 390q0 251 -163 405q-98 92 -210 129q-124 42 -282 43zM1444 1973v-27q-34 -3 -51 -28l-129 -172q-6 -9 -6 -18q0 -15 21 -15h4v-27h-173v27q22 0 30 6t20 30l76 163q3 6 3 12
q0 19 -27 22v27h232zM819 1478h-210v27q26 1 37 7.5t36 34.5l146 149q12 12 12 25q0 17 -35 17v27h262v-27q-33 -4 -33 -18q0 -11 18 -28l169 -167q18 -19 48 -20v-27h-235v27q33 3 33 15q0 6 -17 23l-124 131l-128 -134q-10 -10 -10 -18q0 -15 31 -17v-27z" />
    <glyph glyph-name="uni1ED1" unicode="&#x1ed1;" horiz-adv-x="1536" 
d="M766 1144q299 0 482 -156q195 -165 195 -436q0 -169 -96 -310q-181 -266 -579 -266q-297 0 -480 156q-195 166 -195 428q0 177 95 318q101 149 283 217q125 47 295 49zM766 1028q-244 0 -393 -150q-130 -130 -130 -318t130 -318q149 -150 395 -150t395 150
q130 130 130 312q0 197 -130 324q-150 148 -397 150zM1289 1747v-27q-34 -3 -51 -27l-129 -173q-6 -9 -6 -18q0 -15 21 -15h4v-27h-173v27q22 0 30 6t20 30l76 163q3 6 3 12q0 19 -27 22v27h232zM655 1246h-210v27q26 1 37 7.5t36 34.5l146 149q12 12 12 25q0 17 -35 17v27
h262v-27q-33 -4 -33 -18q0 -11 18 -28l169 -167q18 -19 48 -20v-27h-235v27q33 3 33 15q0 6 -17 23l-124 131l-128 -134q-10 -10 -10 -17q0 -16 31 -18v-27z" />
    <glyph glyph-name="uni1ED2" unicode="&#x1ed2;" 
d="M930 1389q361 0 582 -189q124 -105 186 -257q51 -125 51 -269q0 -195 -111 -365q-122 -188 -339 -271q-162 -62 -367 -62q-359 0 -579 189q-123 106 -186 257q-51 124 -51 261q0 203 110 374q120 185 340 270q154 59 364 62zM930 1252q-307 0 -486 -172
q-164 -158 -164 -397q0 -240 164 -398q178 -172 488 -172q311 0 490 172q163 158 163 390q0 251 -163 405q-98 92 -210 129q-124 42 -282 43zM963 1970h232v-27q-27 -3 -27 -22q0 -6 3 -12l77 -163q11 -24 19 -30t30 -6v-27h-173v27h5q20 0 20 15q0 9 -6 18l-129 172
q-17 25 -51 28v27zM819 1478h-210v27q26 1 37 7.5t36 34.5l146 149q12 12 12 25q0 17 -35 17v27h262v-27q-33 -4 -33 -18q0 -11 18 -28l169 -167q18 -19 48 -20v-27h-235v27q33 3 33 15q0 6 -17 23l-124 131l-128 -134q-10 -10 -10 -18q0 -15 31 -17v-27z" />
    <glyph glyph-name="uni1ED3" unicode="&#x1ed3;" horiz-adv-x="1536" 
d="M766 1144q299 0 482 -156q195 -165 195 -436q0 -169 -96 -310q-181 -266 -579 -266q-297 0 -480 156q-195 166 -195 428q0 177 95 318q101 149 283 217q125 47 295 49zM766 1028q-244 0 -393 -150q-130 -130 -130 -318t130 -318q149 -150 395 -150t395 150
q130 130 130 312q0 197 -130 324q-150 148 -397 150zM795 1738h232v-27q-27 -3 -27 -22q0 -6 3 -12l77 -163q11 -24 19 -30t30 -6v-27h-173v27h5q20 0 20 15q0 9 -6 18l-129 173q-17 24 -51 27v27zM655 1246h-210v27q26 1 37 7.5t36 34.5l146 149q12 12 12 25q0 17 -35 17
v27h262v-27q-33 -4 -33 -18q0 -11 18 -28l169 -167q18 -19 48 -20v-27h-235v27q33 3 33 15q0 6 -17 23l-124 131l-128 -134q-10 -10 -10 -17q0 -16 31 -18v-27z" />
    <glyph glyph-name="uni1ED4" unicode="&#x1ed4;" 
d="M930 1389q361 0 582 -189q124 -105 186 -257q51 -125 51 -269q0 -195 -111 -365q-122 -188 -339 -271q-162 -62 -367 -62q-359 0 -579 189q-123 106 -186 257q-51 124 -51 261q0 203 110 374q120 185 340 270q154 59 364 62zM930 1252q-307 0 -486 -172
q-164 -158 -164 -397q0 -240 164 -398q178 -172 488 -172q311 0 490 172q163 158 163 390q0 251 -163 405q-98 92 -210 129q-124 42 -282 43zM1274 1671h-140v52q26 1 24 6q-1 26 17 61q9 20 18 32t52 63q25 30 25 54q0 22 -11 36q-20 26 -57 26q-40 0 -72 -31
q-15 -13 -15 -20q0 1 15 -21l-37 -36l-103 111l36 34q22 -13 21 -11q77 65 163 65q74 0 122 -47q43 -42 43 -103q0 -46 -27 -83q-12 -18 -56 -62q-20 -20 -30.5 -35.5t-10.5 -38.5l23 -2v-50zM819 1478h-210v27q26 1 37 7.5t36 34.5l146 149q12 12 12 25q0 17 -35 17v27h262
v-27q-33 -4 -33 -18q0 -11 18 -28l169 -167q18 -19 48 -20v-27h-235v27q33 3 33 15q0 6 -17 23l-124 131l-128 -134q-10 -10 -10 -18q0 -15 31 -17v-27z" />
    <glyph glyph-name="uni1ED5" unicode="&#x1ed5;" horiz-adv-x="1536" 
d="M766 1144q299 0 482 -156q195 -165 195 -436q0 -169 -96 -310q-181 -266 -579 -266q-297 0 -480 156q-195 166 -195 428q0 177 95 318q101 149 283 217q125 47 295 49zM766 1028q-244 0 -393 -150q-130 -130 -130 -318t130 -318q149 -150 395 -150t395 150
q130 130 130 312q0 197 -130 324q-150 148 -397 150zM1099 1448h-139v52q25 1 23 6q-1 26 17 61q10 20 18.5 32t51.5 63q25 30 25 54q0 22 -11 36q-20 26 -57 26q-40 0 -72 -31q-14 -13 -14 -20q0 1 15 -21l-38 -36l-103 111l36 34q23 -13 21 -11q77 65 164 65q74 0 122 -47
q42 -42 42 -103q0 -46 -26 -83q-13 -18 -57 -62q-20 -20 -30.5 -35.5t-10.5 -38.5l23 -2v-50zM655 1246h-210v27q26 1 37 7.5t36 34.5l146 149q12 12 12 25q0 17 -35 17v27h262v-27q-33 -4 -33 -18q0 -11 18 -28l169 -167q18 -19 48 -20v-27h-235v27q33 3 33 15q0 6 -17 23
l-124 131l-128 -134q-10 -10 -10 -17q0 -16 31 -18v-27z" />
    <glyph glyph-name="uni1ED6" unicode="&#x1ed6;" 
d="M930 1389q361 0 582 -189q124 -105 186 -257q51 -125 51 -269q0 -195 -111 -365q-122 -188 -339 -271q-162 -62 -367 -62q-359 0 -579 189q-123 106 -186 257q-51 124 -51 261q0 203 110 374q120 185 340 270q154 59 364 62zM930 1252q-307 0 -486 -172
q-164 -158 -164 -397q0 -240 164 -398q178 -172 488 -172q311 0 490 172q163 158 163 390q0 251 -163 405q-98 92 -210 129q-124 42 -282 43zM1160 2008l130 -84l-14 -23q-14 6 -22 6q-12 0 -25 -18q-64 -95 -138 -95q-36 0 -78 15l-144 53q-18 7 -40 7q-20 0 -38 -16
t-19 -35q-1 -10 13 -28l-15 -18l-132 90l13 18q14 -4 21 -4q18 0 35 23q58 84 148 84q28 0 58 -11l145 -55q24 -9 47 -9q20 0 37.5 16t17.5 35q0 14 -16 30zM819 1478h-210v27q26 1 37 7.5t36 34.5l146 149q12 12 12 25q0 17 -35 17v27h262v-27q-33 -4 -33 -18q0 -11 18 -28
l169 -167q18 -19 48 -20v-27h-235v27q33 3 33 15q0 6 -17 23l-124 131l-128 -134q-10 -10 -10 -18q0 -15 31 -17v-27z" />
    <glyph glyph-name="uni1ED7" unicode="&#x1ed7;" horiz-adv-x="1536" 
d="M766 1144q299 0 482 -156q195 -165 195 -436q0 -169 -96 -310q-181 -266 -579 -266q-297 0 -480 156q-195 166 -195 428q0 177 95 318q101 149 283 217q125 47 295 49zM766 1028q-244 0 -393 -150q-130 -130 -130 -318t130 -318q149 -150 395 -150t395 150
q130 130 130 312q0 197 -130 324q-150 148 -397 150zM1020 1795l130 -84l-14 -23q-14 6 -22 6q-12 0 -25 -18q-64 -96 -138 -96q-35 0 -78 16l-144 53q-19 7 -40 7q-20 0 -38.5 -16.5t-18.5 -34.5q0 -11 13 -28l-15 -18l-132 90l13 18q13 -4 21 -4q18 0 35 23q57 84 148 84
q27 0 58 -12l145 -54q25 -10 47 -10q20 0 37.5 16t17.5 35q0 14 -16 31zM655 1246h-210v27q26 1 37 7.5t36 34.5l146 149q12 12 12 25q0 17 -35 17v27h262v-27q-33 -4 -33 -18q0 -11 18 -28l169 -167q18 -19 48 -20v-27h-235v27q33 3 33 15q0 6 -17 23l-124 131l-128 -134
q-10 -10 -10 -17q0 -16 31 -18v-27z" />
    <glyph glyph-name="uni1ED8" unicode="&#x1ed8;" 
d="M930 1389q361 0 582 -189q124 -105 186 -257q51 -125 51 -269q0 -195 -111 -365q-122 -188 -339 -271q-162 -62 -367 -62q-359 0 -579 189q-123 106 -186 257q-51 124 -51 261q0 203 110 374q120 185 340 270q154 59 364 62zM930 1252q-307 0 -486 -172
q-164 -158 -164 -397q0 -240 164 -398q178 -172 488 -172q311 0 490 172q163 158 163 390q0 251 -163 405q-98 92 -210 129q-124 42 -282 43zM933 -175q39 0 66 -27t27 -67q0 -38 -27.5 -65t-65.5 -27t-65.5 27.5t-27.5 65.5q0 39 27 65.5t66 27.5zM819 1478h-210v27
q26 1 37 7.5t36 34.5l146 149q12 12 12 25q0 17 -35 17v27h262v-27q-33 -4 -33 -18q0 -11 18 -28l169 -167q18 -19 48 -20v-27h-235v27q33 3 33 15q0 6 -17 23l-124 131l-128 -134q-10 -10 -10 -18q0 -15 31 -17v-27z" />
    <glyph glyph-name="uni1ED9" unicode="&#x1ed9;" horiz-adv-x="1536" 
d="M766 1144q299 0 482 -156q195 -165 195 -436q0 -169 -96 -310q-181 -266 -579 -266q-297 0 -480 156q-195 166 -195 428q0 177 95 318q101 149 283 217q125 47 295 49zM766 1028q-244 0 -393 -150q-130 -130 -130 -318t130 -318q149 -150 395 -150t395 150
q130 130 130 312q0 197 -130 324q-150 148 -397 150zM768 -175q39 0 66 -27t27 -67q0 -38 -27.5 -65t-65.5 -27t-65.5 27.5t-27.5 65.5q0 39 27 65.5t66 27.5zM655 1246h-210v27q26 1 37 7.5t36 34.5l146 149q12 12 12 25q0 17 -35 17v27h262v-27q-33 -4 -33 -18
q0 -11 18 -28l169 -167q18 -19 48 -20v-27h-235v27q33 3 33 15q0 6 -17 23l-124 131l-128 -134q-10 -10 -10 -17q0 -16 31 -18v-27z" />
    <glyph glyph-name="uni1EDA" unicode="&#x1eda;" 
d="M930 1252q-307 0 -486 -172q-164 -158 -164 -397q0 -240 164 -398q178 -172 488 -172q311 0 490 172q163 158 163 390q0 251 -163 405q-98 92 -210 129q-124 42 -282 43zM1168 1765v-27q-34 -3 -51 -28l-129 -172q-6 -9 -6 -18q0 -15 21 -15h4v-27h-173v27q22 0 30 6
t20 30l76 163q3 6 3 12q0 19 -27 22v27h232zM1515 1197q122 -104 183 -254q51 -125 51 -269q0 -195 -111 -365q-122 -188 -339 -271q-162 -62 -367 -62q-359 0 -579 189q-123 106 -186 257q-51 124 -51 261q0 203 110 374q120 185 340 270q154 59 364 62q330 0 543 -158
q39 21 63 44q35 34 54 91q-28 -2 -43 0q-45 7 -68.5 40.5t-15.5 80.5q7 49 41 75.5t79 19.5q52 -8 76 -55t13 -118q-13 -88 -64 -144q-35 -38 -93 -68z" />
    <glyph glyph-name="uni1EDB" unicode="&#x1edb;" horiz-adv-x="1536" 
d="M766 1028q-244 0 -393 -150q-130 -130 -130 -318t130 -318q149 -150 395 -150t395 150q130 130 130 312q0 197 -130 324q-150 148 -397 150zM1003 1533v-27q-34 -3 -51 -27l-129 -173q-6 -9 -6 -18q0 -15 21 -15h4v-27h-173v27q22 0 30 6t20 30l76 163q3 6 3 12
q0 19 -27 22v27h232zM1250 987q193 -165 193 -435q0 -169 -96 -310q-181 -266 -579 -266q-297 0 -480 156q-195 166 -195 428q0 177 95 318q101 149 283 217q125 47 295 49q266 0 440 -124q16 11 28 23q35 34 54 91q-28 -2 -43 0q-45 7 -68.5 40.5t-15.5 80.5q7 49 41 75.5
t79 19.5q52 -8 76 -55t13 -118q-13 -88 -64 -144q-23 -25 -56 -46z" />
    <glyph glyph-name="uni1EDC" unicode="&#x1edc;" 
d="M930 1252q-307 0 -486 -172q-164 -158 -164 -397q0 -240 164 -398q178 -172 488 -172q311 0 490 172q163 158 163 390q0 251 -163 405q-98 92 -210 129q-124 42 -282 43zM704 1765h232v-27q-27 -3 -27 -22q0 -6 3 -12l77 -163q11 -24 19 -30t30 -6v-27h-173v27h5
q20 0 20 15q0 9 -6 18l-129 172q-17 25 -51 28v27zM1515 1197q122 -104 183 -254q51 -125 51 -269q0 -195 -111 -365q-122 -188 -339 -271q-162 -62 -367 -62q-359 0 -579 189q-123 106 -186 257q-51 124 -51 261q0 203 110 374q120 185 340 270q154 59 364 62
q330 0 543 -158q39 21 63 44q35 34 54 91q-28 -2 -43 0q-45 7 -68.5 40.5t-15.5 80.5q7 49 41 75.5t79 19.5q52 -8 76 -55t13 -118q-13 -88 -64 -144q-35 -38 -93 -68z" />
    <glyph glyph-name="uni1EDD" unicode="&#x1edd;" horiz-adv-x="1536" 
d="M766 1028q-244 0 -393 -150q-130 -130 -130 -318t130 -318q149 -150 395 -150t395 150q130 130 130 312q0 197 -130 324q-150 148 -397 150zM539 1533h232v-27q-27 -3 -27 -22q0 -6 3 -12l77 -163q11 -24 19 -30t30 -6v-27h-173v27h5q20 0 20 15q0 9 -6 18l-129 173
q-17 24 -51 27v27zM1250 987q193 -165 193 -435q0 -169 -96 -310q-181 -266 -579 -266q-297 0 -480 156q-195 166 -195 428q0 177 95 318q101 149 283 217q125 47 295 49q266 0 440 -124q16 11 28 23q35 34 54 91q-28 -2 -43 0q-45 7 -68.5 40.5t-15.5 80.5q7 49 41 75.5
t79 19.5q52 -8 76 -55t13 -118q-13 -88 -64 -144q-23 -25 -56 -46z" />
    <glyph glyph-name="uni1EDE" unicode="&#x1ede;" 
d="M930 1252q-307 0 -486 -172q-164 -158 -164 -397q0 -240 164 -398q178 -172 488 -172q311 0 490 172q163 158 163 390q0 251 -163 405q-98 92 -210 129q-124 42 -282 43zM1024 1421h-140v52q26 1 24 6q-1 26 17 61q9 20 18 32t52 63q25 30 25 54q0 22 -11 36
q-20 26 -57 26q-40 0 -72 -31q-15 -13 -15 -20q0 1 15 -21l-37 -36l-103 111l36 34q22 -13 21 -11q77 65 163 65q74 0 122 -47q43 -42 43 -103q0 -46 -27 -83q-12 -18 -56 -62q-20 -20 -30.5 -35.5t-10.5 -38.5l23 -2v-50zM1515 1197q122 -104 183 -254q51 -125 51 -269
q0 -195 -111 -365q-122 -188 -339 -271q-162 -62 -367 -62q-359 0 -579 189q-123 106 -186 257q-51 124 -51 261q0 203 110 374q120 185 340 270q154 59 364 62q330 0 543 -158q39 21 63 44q35 34 54 91q-28 -2 -43 0q-45 7 -68.5 40.5t-15.5 80.5q7 49 41 75.5t79 19.5
q52 -8 76 -55t13 -118q-13 -88 -64 -144q-35 -38 -93 -68z" />
    <glyph glyph-name="uni1EDF" unicode="&#x1edf;" horiz-adv-x="1536" 
d="M766 1028q-244 0 -393 -150q-130 -130 -130 -318t130 -318q149 -150 395 -150t395 150q130 130 130 312q0 197 -130 324q-150 148 -397 150zM840 1189h-139v52q25 1 23 6q-1 26 17 61q10 20 18.5 32t51.5 63q25 30 25 54q0 22 -11 36q-20 26 -57 26q-40 0 -72 -31
q-14 -13 -14 -20q0 1 15 -21l-38 -36l-103 111l36 34q23 -13 21 -11q77 65 164 65q74 0 122 -47q42 -42 42 -103q0 -46 -26 -83q-13 -18 -57 -62q-20 -20 -30.5 -35.5t-10.5 -38.5l23 -2v-50zM1250 987q193 -165 193 -435q0 -169 -96 -310q-181 -266 -579 -266
q-297 0 -480 156q-195 166 -195 428q0 177 95 318q101 149 283 217q125 47 295 49q266 0 440 -124q16 11 28 23q35 34 54 91q-28 -2 -43 0q-45 7 -68.5 40.5t-15.5 80.5q7 49 41 75.5t79 19.5q52 -8 76 -55t13 -118q-13 -88 -64 -144q-23 -25 -56 -46z" />
    <glyph glyph-name="uni1EE0" unicode="&#x1ee0;" 
d="M930 1252q-307 0 -486 -172q-164 -158 -164 -397q0 -240 164 -398q178 -172 488 -172q311 0 490 172q163 158 163 390q0 251 -163 405q-98 92 -210 129q-124 42 -282 43zM1142 1733l130 -84l-14 -23q-14 6 -22 6q-12 0 -25 -18q-64 -95 -138 -95q-36 0 -78 15l-144 53
q-18 7 -40 7q-20 0 -38 -16t-19 -35q-1 -10 13 -28l-15 -18l-132 90l13 18q14 -4 21 -4q18 0 35 23q58 84 148 84q28 0 58 -11l145 -55q24 -9 47 -9q20 0 37.5 16t17.5 35q0 14 -16 30zM1515 1197q122 -104 183 -254q51 -125 51 -269q0 -195 -111 -365q-122 -188 -339 -271
q-162 -62 -367 -62q-359 0 -579 189q-123 106 -186 257q-51 124 -51 261q0 203 110 374q120 185 340 270q154 59 364 62q330 0 543 -158q39 21 63 44q35 34 54 91q-28 -2 -43 0q-45 7 -68.5 40.5t-15.5 80.5q7 49 41 75.5t79 19.5q52 -8 76 -55t13 -118q-13 -88 -64 -144
q-35 -38 -93 -68z" />
    <glyph glyph-name="uni1EE1" unicode="&#x1ee1;" horiz-adv-x="1536" 
d="M766 1028q-244 0 -393 -150q-130 -130 -130 -318t130 -318q149 -150 395 -150t395 150q130 130 130 312q0 197 -130 324q-150 148 -397 150zM977 1501l130 -84l-14 -23q-14 6 -22 6q-12 0 -25 -18q-64 -96 -138 -96q-35 0 -78 16l-144 53q-19 7 -40 7q-20 0 -38.5 -16.5
t-18.5 -34.5q0 -11 13 -28l-15 -18l-132 90l13 18q13 -4 21 -4q18 0 35 23q57 84 148 84q27 0 58 -12l145 -54q25 -10 47 -10q20 0 37.5 16t17.5 35q0 14 -16 31zM1250 987q193 -165 193 -435q0 -169 -96 -310q-181 -266 -579 -266q-297 0 -480 156q-195 166 -195 428
q0 177 95 318q101 149 283 217q125 47 295 49q266 0 440 -124q16 11 28 23q35 34 54 91q-28 -2 -43 0q-45 7 -68.5 40.5t-15.5 80.5q7 49 41 75.5t79 19.5q52 -8 76 -55t13 -118q-13 -88 -64 -144q-23 -25 -56 -46z" />
    <glyph glyph-name="uni1EE2" unicode="&#x1ee2;" 
d="M930 1252q-307 0 -486 -172q-164 -158 -164 -397q0 -240 164 -398q178 -172 488 -172q311 0 490 172q163 158 163 390q0 251 -163 405q-98 92 -210 129q-124 42 -282 43zM933 -175q39 0 66 -27t27 -67q0 -38 -27.5 -65t-65.5 -27t-65.5 27.5t-27.5 65.5q0 39 27 65.5
t66 27.5zM1515 1197q122 -104 183 -254q51 -125 51 -269q0 -195 -111 -365q-122 -188 -339 -271q-162 -62 -367 -62q-359 0 -579 189q-123 106 -186 257q-51 124 -51 261q0 203 110 374q120 185 340 270q154 59 364 62q330 0 543 -158q39 21 63 44q35 34 54 91q-28 -2 -43 0
q-45 7 -68.5 40.5t-15.5 80.5q7 49 41 75.5t79 19.5q52 -8 76 -55t13 -118q-13 -88 -64 -144q-35 -38 -93 -68z" />
    <glyph glyph-name="uni1EE3" unicode="&#x1ee3;" horiz-adv-x="1536" 
d="M766 1028q-244 0 -393 -150q-130 -130 -130 -318t130 -318q149 -150 395 -150t395 150q130 130 130 312q0 197 -130 324q-150 148 -397 150zM768 -175q39 0 66 -27t27 -67q0 -38 -27.5 -65t-65.5 -27t-65.5 27.5t-27.5 65.5q0 39 27 65.5t66 27.5zM1250 987
q193 -165 193 -435q0 -169 -96 -310q-181 -266 -579 -266q-297 0 -480 156q-195 166 -195 428q0 177 95 318q101 149 283 217q125 47 295 49q266 0 440 -124q16 11 28 23q35 34 54 91q-28 -2 -43 0q-45 7 -68.5 40.5t-15.5 80.5q7 49 41 75.5t79 19.5q52 -8 76 -55t13 -118
q-13 -88 -64 -144q-23 -25 -56 -46z" />
    <glyph glyph-name="uni1EE4" unicode="&#x1ee4;" horiz-adv-x="1617" 
d="M344 1247v-755q0 -134 14 -188.5t58 -94.5q107 -96 399 -96q318 0 417 113q33 38 44 90.5t11 175.5v755q0 41 -13 58.5t-51 27.5v32h271v-32q-38 -9 -51 -26.5t-13 -59.5v-786q0 -145 -28 -221q-52 -136 -195.5 -200t-397.5 -64q-380 0 -520 147q-57 59 -79.5 134.5
t-22.5 203.5v786q0 42 -13 59.5t-51 26.5v32h285v-32q-38 -10 -51 -27.5t-13 -58.5zM809 -175q39 0 66 -27t27 -67q0 -38 -27.5 -65t-65.5 -27t-65.5 27.5t-27.5 65.5q0 39 27 65.5t66 27.5z" />
    <glyph glyph-name="uni1EE5" unicode="&#x1ee5;" horiz-adv-x="1342" 
d="M305 1007v-575q0 -133 13 -183.5t57 -84.5q90 -72 308 -72q241 0 326 88q31 33 41 81.5t10 170.5v575q0 41 -13 58.5t-51 27.5v27h247v-27q-38 -10 -51 -27t-13 -59v-604q0 -154 -26 -217q-44 -108 -161 -159t-322 -51q-294 0 -412 109q-57 52 -76.5 117t-19.5 201v604
q0 42 -13 59t-51 27v27h271v-27q-38 -10 -51 -27.5t-13 -58.5zM671 -175q39 0 66 -27t27 -67q0 -38 -27.5 -65t-65.5 -27t-65.5 27.5t-27.5 65.5q0 39 27 65.5t66 27.5z" />
    <glyph glyph-name="uni1EE6" unicode="&#x1ee6;" horiz-adv-x="1617" 
d="M344 1247v-755q0 -134 14 -188.5t58 -94.5q107 -96 399 -96q318 0 417 113q33 38 44 90.5t11 175.5v755q0 41 -13 58.5t-51 27.5v32h271v-32q-38 -9 -51 -26.5t-13 -59.5v-786q0 -145 -28 -221q-52 -136 -195.5 -200t-397.5 -64q-380 0 -520 147q-57 59 -79.5 134.5
t-22.5 203.5v786q0 42 -13 59.5t-51 26.5v32h285v-32q-38 -10 -51 -27.5t-13 -58.5zM918 1421h-139v52q25 1 23 6q-1 26 17 61q10 20 18.5 32t51.5 63q25 30 25 54q0 22 -11 36q-20 26 -57 26q-40 0 -72 -31q-14 -13 -14 -20q0 1 15 -21l-38 -36l-103 111l36 34
q23 -13 21 -11q77 65 164 65q74 0 122 -47q42 -42 42 -103q0 -46 -26 -83q-13 -18 -57 -62q-20 -20 -30.5 -35.5t-10.5 -38.5l23 -2v-50z" />
    <glyph glyph-name="uni1EE7" unicode="&#x1ee7;" horiz-adv-x="1342" 
d="M305 1007v-575q0 -133 13 -183.5t57 -84.5q90 -72 308 -72q241 0 326 88q31 33 41 81.5t10 170.5v575q0 41 -13 58.5t-51 27.5v27h247v-27q-38 -10 -51 -27t-13 -59v-604q0 -154 -26 -217q-44 -108 -161 -159t-322 -51q-294 0 -412 109q-57 52 -76.5 117t-19.5 201v604
q0 42 -13 59t-51 27v27h271v-27q-38 -10 -51 -27.5t-13 -58.5zM760 1189h-139v52q25 1 23 6q-1 26 17 61q10 20 18.5 32t51.5 63q25 30 25 54q0 22 -11 36q-20 26 -57 26q-40 0 -72 -31q-14 -13 -14 -20q0 1 15 -21l-38 -36l-103 111l36 34q23 -13 21 -11q77 65 164 65
q74 0 122 -47q42 -42 42 -103q0 -46 -26 -83q-13 -18 -57 -62q-20 -20 -30.5 -35.5t-10.5 -38.5l23 -2v-50z" />
    <glyph glyph-name="uni1EE8" unicode="&#x1ee8;" horiz-adv-x="1617" 
d="M1030 1765v-27q-34 -3 -51 -28l-129 -172q-6 -9 -6 -18q0 -15 21 -15h4v-27h-173v27q22 0 30 6t20 30l76 163q3 6 3 12q0 19 -27 22v27h232zM1430 1183v-722q0 -145 -28 -221q-52 -136 -195.5 -200t-397.5 -64q-380 0 -520 147q-57 59 -79.5 134.5t-22.5 203.5v786
q0 42 -13 59.5t-51 26.5v32h285v-32q-38 -10 -51 -27.5t-13 -58.5v-755q0 -134 14 -188.5t58 -94.5q107 -96 399 -96q318 0 417 113q33 38 44 90.5t11 175.5v755q0 41 -13 58.5t-51 27.5v32h271v-32q-38 -9 -51 -26.5t-13 -59.5v-10q32 18 52 38q35 34 54 91q-28 -2 -43 0
q-45 7 -68.5 40.5t-15.5 80.5q7 49 41 75.5t79 19.5q52 -8 76 -55t13 -118q-13 -88 -64 -144q-44 -47 -124 -82z" />
    <glyph glyph-name="uni1EE9" unicode="&#x1ee9;" horiz-adv-x="1342" 
d="M903 1533v-27q-34 -3 -51 -27l-129 -173q-6 -9 -6 -18q0 -15 21 -15h4v-27h-173v27q22 0 30 6t20 30l76 163q3 6 3 12q0 19 -27 22v27h232zM1179 949v-546q0 -154 -26 -217q-44 -108 -161 -159t-322 -51q-294 0 -412 109q-57 52 -76.5 117t-19.5 201v604q0 42 -13 59
t-51 27v27h271v-27q-38 -10 -51 -27.5t-13 -58.5v-575q0 -133 13 -183.5t57 -84.5q90 -72 308 -72q241 0 326 88q31 33 41 81.5t10 170.5v575q0 41 -13 58.5t-51 27.5v27h247v-27q-38 -10 -51 -27t-13 -59v-4q34 19 55 40q35 34 54 91q-28 -2 -43 0q-45 7 -68.5 40.5
t-15.5 80.5q7 49 41 75.5t79 19.5q52 -8 76 -55t13 -118q-13 -88 -64 -144q-45 -48 -127 -84z" />
    <glyph glyph-name="uni1EEA" unicode="&#x1eea;" horiz-adv-x="1617" 
d="M587 1765h232v-27q-27 -3 -27 -22q0 -6 3 -12l77 -163q11 -24 19 -30t30 -6v-27h-173v27h5q20 0 20 15q0 9 -6 18l-129 172q-17 25 -51 28v27zM1430 1183v-722q0 -145 -28 -221q-52 -136 -195.5 -200t-397.5 -64q-380 0 -520 147q-57 59 -79.5 134.5t-22.5 203.5v786
q0 42 -13 59.5t-51 26.5v32h285v-32q-38 -10 -51 -27.5t-13 -58.5v-755q0 -134 14 -188.5t58 -94.5q107 -96 399 -96q318 0 417 113q33 38 44 90.5t11 175.5v755q0 41 -13 58.5t-51 27.5v32h271v-32q-38 -9 -51 -26.5t-13 -59.5v-10q32 18 52 38q35 34 54 91q-28 -2 -43 0
q-45 7 -68.5 40.5t-15.5 80.5q7 49 41 75.5t79 19.5q52 -8 76 -55t13 -118q-13 -88 -64 -144q-44 -47 -124 -82z" />
    <glyph glyph-name="uni1EEB" unicode="&#x1eeb;" horiz-adv-x="1342" 
d="M449 1533h232v-27q-27 -3 -27 -22q0 -6 3 -12l77 -163q11 -24 19 -30t30 -6v-27h-173v27h5q20 0 20 15q0 9 -6 18l-129 173q-17 24 -51 27v27zM1179 949v-546q0 -154 -26 -217q-44 -108 -161 -159t-322 -51q-294 0 -412 109q-57 52 -76.5 117t-19.5 201v604q0 42 -13 59
t-51 27v27h271v-27q-38 -10 -51 -27.5t-13 -58.5v-575q0 -133 13 -183.5t57 -84.5q90 -72 308 -72q241 0 326 88q31 33 41 81.5t10 170.5v575q0 41 -13 58.5t-51 27.5v27h247v-27q-38 -10 -51 -27t-13 -59v-4q34 19 55 40q35 34 54 91q-28 -2 -43 0q-45 7 -68.5 40.5
t-15.5 80.5q7 49 41 75.5t79 19.5q52 -8 76 -55t13 -118q-13 -88 -64 -144q-45 -48 -127 -84z" />
    <glyph glyph-name="uni1EEC" unicode="&#x1eec;" horiz-adv-x="1617" 
d="M918 1421h-139v52q25 1 23 6q-1 26 17 61q10 20 18.5 32t51.5 63q25 30 25 54q0 22 -11 36q-20 26 -57 26q-40 0 -72 -31q-14 -13 -14 -20q0 1 15 -21l-38 -36l-103 111l36 34q23 -13 21 -11q77 65 164 65q74 0 122 -47q42 -42 42 -103q0 -46 -26 -83q-13 -18 -57 -62
q-20 -20 -30.5 -35.5t-10.5 -38.5l23 -2v-50zM1430 1183v-722q0 -145 -28 -221q-52 -136 -195.5 -200t-397.5 -64q-380 0 -520 147q-57 59 -79.5 134.5t-22.5 203.5v786q0 42 -13 59.5t-51 26.5v32h285v-32q-38 -10 -51 -27.5t-13 -58.5v-755q0 -134 14 -188.5t58 -94.5
q107 -96 399 -96q318 0 417 113q33 38 44 90.5t11 175.5v755q0 41 -13 58.5t-51 27.5v32h271v-32q-38 -9 -51 -26.5t-13 -59.5v-10q32 18 52 38q35 34 54 91q-28 -2 -43 0q-45 7 -68.5 40.5t-15.5 80.5q7 49 41 75.5t79 19.5q52 -8 76 -55t13 -118q-13 -88 -64 -144
q-44 -47 -124 -82z" />
    <glyph glyph-name="uni1EED" unicode="&#x1eed;" horiz-adv-x="1342" 
d="M760 1189h-139v52q25 1 23 6q-1 26 17 61q10 20 18.5 32t51.5 63q25 30 25 54q0 22 -11 36q-20 26 -57 26q-40 0 -72 -31q-14 -13 -14 -20q0 1 15 -21l-38 -36l-103 111l36 34q23 -13 21 -11q77 65 164 65q74 0 122 -47q42 -42 42 -103q0 -46 -26 -83q-13 -18 -57 -62
q-20 -20 -30.5 -35.5t-10.5 -38.5l23 -2v-50zM1179 949v-546q0 -154 -26 -217q-44 -108 -161 -159t-322 -51q-294 0 -412 109q-57 52 -76.5 117t-19.5 201v604q0 42 -13 59t-51 27v27h271v-27q-38 -10 -51 -27.5t-13 -58.5v-575q0 -133 13 -183.5t57 -84.5q90 -72 308 -72
q241 0 326 88q31 33 41 81.5t10 170.5v575q0 41 -13 58.5t-51 27.5v27h247v-27q-38 -10 -51 -27t-13 -59v-4q34 19 55 40q35 34 54 91q-28 -2 -43 0q-45 7 -68.5 40.5t-15.5 80.5q7 49 41 75.5t79 19.5q52 -8 76 -55t13 -118q-13 -88 -64 -144q-45 -48 -127 -84z" />
    <glyph glyph-name="uni1EEE" unicode="&#x1eee;" horiz-adv-x="1617" 
d="M1021 1733l130 -84l-14 -23q-14 6 -22 6q-12 0 -25 -18q-64 -95 -138 -95q-36 0 -78 15l-144 53q-18 7 -40 7q-20 0 -38 -16t-19 -35q-1 -10 13 -28l-15 -18l-132 90l13 18q14 -4 21 -4q18 0 35 23q58 84 148 84q28 0 58 -11l145 -55q24 -9 47 -9q20 0 37.5 16t17.5 35
q0 14 -16 30zM1430 1183v-722q0 -145 -28 -221q-52 -136 -195.5 -200t-397.5 -64q-380 0 -520 147q-57 59 -79.5 134.5t-22.5 203.5v786q0 42 -13 59.5t-51 26.5v32h285v-32q-38 -10 -51 -27.5t-13 -58.5v-755q0 -134 14 -188.5t58 -94.5q107 -96 399 -96q318 0 417 113
q33 38 44 90.5t11 175.5v755q0 41 -13 58.5t-51 27.5v32h271v-32q-38 -9 -51 -26.5t-13 -59.5v-10q32 18 52 38q35 34 54 91q-28 -2 -43 0q-45 7 -68.5 40.5t-15.5 80.5q7 49 41 75.5t79 19.5q52 -8 76 -55t13 -118q-13 -88 -64 -144q-44 -47 -124 -82z" />
    <glyph glyph-name="uni1EEF" unicode="&#x1eef;" horiz-adv-x="1342" 
d="M914 1501l130 -84l-14 -23q-14 6 -22 6q-12 0 -25 -18q-64 -96 -138 -96q-35 0 -78 16l-144 53q-19 7 -40 7q-20 0 -38.5 -16.5t-18.5 -34.5q0 -11 13 -28l-15 -18l-132 90l13 18q13 -4 21 -4q18 0 35 23q57 84 148 84q27 0 58 -12l145 -54q25 -10 47 -10q20 0 37.5 16
t17.5 35q0 14 -16 31zM1179 949v-546q0 -154 -26 -217q-44 -108 -161 -159t-322 -51q-294 0 -412 109q-57 52 -76.5 117t-19.5 201v604q0 42 -13 59t-51 27v27h271v-27q-38 -10 -51 -27.5t-13 -58.5v-575q0 -133 13 -183.5t57 -84.5q90 -72 308 -72q241 0 326 88
q31 33 41 81.5t10 170.5v575q0 41 -13 58.5t-51 27.5v27h247v-27q-38 -10 -51 -27t-13 -59v-4q34 19 55 40q35 34 54 91q-28 -2 -43 0q-45 7 -68.5 40.5t-15.5 80.5q7 49 41 75.5t79 19.5q52 -8 76 -55t13 -118q-13 -88 -64 -144q-45 -48 -127 -84z" />
    <glyph glyph-name="uni1EF0" unicode="&#x1ef0;" horiz-adv-x="1617" 
d="M809 -175q39 0 66 -27t27 -67q0 -38 -27.5 -65t-65.5 -27t-65.5 27.5t-27.5 65.5q0 39 27 65.5t66 27.5zM1430 1183v-722q0 -145 -28 -221q-52 -136 -195.5 -200t-397.5 -64q-380 0 -520 147q-57 59 -79.5 134.5t-22.5 203.5v786q0 42 -13 59.5t-51 26.5v32h285v-32
q-38 -10 -51 -27.5t-13 -58.5v-755q0 -134 14 -188.5t58 -94.5q107 -96 399 -96q318 0 417 113q33 38 44 90.5t11 175.5v755q0 41 -13 58.5t-51 27.5v32h271v-32q-38 -9 -51 -26.5t-13 -59.5v-10q32 18 52 38q35 34 54 91q-28 -2 -43 0q-45 7 -68.5 40.5t-15.5 80.5
q7 49 41 75.5t79 19.5q52 -8 76 -55t13 -118q-13 -88 -64 -144q-44 -47 -124 -82z" />
    <glyph glyph-name="uni1EF1" unicode="&#x1ef1;" horiz-adv-x="1342" 
d="M671 -175q39 0 66 -27t27 -67q0 -38 -27.5 -65t-65.5 -27t-65.5 27.5t-27.5 65.5q0 39 27 65.5t66 27.5zM1179 949v-546q0 -154 -26 -217q-44 -108 -161 -159t-322 -51q-294 0 -412 109q-57 52 -76.5 117t-19.5 201v604q0 42 -13 59t-51 27v27h271v-27q-38 -10 -51 -27.5
t-13 -58.5v-575q0 -133 13 -183.5t57 -84.5q90 -72 308 -72q241 0 326 88q31 33 41 81.5t10 170.5v575q0 41 -13 58.5t-51 27.5v27h247v-27q-38 -10 -51 -27t-13 -59v-4q34 19 55 40q35 34 54 91q-28 -2 -43 0q-45 7 -68.5 40.5t-15.5 80.5q7 49 41 75.5t79 19.5
q52 -8 76 -55t13 -118q-13 -88 -64 -144q-45 -48 -127 -84z" />
    <glyph glyph-name="Ygrave" unicode="&#x1ef2;" horiz-adv-x="1333" 
d="M751 604v-486q0 -41 13 -58.5t51 -27.5v-32h-285v32q38 10 51 27t13 59v486l-441 578q-72 94 -99.5 119t-68.5 32v32h346v-32q-47 -12 -47 -39q0 -33 47 -97l347 -472l346 488q44 62 44 84q0 25 -44 36v32h322v-32q-49 -9 -84 -44q-72 -76 -93 -107zM471 1765h232v-27
q-27 -3 -27 -22q0 -6 3 -12l77 -163q11 -24 19 -30t30 -6v-27h-173v27h5q20 0 20 15q0 9 -6 18l-129 172q-17 25 -51 28v27z" />
    <glyph glyph-name="ygrave" unicode="&#x1ef3;" horiz-adv-x="1114" 
d="M640 494v-381q0 -41 12.5 -58.5t51.5 -27.5v-27h-271v27q38 10 51 27.5t13 58.5v381l-345 450q-63 83 -93 110t-71 39v27h316v-27q-44 -7 -44 -38q0 -28 27 -63l295 -387l267 386q28 41 28 62q0 34 -45 40v27h292v-27q-45 -15 -83 -51.5t-104 -128.5zM351 1533h232v-27
q-27 -3 -27 -22q0 -6 3 -12l77 -163q11 -24 19 -30t30 -6v-27h-173v27h5q20 0 20 15q0 9 -6 18l-129 173q-17 24 -51 27v27z" />
    <glyph glyph-name="uni1EF4" unicode="&#x1ef4;" horiz-adv-x="1333" 
d="M751 604v-486q0 -41 13 -58.5t51 -27.5v-32h-285v32q38 10 51 27t13 59v486l-441 578q-72 94 -99.5 119t-68.5 32v32h346v-32q-47 -12 -47 -39q0 -33 47 -97l347 -472l346 488q44 62 44 84q0 25 -44 36v32h322v-32q-49 -9 -84 -44q-72 -76 -93 -107zM684 -175
q39 0 66 -27t27 -67q0 -38 -27.5 -65t-65.5 -27t-65.5 27.5t-27.5 65.5q0 39 27 65.5t66 27.5z" />
    <glyph glyph-name="uni1EF5" unicode="&#x1ef5;" horiz-adv-x="1114" 
d="M640 494v-381q0 -41 12.5 -58.5t51.5 -27.5v-27h-271v27q38 10 51 27.5t13 58.5v381l-345 450q-63 83 -93 110t-71 39v27h316v-27q-44 -7 -44 -38q0 -28 27 -63l295 -387l267 386q28 41 28 62q0 34 -45 40v27h292v-27q-45 -15 -83 -51.5t-104 -128.5zM556 -175
q39 0 66 -27t27 -67q0 -38 -27.5 -65t-65.5 -27t-65.5 27.5t-27.5 65.5q0 39 27 65.5t66 27.5z" />
    <glyph glyph-name="uni1EF6" unicode="&#x1ef6;" horiz-adv-x="1333" 
d="M751 604v-486q0 -41 13 -58.5t51 -27.5v-32h-285v32q38 10 51 27t13 59v486l-441 578q-72 94 -99.5 119t-68.5 32v32h346v-32q-47 -12 -47 -39q0 -33 47 -97l347 -472l346 488q44 62 44 84q0 25 -44 36v32h322v-32q-49 -9 -84 -44q-72 -76 -93 -107zM759 1421h-139v52
q25 1 23 6q-1 26 17 61q10 20 18.5 32t51.5 63q25 30 25 54q0 22 -11 36q-20 26 -57 26q-40 0 -72 -31q-14 -13 -14 -20q0 1 15 -21l-38 -36l-103 111l36 34q23 -13 21 -11q77 65 164 65q74 0 122 -47q42 -42 42 -103q0 -46 -26 -83q-13 -18 -57 -62q-20 -20 -30.5 -35.5
t-10.5 -38.5l23 -2v-50z" />
    <glyph glyph-name="uni1EF7" unicode="&#x1ef7;" horiz-adv-x="1114" 
d="M640 494v-381q0 -41 12.5 -58.5t51.5 -27.5v-27h-271v27q38 10 51 27.5t13 58.5v381l-345 450q-63 83 -93 110t-71 39v27h316v-27q-44 -7 -44 -38q0 -28 27 -63l295 -387l267 386q28 41 28 62q0 34 -45 40v27h292v-27q-45 -15 -83 -51.5t-104 -128.5zM653 1189h-139v52
q25 1 23 6q-1 26 17 61q10 20 18.5 32t51.5 63q25 30 25 54q0 22 -11 36q-20 26 -57 26q-40 0 -72 -31q-14 -13 -14 -20q0 1 15 -21l-38 -36l-103 111l36 34q23 -13 21 -11q77 65 164 65q74 0 122 -47q42 -42 42 -103q0 -46 -26 -83q-13 -18 -57 -62q-20 -20 -30.5 -35.5
t-10.5 -38.5l23 -2v-50z" />
    <glyph glyph-name="uni1EF8" unicode="&#x1ef8;" horiz-adv-x="1333" 
d="M751 604v-486q0 -41 13 -58.5t51 -27.5v-32h-285v32q38 10 51 27t13 59v486l-441 578q-72 94 -99.5 119t-68.5 32v32h346v-32q-47 -12 -47 -39q0 -33 47 -97l347 -472l346 488q44 62 44 84q0 25 -44 36v32h322v-32q-49 -9 -84 -44q-72 -76 -93 -107zM914 1733l130 -84
l-14 -23q-14 6 -22 6q-12 0 -25 -18q-64 -95 -138 -95q-36 0 -78 15l-144 53q-18 7 -40 7q-20 0 -38 -16t-19 -35q-1 -10 13 -28l-15 -18l-132 90l13 18q14 -4 21 -4q18 0 35 23q58 84 148 84q28 0 58 -11l145 -55q24 -9 47 -9q20 0 37.5 16t17.5 35q0 14 -16 30z" />
    <glyph glyph-name="uni1EF9" unicode="&#x1ef9;" horiz-adv-x="1114" 
d="M640 494v-381q0 -41 12.5 -58.5t51.5 -27.5v-27h-271v27q38 10 51 27.5t13 58.5v381l-345 450q-63 83 -93 110t-71 39v27h316v-27q-44 -7 -44 -38q0 -28 27 -63l295 -387l267 386q28 41 28 62q0 34 -45 40v27h292v-27q-45 -15 -83 -51.5t-104 -128.5zM799 1501l130 -84
l-14 -23q-14 6 -22 6q-12 0 -25 -18q-64 -96 -138 -96q-35 0 -78 16l-144 53q-19 7 -40 7q-20 0 -38.5 -16.5t-18.5 -34.5q0 -11 13 -28l-15 -18l-132 90l13 18q13 -4 21 -4q18 0 35 23q57 84 148 84q27 0 58 -12l145 -54q25 -10 47 -10q20 0 37.5 16t17.5 35q0 14 -16 31z
" />
    <glyph glyph-name="quoteleft" unicode="&#x2018;" horiz-adv-x="573" 
d="M357 1389l31 -35q-67 -41 -97 -80.5t-40 -98.5q28 6 43 6q46 0 73.5 -29.5t27.5 -77.5q0 -49 -29.5 -80.5t-75.5 -31.5q-52 0 -82.5 43t-30.5 115q0 88 42.5 151.5t137.5 117.5z" />
    <glyph glyph-name="quoteright" unicode="&#x2019;" horiz-adv-x="573" 
d="M215 962l-30 35q66 41 96 80.5t40 99.5q-27 -7 -42 -7q-46 0 -74 29.5t-28 77.5q0 49 29.5 80.5t75.5 31.5q52 0 83 -43t31 -115q0 -89 -42.5 -152t-138.5 -117z" />
    <glyph glyph-name="quotedblleft" unicode="&#x201c;" horiz-adv-x="969" 
d="M357 1389l31 -35q-67 -41 -97 -80.5t-40 -98.5q28 6 43 6q46 0 73.5 -29.5t27.5 -77.5q0 -49 -29.5 -80.5t-75.5 -31.5q-52 0 -82.5 43t-30.5 115q0 88 42.5 151.5t137.5 117.5zM753 1389l31 -35q-67 -41 -97 -80.5t-40 -98.5q28 6 43 6q46 0 73.5 -29.5t27.5 -77.5
q0 -49 -29.5 -80.5t-75.5 -31.5q-51 0 -82 43t-31 115q0 88 42.5 151.5t137.5 117.5z" />
    <glyph glyph-name="quotedblright" unicode="&#x201d;" horiz-adv-x="969" 
d="M215 962l-30 35q66 41 96 80.5t40 99.5q-27 -7 -42 -7q-46 0 -74 29.5t-28 77.5q0 49 29.5 80.5t75.5 31.5q52 0 83 -43t31 -115q0 -89 -42.5 -152t-138.5 -117zM611 962l-31 35q67 41 97 80.5t40 99.5q-27 -7 -42 -7q-47 0 -74.5 29.5t-27.5 77.5q0 49 29.5 80.5
t75.5 31.5q52 0 83 -43t31 -115q0 -89 -42.5 -152t-138.5 -117z" />
    <glyph glyph-name="ellipsis" unicode="&#x2026;" horiz-adv-x="1720" 
d="M286 194q46 0 77.5 -32t31.5 -78q0 -44 -32.5 -76t-76.5 -32q-45 0 -77 32.5t-32 76.5q0 45 31.5 76.5t77.5 32.5zM859 194q46 0 77.5 -32t31.5 -78q0 -44 -32.5 -76t-76.5 -32q-45 0 -77 32t-32 77t31.5 76.5t77.5 32.5zM1433 194q46 0 77.5 -32t31.5 -78
q0 -44 -32.5 -76t-76.5 -32q-45 0 -77 32t-32 77t31.5 76.5t77.5 32.5z" />
    <glyph glyph-name="ugrave" horiz-adv-x="582" 
 />
    <glyph glyph-name="uacute" horiz-adv-x="580" 
 />
    <glyph glyph-name="yacute" horiz-adv-x="629" 
 />
  </font>
</defs>
</svg>
